<svg width="195" height="153" viewBox="0 0 195 153" fill="none" xmlns="http://www.w3.org/2000/svg">
<g clip-path="url(#clip0_1142_4206)">
<path d="M0 0.0424805H195V152.958H0V0.0424805Z" fill="#FDFDFD"/>
<path d="M86.5137 9H102.319L111.27 9.09521L111.841 9.47607L112.793 10.333L126.599 24.1392L127.361 24.8057L128.408 25.853L129.075 26.6147L129.836 27.4717L130.027 27.8525L129.932 35.2793V52.894L129.646 53.751L128.408 54.9888L127.646 55.6553L114.507 68.7949L113.936 69.271L113.459 69.7471L112.126 71.1753L111.46 71.7466L111.079 71.8418L101.082 72.0322L100.986 72.3179L100.891 116.593V125.448L100.986 126.209H107.461L139.548 126.305L139.644 126.59L139.358 127.923L139.263 128.019L138.025 128.114L91.3696 128.209L48.1421 128.114L45.1904 128.019L45 127.923V126.781L45.1904 126.305L52.8076 126.209L52.9028 126.114L52.998 122.401L53.0933 122.306L58.0444 122.21L58.8062 122.115L58.9966 121.83L59.4727 120.021L60.3296 116.974L60.9009 114.784L60.9961 114.688H85.0854L85.3711 115.069L85.9424 116.878L86.7993 120.497L87.1802 121.83L87.2754 122.115L88.5132 122.21L93.0835 122.306L93.1787 122.401L93.2739 125.353L93.5596 126.209H95.4639V74.127L95.3687 72.0322L94.7021 71.937H87.2754L85.4663 71.8418L84.7046 71.1753L83.7524 70.2231L83.0859 69.4614L80.0391 66.4146L79.1821 65.4624L78.5156 64.8911L78.1348 64.415L77.5635 63.939L77.0874 63.3677L76.5161 62.8916L76.04 62.3203L75.564 61.9395L74.8975 61.1777L72.5171 58.7974V58.6069L72.1362 58.4165L69.9463 56.2266L69.4702 55.8457L67.8516 54.2271L67.1851 53.1797V27.7573V27.3765L68.042 26.4243L68.6133 25.9482L69.2798 25.1865L83.8477 10.6187L84.6094 9.95215L85.0854 9.38086L85.5615 9.09521L86.5137 9Z" fill="#4159A3"/>
<path d="M86.7402 9.46875H102.546L111.496 9.56396L112.067 9.94482L113.02 10.8018L126.826 24.6079L127.587 25.2744L128.635 26.3218L129.301 27.0835L130.063 27.9404L130.253 28.3213L130.158 35.748V53.3628L129.873 54.2197L128.635 55.4575L127.873 56.124L114.733 69.2637L114.162 69.7397L113.686 70.2158L112.353 71.644L111.687 72.2153L111.306 72.3105L101.308 72.501L101.213 72.7866L101.118 117.062V125.917L101.213 126.678H107.688L139.775 126.773L139.87 127.059L139.584 128.392L139.489 128.487L138.251 128.583L91.5962 128.678L48.3687 128.583L45.417 128.487L45.2266 128.392V127.25L45.417 126.773L53.0342 126.678L53.1294 126.583L53.2246 122.87L53.3198 122.774L58.271 122.679L59.0327 122.584L59.2231 122.298L59.6992 120.489L60.5562 117.442L61.1274 115.252L61.2227 115.157H85.312L85.5977 115.538L86.1689 117.347L87.0259 120.965L87.4067 122.298L87.502 122.584L88.7397 122.679L93.3101 122.774L93.4053 122.87L93.5005 125.821L93.7861 126.678H95.6904V74.5957L95.5952 72.501L94.9287 72.4058H87.502L85.6929 72.3105L84.9312 71.644L83.979 70.6919L83.3125 69.9302L80.2656 66.8833L79.4087 65.9312L78.7422 65.3599L78.3613 64.8838L77.79 64.4077L77.314 63.8364L76.7427 63.3604L76.2666 62.7891L75.7905 62.4082L75.124 61.6465L72.7437 59.2661V59.0757L72.3628 58.8853L70.1729 56.6953L69.6968 56.3145L68.0781 54.6958L67.4116 53.6484V28.2261V27.8452L68.2686 26.8931L68.8398 26.417L69.5063 25.6553L84.0742 11.0874L84.8359 10.4209L85.312 9.84961L85.7881 9.56396L86.7402 9.46875ZM86.7402 11.0874L86.1689 11.4683L84.8359 12.7061L84.1694 13.4678L80.0752 17.562L79.3135 18.2285L76.8379 20.7041L76.1714 21.4658L75.6953 21.9419L74.2671 23.2749L72.5532 24.9888L71.7915 25.6553L70.9346 26.5122L70.1729 27.1787L69.1255 28.2261L69.0303 28.4165L68.9351 44.6982V49.2686L69.0303 53.2676L69.6968 54.0293L70.8394 55.2671L71.8867 56.3145L72.6484 56.981L77.8853 62.2178H78.0757V62.4082L78.8374 63.0747L81.0273 65.2646L81.1226 65.4551H81.313L81.5034 65.8359L81.8843 66.2168H82.0747L82.2651 66.5977L84.2646 68.5972L84.9312 69.3589L85.8833 70.311L86.645 70.6919H109.116L111.02 70.5967L111.687 70.2158L112.829 69.0732L113.496 68.3115L127.873 53.9341L128.349 53.5532L128.54 53.1724L128.635 29.3687L128.444 28.6069L127.683 27.5596L127.016 26.8931L126.254 26.2266L121.779 21.7515L121.684 21.561H121.494L121.398 21.2754L120.922 20.7993H120.732L120.542 20.4185L113.02 12.8965L112.353 12.1348L111.687 11.4683L110.925 11.1826H94.8335L86.7402 11.0874Z" fill="#081555"/>
<path d="M87.6929 13.6582H99.6899L109.973 13.7534L110.449 14.0391L111.497 15.1816L123.303 26.9883L124.065 27.6548L125.112 28.7021L125.969 29.7495L126.064 31.9395V49.5542L125.969 51.7441L125.684 52.4106L123.779 54.3149L123.018 54.9814L121.685 56.4097L113.782 64.3125L113.02 64.979L112.354 65.6455L111.687 66.4072L110.068 68.0259L109.307 68.2163L107.212 68.3115H91.0254L87.6929 68.2163L86.7407 67.5498L85.5981 66.4072L84.9316 65.6455L80.0757 60.7896V60.5991L80.4565 60.7896L80.8374 61.1704L81.2183 61.2656V61.4561L81.6943 61.3608L82.0752 61.4561L82.4561 61.3608L84.9316 61.2656H86.5503L87.5977 60.98L89.1211 60.3135L90.1685 59.7422L91.9775 59.1709L93.2153 58.79L95.2148 58.1235L96.3574 57.6475L97.8809 57.0762L99.3091 56.4097L101.213 55.5527L103.499 54.2197L104.927 53.2676L105.879 52.6011L106.26 52.5059L106.355 52.3154L107.402 51.5537L107.878 51.1729L108.069 50.792H108.354V50.6016L108.831 50.4111V50.0303L109.783 49.5542L110.068 49.2686L110.259 48.7925V48.5068L110.925 47.5547V46.793L110.735 46.6978V46.5073L110.354 46.3169L110.068 46.1265L109.402 45.936L108.831 45.6504L106.641 45.46V45.3647H111.401L112.258 45.46L112.354 45.5552V47.8403L112.639 48.5068L113.306 48.7925L114.163 48.6973L114.639 48.4116L114.829 47.8403L115.02 45.3647L116.733 45.0791L117.019 44.7935L117.114 43.5557L116.829 43.1748L115.781 42.9844L115.21 42.7939V42.6035L115.972 42.3179L116.067 41.937L115.686 40.6992L115.591 40.604L115.496 39.3662L115.686 38.4141H115.876V38.2236H116.067L116.353 37.3667H116.543L116.829 36.5098L117.114 35.5576L117.305 34.8911L117.876 33.7485L118.542 31.4634L118.733 30.8921L118.828 29.9399L119.209 29.3687L119.399 28.7021L119.78 28.5117L119.59 27.9404L119.685 27.4644L119.495 25.9409L119.114 24.7031L118.638 23.8462L118.352 23.5605V23.3701H118.162V23.1797H117.971L117.686 22.7988V22.6084L117.4 22.5132L117.209 22.1323H116.924V21.8467L116.353 21.561V21.3706L115.972 21.1802L115.21 20.4185L114.543 19.8472V19.6567L114.163 19.4663L113.687 18.895L113.02 18.4189L112.544 17.8477L112.354 17.7524V17.562H112.163L111.687 16.8003V16.6099L111.306 16.4194L110.925 16.0386V15.8481L110.544 15.6577L109.592 15.0864L109.211 14.896L108.64 14.8008H107.402L106.26 14.7056H105.974L104.927 14.5151L103.975 14.6104L103.689 14.5151H100.642L100.547 14.6104H99.5947L99.4043 14.5151L98.0713 14.4199V14.6104L97.4048 14.5151L97.2144 14.6104L96.5479 14.5151L93.8818 14.4199L93.6914 14.5151H93.2153H92.9297H91.1206H90.835H89.978L89.0259 14.3247V14.1343L88.3594 14.2295L87.7881 14.6104L87.5977 14.896H87.4072V15.0864H87.0264V15.2769L86.3599 15.8481H86.1694L85.979 16.229L85.6934 16.5146H85.4077L85.3125 16.8003H85.1221L84.9316 17.2764L84.646 17.3716V17.562H84.4556L84.2651 18.0381H83.9795L83.8843 18.3237H83.6938L83.5034 18.7998L83.2178 18.9902L82.9321 19.0854L82.7417 19.5615L82.5513 19.8472L82.2656 20.0376L81.98 20.1328V20.3232H81.7896L81.5991 20.7993L81.123 21.085H80.9326L80.7422 21.561L80.3613 21.8467H80.1709V22.0371H79.9805L79.79 22.5132L79.5044 22.7988H79.2188L79.1235 23.0845H78.9331L78.7427 23.5605L77.7905 24.4175L77.4097 24.7983H77.2192V24.9888L76.8384 25.3696H76.6479V25.5601H76.4575V25.7505H76.1719L76.0767 26.0361H75.8862V26.3218H75.6958V26.5122H75.4102L75.3149 26.7979H75.1245V26.9883H74.9341L74.8389 27.2739H74.6484L74.5532 27.5596H74.3628L74.2676 27.8452L73.8867 28.0356L73.6963 28.5117L73.3154 29.083H73.125V29.2734L72.5537 29.7495H72.3633L72.1729 30.6064L72.0776 31.0825L72.2681 32.606L72.3633 36.7954L72.5537 39.271V46.6025L72.3633 48.5068L72.1729 50.2207L71.8872 50.5063L71.792 50.2207L71.6968 48.126L71.6016 29.5591L72.1729 28.8926L72.9346 28.2261L78.7427 22.418H78.9331L79.1235 22.0371L79.79 21.3706H79.9805L80.1709 20.9897L80.9326 20.3232L81.5991 19.5615L87.4072 13.7534L87.6929 13.6582Z" fill="#314990"/>
<path d="M86.7407 11.0874L94.834 11.1826H110.925L111.687 11.4683L112.925 12.7061L113.591 13.4678L120.732 20.6089V20.7993H120.923L121.399 21.2754L121.494 21.561H121.685L122.351 22.3228L126.826 26.7979L127.588 27.4644L128.35 28.4165L128.54 28.7974L128.635 29.3687L128.54 53.1724L128.159 53.7437L127.207 54.6006L112.925 68.8828L112.258 69.6445L111.592 70.311L111.021 70.5967L109.116 70.6919H86.6455L85.8838 70.311L84.3604 68.7876L83.6938 68.0259L82.0752 66.4072V66.2168L81.6943 66.0264L81.3135 65.6455V65.4551H81.123L80.4565 64.6934L78.2666 62.5034L78.0762 62.4082V62.2178L77.6953 62.0273L72.0776 56.4097L71.3159 55.7432L70.0781 54.5054L69.4116 53.7437L69.0308 53.2676L68.9355 49.2686V44.6982L69.0308 28.4165L69.6973 27.6548L70.7446 26.6074L71.5063 25.9409L72.3633 25.084L73.125 24.4175L75.1245 22.418L75.791 21.8467L76.2671 21.3706L77.6953 19.8472L79.8853 17.6572L80.647 16.9907L84.7412 12.8965L85.4077 12.1348L86.3599 11.2778L86.7407 11.0874ZM87.6929 13.6582L87.2168 13.9438L79.9805 21.1802V21.3706L79.5996 21.561L78.9331 22.2275V22.418L78.5522 22.6084L72.3633 28.7974L71.6968 29.3687L71.5063 29.6543L71.4111 46.9834V50.5063L71.5063 51.9346L71.8872 52.6963L73.2202 54.0293L73.9819 54.6958L75.791 56.5049H75.9814L76.1719 56.8857L76.8384 57.457L77.2192 57.9331L77.8857 58.5044L78.2666 58.9805L78.7427 59.4565H78.9331L79.1235 59.8374L79.5044 60.0278V60.2183H79.6948L79.8853 60.5991L85.5029 66.2168L86.1694 66.9785L86.9312 67.7402L87.6929 68.2163L91.0254 68.3115H107.212L109.307 68.2163L110.068 68.0259L112.258 65.8359L112.925 65.0742L113.591 64.4077L114.353 63.7412L122.542 55.5527L123.208 54.791L124.636 53.458L125.684 52.4106L125.969 51.7441L126.064 49.5542V31.9395L125.969 29.7495L124.827 28.4165L123.494 27.0835L122.732 26.417L110.735 14.4199L110.259 13.8486L109.973 13.7534L99.6899 13.6582H87.6929Z" fill="#FEFEFE"/>
<path d="M61.2236 115.157H85.313L85.5986 115.538L86.1699 117.347L87.0269 120.965L87.4077 122.298L87.5029 122.584L88.7407 122.679L93.311 122.774L93.4062 122.87L93.5015 125.821L93.7871 126.773L93.4062 126.964L92.4541 127.059L88.9312 127.154L80.3618 127.25H57.5103L54.749 127.154L53.5112 127.059L53.3208 126.964V126.773L53.0352 126.678L53.1304 126.583L53.2256 122.87L53.3208 122.774L58.272 122.679L59.0337 122.584L59.2241 122.298L59.7002 120.489L60.5571 117.442L61.1284 115.252L61.2236 115.157Z" fill="#31488F"/>
<path d="M71.3149 78.9756H75.5044L75.9805 80.499L77.0278 84.4028L79.2178 92.5913L80.4556 97.0664L81.3125 100.494L81.8838 102.113L79.6938 102.208H68.9346L64.5547 102.113L65.126 100.589L66.9351 94.4004L68.5537 88.6875L70.5532 81.4512L71.1245 79.2612L71.3149 78.9756Z" fill="#425AA4"/>
<path d="M100.832 72.4058H101.118V125.917L101.213 126.678H107.688L139.775 126.773L139.87 127.059L139.584 128.392L139.489 128.487L138.251 128.583L91.5962 128.678L48.3687 128.583L45.417 128.487L45.2266 128.392V127.25L45.417 126.773H53.3198V126.964L54.748 127.059L57.5093 127.154H80.3608L88.9302 127.059L92.4531 126.964L94.0718 126.773L95.9761 126.869L100.07 126.964L99.8799 126.488L99.7847 123.06L99.6895 100.685L99.5942 92.9722L99.6895 86.2119V83.9268L99.7847 80.3086V78.7852L99.8799 74.8813L99.7847 72.6914H100.737L100.832 72.4058Z" fill="#10102B"/>
<path d="M86.7407 9.46875H102.546L109.497 9.56396V9.65918H90.3589L93.2153 9.84961L93.9771 9.94482L97.2144 10.04H99.8804L103.118 10.1353H104.355L105.974 10.04H110.449L110.925 10.2305L111.592 10.3257L111.973 10.8018L111.687 10.897L112.163 11.373L112.734 11.7539L113.02 12.0396V12.23L113.401 12.4204L115.686 14.7056L116.448 15.3721V15.5625H116.638V15.7529L116.924 15.8481L118.257 17.3716H117.971L117.495 16.9907L117.019 16.5146L116.733 16.4194V16.229H116.353L115.686 15.6577L112.925 12.8965L112.258 12.1348L111.497 11.4683L110.925 11.2778H94.834L86.7407 11.1826L86.1694 11.5635L84.9316 12.7061L84.2651 13.4678L80.0757 17.6572L79.314 18.3237L76.9336 20.7041L76.2671 21.4658L75.8862 21.6562L75.6958 22.0371L74.2676 23.3701L72.5537 25.084L71.792 25.7505L70.9351 26.6074L70.1733 27.2739L69.2212 28.2261L69.126 28.4165L69.0308 44.6982V49.2686L69.126 53.2676L69.7925 54.0293L70.9351 55.2671L71.8872 56.2192L72.6489 56.8857L77.8857 62.1226L78.0762 62.2178V62.4082L78.457 62.5986L81.123 65.2646V65.4551H81.3135L81.8848 66.1216L84.3604 68.5972L85.0269 69.3589L85.8838 70.2158L86.6455 70.5967H109.116L111.211 70.5015L111.116 70.6919L109.592 70.7871L89.1211 70.8823L89.2163 71.168L89.6924 71.3584L89.5972 71.7393L88.7402 71.9297L88.3594 72.1201L95.5005 72.2153L95.5957 72.4058H87.5024L85.6934 72.3105L84.9316 71.644L83.9795 70.6919L83.313 69.9302L80.2661 66.8833L79.4092 65.9312L78.7427 65.3599L78.3618 64.8838L77.7905 64.4077L77.3145 63.8364L76.7432 63.3604L76.2671 62.7891L75.791 62.4082L75.1245 61.6465L72.7441 59.2661V59.0757L72.3633 58.8853L70.1733 56.6953L69.6973 56.3145L68.0786 54.6958L67.4121 53.6484V28.2261V27.8452L68.269 26.8931L68.8403 26.417L69.5068 25.6553L84.0747 11.0874L84.8364 10.4209L85.3125 9.84961L85.7886 9.56396L86.7407 9.46875Z" fill="#324A92"/>
<path d="M61.2231 115.157H85.3125L85.4077 115.348H85.1221L85.3125 115.824L85.4077 116.681V117.728L85.1221 118.68L85.0269 119.347L84.5508 119.728H84.3604L84.1699 120.204L83.5986 120.68H83.2178V120.489L81.4087 120.299L81.3135 120.204L79.0283 119.918V119.728L77.6953 119.823L77.124 120.013L76.6479 120.299L75.791 120.394L75.3149 120.584L73.8867 120.775L73.125 120.965L71.2207 121.251L70.459 121.156L68.7451 121.251H66.6504L62.7466 121.346H60.5566L60.271 121.251L60.1758 120.394L60.4614 119.442L60.5566 118.585L60.7471 118.109V117.538H60.9375V116.585L60.8423 116.3L61.1279 115.252L61.2231 115.157Z" fill="#314990"/>
<path d="M63.7944 105.445L82.7422 105.541L82.9326 105.636L83.8848 109.73L84.3608 111.349L84.4561 111.634L74.9346 111.729H70.5547L62.1758 111.634L62.3662 110.777L63.5088 106.493L63.6992 105.541L63.7944 105.445Z" fill="#314990"/>
<path d="M97.7856 73.1675H98.1665L98.2617 77.0713L98.4521 94.5908V100.685L98.5474 102.684V117.823L98.6426 119.728V120.68L98.7378 121.156L98.6426 122.87H98.7378L99.0234 124.583L99.3091 124.679L99.4995 125.25L99.6899 126.202L99.7852 126.773L99.9756 126.869L99.5947 126.964H95.9766L94.0723 126.869V126.773L95.6909 126.678V81.4512H95.7861L95.8813 126.678L96.4526 126.583L96.7383 126.678L96.8335 120.68V76.4048L96.9287 74.0244L97.0239 73.7388L97.7856 73.1675Z" fill="#314990"/>
<path d="M86.7397 9.46875H102.545L109.496 9.56396V9.65918H90.3579L93.2144 9.84961L93.9761 9.94482L97.2134 10.04H99.8794L103.117 10.1353H104.354L105.973 10.04H110.448L110.924 10.2305L111.591 10.3257L111.972 10.8018L111.686 10.897L112.162 11.373L112.733 11.7539L113.019 12.0396V12.23L113.4 12.4204L115.685 14.7056L116.447 15.3721V15.5625H116.637V15.7529L116.923 15.8481L118.256 17.3716H117.97L117.494 16.9907L117.018 16.5146L116.732 16.4194V16.229H116.352L115.685 15.6577L112.924 12.8965L112.257 12.1348L111.496 11.4683L110.924 11.2778H94.833L86.7397 11.1826L86.1685 11.5635L84.9307 12.7061L84.2642 13.4678L80.0747 17.6572L79.313 18.3237L76.9326 20.7041L76.2661 21.4658L75.8853 21.6562L75.6948 22.0371L74.2666 23.3701L72.5527 25.084L71.791 25.7505L70.9341 26.6074L70.1724 27.2739L69.2202 28.2261L69.125 28.4165H68.9346V29.3687L68.7441 30.0352L68.4585 29.9399L67.8872 28.8926L67.6968 28.9878L67.6016 27.8452L68.2681 27.0835L69.3154 25.8457L84.0737 11.0874L84.8354 10.4209L85.3115 9.84961L85.7876 9.56396L86.7397 9.46875Z" fill="#132CA9"/>
<path d="M111.401 71.8345L111.877 71.9297L111.687 72.2153L111.306 72.3105L101.309 72.501L101.118 72.7866V72.4058L100.833 72.501L100.737 72.6914L100.356 72.7866L99.7852 72.6914L99.9756 75.167L99.8804 80.0229V81.4512L99.7852 84.9741V87.6401L99.6899 93.0674L99.7852 102.589L99.8804 123.06L99.9756 126.488L100.071 126.964H99.5947L99.7852 126.773L99.4043 125.536L99.3091 124.869L99.1187 124.964L98.833 124.203L98.6426 123.06L98.5474 122.774L98.6426 121.061L98.5474 120.584V119.251L98.4521 117.823V101.827L98.3569 100.018V93.353L98.1665 76.5V73.1675L97.9761 73.0723L98.3569 72.9771L98.0713 72.7866L97.1191 72.5962L95.9766 72.3105V72.1201L98.3569 72.0249H99.6899L101.88 72.1201H111.021L111.401 71.8345Z" fill="#28346A"/>
<path d="M87.7891 9.56396H111.498L112.069 9.94482L113.021 10.8018L126.827 24.6079L127.589 25.2744L128.636 26.3218L129.303 27.0835L130.064 27.9404L130.255 28.3213L130.16 35.748V52.3154H130.064L129.874 42.4131L129.684 43.1748L129.588 46.2217L129.112 49.1733L128.922 49.6494L128.827 52.125L128.636 53.2676L128.446 53.3628L128.541 29.3687L128.351 28.6069L127.589 27.5596L125.97 26.0361L121.686 21.7515V21.561H121.495L121.019 21.085L120.924 20.7993H120.733L120.067 20.0376L116.354 16.3242L116.449 16.0386L116.544 16.229H116.734V16.4194L117.02 16.3242V16.5146L117.401 16.7051L117.877 17.1812L118.067 17.2764L117.401 16.5146L116.83 15.8481L116.639 15.7529V15.5625H116.449L115.877 14.896L115.116 14.2295L113.211 12.3252L113.021 12.23V12.0396L112.735 11.9443V11.7539L112.259 11.5635L111.688 11.0874V10.897L111.878 10.8018L111.593 10.4209L110.926 10.3257L110.355 10.1353H105.499L103.785 10.2305H102.262L98.834 10.1353H96.168L93.5972 10.04L92.0737 9.84961L87.7891 9.65918V9.56396Z" fill="#09166F"/>
<path d="M85.0269 115.252L85.5029 115.348L86.1694 117.347L87.0264 120.965L87.4072 122.298L87.5024 122.584L88.7402 122.679L93.3105 122.774L93.4058 122.87L93.501 125.821L93.7866 126.773L93.4058 126.964H92.4536L92.2632 125.536L92.168 124.203L91.6919 123.441L90.4541 123.25L90.2637 123.155L89.5972 123.346L88.645 123.25L88.2642 123.155V122.965H87.5024L87.0264 122.87L86.3599 122.965L86.2646 122.87H85.4077L84.4556 122.679H68.7451L62.6514 122.584H59.5093L59.2236 122.87L55.2246 122.965L53.5107 123.06L53.3203 123.25V122.774L58.2715 122.679L59.0332 122.584L59.2236 122.298L59.6997 120.489L60.5566 117.442L60.8423 116.585L61.0327 116.49V117.252L60.9375 117.538H60.7471L60.8423 118.204L60.6519 118.775L60.5566 119.632L60.271 120.394V121.251H62.7466L67.8882 121.156H69.4116L70.9351 121.061L71.4111 121.156L73.3154 120.87L74.458 120.584L75.5054 120.489L75.791 120.299L76.6479 120.204L77.124 119.918L77.6953 119.728H79.0283V119.918H79.79L81.3135 120.108L81.4087 120.204L82.9321 120.394L83.2178 120.489V120.68L83.8843 120.394L84.3604 119.728L84.9316 119.347L85.2173 117.918L85.3125 117.538V116.49L85.1221 115.538L85.0269 115.252Z" fill="#28346A"/>
<path d="M105.594 126.678L139.776 126.773L139.871 127.059L139.585 128.392L139.49 128.487H107.308L104.546 128.392L104.07 128.202V128.011L105.403 127.726L105.118 127.44L104.451 127.345H101.69L101.023 127.154L101.119 126.773L105.594 126.678Z" fill="#06040D"/>
<path d="M66.3652 106.397L68.8408 106.493H69.793L73.6968 106.874L74.4585 107.159L74.7441 107.445V107.635L75.125 107.826L75.6963 108.683L75.6011 108.968L75.0298 109.159L74.4585 109.54L73.9824 109.92L73.792 110.111L73.9824 110.587L74.5537 110.968L74.3633 111.063L74.4585 111.349H74.1729V111.539H79.0288V111.634L74.9346 111.729H70.5547L62.1758 111.634L62.271 111.349V111.539L63.2231 111.444V111.253L62.8423 111.158V110.492H63.0327L63.1279 109.92L63.4136 108.397L63.7944 107.54L64.2705 107.064H64.4609L64.5562 106.778L65.0322 106.588H65.5083L65.7939 106.493L66.3652 106.397Z" fill="#4159A3"/>
<path d="M95.2148 72.5962H95.3101V73.6436L96.2622 73.834L96.5479 73.7388L96.4526 76.4048V121.441L96.3574 126.393L96.2622 126.678H95.4053L95.3101 124.679L95.2148 72.5962Z" fill="#051068"/>
<path d="M100.832 72.4058H101.117V117.062L101.022 125.345H100.927L100.641 119.918V109.54L100.736 102.018V93.8291L100.641 83.4507L100.546 79.0708H100.355V81.356L100.26 87.7354V99.6372L100.165 107.35V113.634L100.26 114.586L100.355 116.014L100.451 126.583L100.07 126.964L99.8794 126.488L99.7842 123.06L99.689 100.685L99.5938 92.9722L99.689 86.2119V83.9268L99.7842 80.3086V78.7852L99.8794 74.8813L99.7842 72.6914H100.736L100.832 72.4058Z" fill="#0B195A"/>
<path d="M71.3149 78.9756H75.5044L75.9805 80.499L77.0278 84.4028L79.2178 92.5913L80.4556 97.0664L81.3125 100.494L81.8838 102.113H76.3613L76.7422 101.922L77.3135 101.732L77.6943 101.542L78.3608 101.446V101.256L78.5513 101.161V100.399L78.9321 98.3994L79.0273 98.209L78.9321 97.7329L78.5513 97.6377V96.3047L78.3608 95.2573L78.1704 92.5913L77.7896 91.5439L77.4087 89.9253L77.123 88.5923V87.2593L77.0278 86.9736L76.7422 85.7358L76.5518 85.2598L76.2661 83.0698L75.8853 81.832L75.6948 81.4512L75.314 79.9277L75.1235 79.7373V79.4517L74.7427 79.5469L73.981 79.4517L73.6001 79.3564L72.8384 79.4517L71.8862 79.8325L71.6958 80.4038L71.4102 81.6416L71.1245 82.3081L70.9341 83.165L70.7437 84.5933L70.5532 85.2598L70.2676 86.3071L69.9819 87.1641L69.5059 88.9731L69.0298 90.3062L68.4585 92.7817L68.0776 93.7339L67.6016 95.0669L67.4111 95.7334L66.8398 96.876L66.0781 99.1611L65.7925 100.589L65.6973 100.78V101.542L66.2686 101.827V102.018L64.5547 102.113L65.126 100.589L66.9351 94.4004L68.5537 88.6875L70.5532 81.4512L71.1245 79.2612L71.3149 78.9756Z" fill="#31488F"/>
<path d="M67.793 54.0293L68.8403 54.3149L69.3164 55.1719L69.6021 55.3623V55.5527L70.0781 55.7432L70.6494 56.4097L70.8398 56.2192L71.6968 56.6953H72.0776L73.2202 57.7427L74.0771 58.5996L74.8389 59.2661L80.7422 65.1694V65.3599H80.9326V65.5503L81.2183 65.6455V65.8359H81.4087L82.0752 66.5977L85.979 70.5015L86.4551 70.6919L89.0259 70.7871L89.2163 71.168L89.6924 71.3584L89.5972 71.7393L88.7402 71.9297L88.3594 72.1201L95.5005 72.2153L95.5957 72.4058H87.5024L85.6934 72.3105L84.9316 71.644L83.9795 70.6919L83.313 69.9302L80.2661 66.8833L79.4092 65.9312L78.7427 65.3599L78.3618 64.8838L77.7905 64.4077L77.3145 63.8364L76.7432 63.3604L76.2671 62.7891L75.791 62.4082L75.1245 61.6465L72.7441 59.2661V59.0757L72.3633 58.8853L70.1733 56.6953L69.6973 56.3145L68.0786 54.6958L67.793 54.3149V54.0293Z" fill="#1129A9"/>
<path d="M25.5186 126.773H38.6582L41.0386 126.869L41.1338 126.964L41.0386 128.487L39.3247 128.583H25.709L25.4233 128.487L25.3281 126.869L25.5186 126.773Z" fill="#090916"/>
<path d="M149.963 126.678L157.295 126.773L157.2 128.583H144.631L144.06 128.392L143.965 127.916V126.964L144.25 126.773L149.963 126.678Z" fill="#12122D"/>
<path d="M162.151 126.773H171.577L172.053 126.964L172.148 127.059V127.916L171.958 128.392L171.863 128.487L169.482 128.583L162.437 128.678L162.056 129.059L161.58 130.296L161.104 130.772L160.056 131.725L158.723 132.582L158.438 132.677L158.533 132.296L159.485 131.629L160.532 130.868L161.199 130.201L161.675 129.344L161.865 128.297L161.675 127.345L161.77 126.964L162.151 126.773Z" fill="#12122E"/>
<path d="M89.0264 70.7871H103.975L103.689 71.2632L103.499 71.4536L103.023 71.644H101.69L101.404 71.7393L100.833 71.5488H99.5L98.5479 71.644L97.1196 71.7393H95.5962V72.2153H88.0742L88.3599 72.0249H88.6455L88.7407 71.8345L89.5977 71.644V71.3584L89.2168 71.168L89.0264 70.7871Z" fill="#030E69"/>
<path d="M59.6992 121.061L59.7944 121.346L61.6035 121.632H63.127L66.269 121.727L70.2681 121.822L72.458 121.727L73.791 121.822H74.5527L75.6953 121.917L77.9805 122.013H80.4561L81.9795 122.108L83.3125 122.298V122.394L81.9795 122.489H66.9355L63.3174 122.394H59.3184L59.4136 121.441L59.6992 121.061Z" fill="#061353"/>
<path d="M25.3281 126.869H25.5186L25.6138 127.25L26.0898 127.059L26.1851 126.964H26.8516L26.9468 127.25H28.2798L29.8984 127.345L31.8027 127.535L33.0405 127.63L35.2305 127.726V127.821L36.5635 127.916V128.011H35.897V128.202H38.6582L39.3247 128.297L41.0386 128.392V128.487L39.3247 128.583H25.709L25.4233 128.487L25.3281 126.869Z" fill="#141531"/>
<path d="M71.8867 56.3145L72.2676 56.5049L77.8853 62.1226L78.0757 62.2178V62.4082L78.4565 62.5986L81.1226 65.2646V65.4551H81.313L81.8843 66.1216L84.3599 68.5972L85.0264 69.3589L85.8833 70.2158L86.645 70.5967H109.116L111.21 70.5015L111.115 70.6919L109.592 70.7871H86.4546L85.8833 70.5015L83.2173 67.8354V67.645L82.8364 67.4546L81.6938 66.312V66.1216L81.4082 66.0264V65.8359H81.2178L80.9321 65.5503V65.3599H80.7417L80.0752 64.5981L74.7432 59.2661L74.2671 58.8853V58.6948L73.8862 58.5044L72.458 57.0762L71.8867 56.3145Z" fill="#334B9B"/>
<path d="M158.247 114.396H159.294L159.771 114.681L160.151 115.633V116.49L159.771 116.871L159.199 117.157L158.438 117.252L157.866 116.871L157.39 116.109L157.295 115.252L157.581 114.681L158.247 114.396Z" fill="#FEFEFE"/>
<path d="M153.39 21.3706H153.581L153.771 21.8467V24.7983L154.342 24.7031L154.723 24.8936L156.247 24.7031L156.342 25.084L156.247 25.1792L154.628 25.2744L153.771 25.1792V28.6069H153.295L153.485 25.1792L151.676 25.3696H150.629L150.819 24.7983L153.39 24.7031V23.5605L153.295 21.4658L153.39 21.3706Z" fill="#4058A1"/>
<path d="M113.211 17.0859L113.592 17.2764L123.304 26.9883L124.065 27.6548L125.113 28.7021L125.875 29.6543L125.779 29.9399L125.494 29.6543V29.4639L125.113 29.2734L124.732 28.8926V28.6069L124.351 28.4165L123.208 27.3691L122.732 26.9883L122.161 26.3218L121.685 25.8457L120.542 24.7983L119.019 23.1797L118.067 22.2275L117.4 21.4658L113.211 17.2764V17.0859Z" fill="#2D3C76"/>
<path d="M79.5039 105.636H82.9316L83.8838 109.73L84.0742 110.396V111.063L83.4077 110.968L83.1221 110.016L83.0269 108.873H82.8364L82.646 108.302V108.016L82.4556 107.445L82.0747 106.112L81.4082 105.826L79.5039 105.731V105.636Z" fill="#0A1755"/>
<path d="M149.962 126.678L157.294 126.773V127.535L157.104 127.916L156.723 127.821L156.627 127.345L156.342 127.25H151.01L147.392 127.154L146.059 126.964V126.869L148.725 126.773L149.962 126.678Z" fill="#0A0B19"/>
<path d="M68.269 26.8931L68.4595 26.9883L67.793 27.6548L67.6978 27.8452L67.6025 50.3159L67.5073 53.6484H67.4121V28.2261V27.8452L68.269 26.8931Z" fill="#425AA4"/>
<path d="M83.4082 126.869H87.1216L88.9307 126.964V127.154L80.3613 127.25H57.5098V127.154L76.1719 127.059L82.1704 126.964L83.4082 126.869Z" fill="#28346A"/>
<path d="M164.34 126.869H171.957L172.147 127.059V127.916L171.957 128.392H169.577L168.72 128.202L168.815 128.011L170.719 127.821L171.005 127.63V127.44L170.814 127.345L167.006 127.154V126.964H164.34V126.869Z" fill="#06050E"/>
<path d="M45.3223 126.869H52.1777L51.8921 127.154L48.2739 127.44H46.1792L46.084 127.535V128.106L45.7031 128.297L45.3223 128.202V126.869Z" fill="#05030A"/>
<path d="M121.494 19.4663L121.875 19.6567L126.254 24.0366L125.969 24.1318L125.397 23.4653L124.826 23.0845L123.684 22.1323L123.588 22.3228H123.779V22.6084L123.969 22.7036L123.588 22.7988L123.017 22.3228L122.541 21.8467L122.065 21.2754V20.8945L122.446 20.9897L121.875 20.228V20.0376L121.589 19.9424L121.398 19.5615L121.494 19.4663Z" fill="#0A1754"/>
<path d="M81.4087 19.9424V20.228L80.5518 21.1802L80.0757 21.6562H79.8853L79.6948 22.0371L78.9331 22.7988L78.3618 23.4653L77.6953 24.0366L75.6958 26.0361H75.5054L75.3149 26.417L74.5532 27.0835L74.0771 27.5596L73.8867 27.4644L74.1724 26.9883L78.7427 22.418H78.9331L79.1235 22.0371L79.79 21.3706H79.9805L80.1709 20.9897L80.9326 20.3232L81.4087 19.9424Z" fill="#1932A7"/>
<path d="M158.248 114.11H159.485L160.152 114.681L160.438 115.443V116.585L160.152 117.062L159.2 117.442L158.533 117.538L157.771 117.252L157.2 116.49L157.01 116.014V114.967L157.391 114.491L157.867 114.205L158.248 114.11ZM158.248 114.396L157.581 114.681L157.295 115.252L157.391 116.109L157.962 116.966L158.438 117.252L159.39 117.062L160.057 116.681L160.152 116.49V115.633L159.771 114.681L159.295 114.396H158.248Z" fill="#2C3A73"/>
<path d="M125.875 29.7495H125.97L126.065 31.9395V49.5542H125.97L125.875 46.793L125.779 30.416L125.875 29.7495Z" fill="#425AA4"/>
<path d="M59.2236 122.298H63.3179L66.936 122.394L68.9355 122.489L68.7451 122.679L62.6514 122.584H59.5093L59.2236 122.87L55.2246 122.965L53.5107 123.06L53.3203 123.25V122.774L58.2715 122.679L59.0332 122.584L59.2236 122.298Z" fill="#273369"/>
<path d="M97.5 73.834L97.7856 74.1196L97.8809 75.7383L97.7856 76.5952L97.6904 78.2139L97.5952 78.6899L97.2144 78.9756L97.1191 74.1196L97.2144 73.9292L97.5 73.834Z" fill="#425AA4"/>
<path d="M126.826 56.6001H127.302L126.731 57.2666L119.78 64.2173L119.59 64.0269L124.065 59.5518L124.541 58.8853L125.208 58.314L125.684 57.8379L126.826 56.6001Z" fill="#142379"/>
<path d="M95.7852 72.4058L98.0703 72.6914L98.4512 72.8818L98.2607 73.2627V73.0723L97.6895 73.3579L97.2134 73.7388L96.6421 73.9292L95.7852 73.6436V72.4058Z" fill="#0D0D29"/>
<path d="M86.3594 119.347H86.645L87.2163 121.632L87.4067 122.584H85.9785L86.2642 121.061L86.3594 120.489L86.2642 119.728L86.3594 119.347Z" fill="#101131"/>
<path d="M79.3145 93.7339H79.5049L80.1714 96.019L80.7427 98.209L81.314 100.494L81.5044 101.065V101.542L81.1235 101.256L80.9331 100.304L80.7427 100.018L80.457 98.5898L79.5049 95.1621L79.4097 94.21L79.3145 93.7339Z" fill="#27356F"/>
<path d="M71.8867 56.3145L72.2676 56.5049L77.8853 62.1226L78.0757 62.2178V62.4082L78.4565 62.5986L81.1226 65.2646V65.4551H81.313V65.6455L80.9321 65.5503V65.3599H80.7417L80.0752 64.5981L74.7432 59.2661L74.2671 58.8853V58.6948L73.8862 58.5044L72.458 57.0762L71.8867 56.3145Z" fill="#39519A"/>
<path d="M29.1362 20.228L29.2314 20.5137L27.9937 21.9419L26.8511 23.2749L25.9941 24.4175L25.1372 25.3696H24.8516L25.042 24.8936L26.375 23.2749L27.4224 21.9419L27.708 21.561H27.8984L28.0889 21.1802L28.9458 20.3232L29.1362 20.228Z" fill="#19255E"/>
<path d="M29.1367 58.0283L29.5176 58.1235L30.5649 58.79L32.374 60.123L33.9927 61.2656L34.3735 61.5513V61.7417L33.8975 61.6465L32.374 60.6943L30.7554 59.4565L29.4224 58.5044L29.1367 58.2188V58.0283Z" fill="#1A2969"/>
<path d="M22.1855 46.2217L22.5664 46.4121L23.0425 47.5547L23.709 49.3638L24.8516 51.7441L24.7563 52.0298L24.2803 51.5537L23.5186 50.0303L22.5664 47.5547L22.1855 46.5073V46.2217Z" fill="#1D234B"/>
<path d="M21.8037 32.606H22.2798L22.0894 33.6533L21.7085 37.1763L21.6133 38.5093H21.2324V37.4619L21.7085 32.7964L21.8037 32.606Z" fill="#304282"/>
<path d="M40.9434 12.8965H41.1338V13.0869L39.1343 14.0391L37.6108 14.8008L35.4209 15.8481L34.4688 16.1338V15.9434L38.2773 14.0391L40.0864 13.1821L40.9434 12.8965Z" fill="#1C2146"/>
<path d="M176.052 94.5908L176.338 94.8765L176.243 96.1143L176.052 100.304L175.767 100.399L175.576 100.208L175.862 94.9717L176.052 94.5908Z" fill="#4058A1"/>
<path d="M114.828 13.3726L115.209 13.563L115.685 13.9438V14.1343L116.066 14.2295L119.398 17.562L119.589 18.0381H119.779L119.875 18.4189L119.303 18.0381V17.8477L119.018 17.7524V17.562L118.637 17.3716L118.542 17.0859L118.161 16.8955L115.78 14.5151V14.3247H115.59L114.923 13.563L114.828 13.3726Z" fill="#0E27AB"/>
<path d="M168.055 70.311L168.721 70.8823L169.578 72.2153L170.721 74.1196L171.197 74.8813L171.387 75.5479L171.006 75.3574L170.054 73.834L168.055 70.5015V70.311Z" fill="#1F2752"/>
<path d="M173.576 82.1177L173.957 82.2129L174.243 82.8794L174.814 85.0693L175.385 87.3545V87.5449L175.004 87.4497L174.719 86.688L174.338 84.9741L173.671 82.4985L173.576 82.1177Z" fill="#1F295B"/>
<path d="M48.1797 12.3252H49.2271L53.4165 12.8013L54.4639 12.9917L54.5591 13.2773H53.7021L48.5605 12.6108L48.1797 12.4204V12.3252Z" fill="#2B3B7A"/>
<path d="M61.4141 16.229L61.9854 16.3242L62.8423 16.8955L64.2705 18.0381L65.8892 19.1807L66.27 19.5615V19.752L65.7939 19.5615L64.5562 18.7046L63.0327 17.562L61.6997 16.6099L61.4141 16.4194V16.229Z" fill="#1C2A65"/>
<path d="M159.961 60.98L160.342 61.1704L161.484 62.2178L162.722 63.3604L163.389 63.9316L163.96 64.6934L164.055 65.1694L163.389 64.5981L161.675 62.8843L160.913 62.2178L160.056 61.3608L159.961 60.98Z" fill="#202853"/>
<path d="M149.393 54.1245L150.154 54.3149L152.154 55.3623L153.963 56.5049L154.439 56.981L154.344 57.1714L152.249 55.9336L150.44 54.8862L149.488 54.4102L149.393 54.1245Z" fill="#253574"/>
<path d="M109.973 138.485L110.925 138.771L113.972 140.008L115.209 140.484L115.495 140.675V140.865L114.353 140.58L111.972 139.627L110.449 138.961L109.973 138.675V138.485Z" fill="#1F2F6E"/>
<path d="M41.5137 64.5981L42.561 64.6934L45.1318 65.1694L47.3218 65.3599L47.5122 65.5503L47.417 65.6455H46.4648L43.7988 65.3599L42.1802 65.0742L41.6089 64.8838L41.5137 64.5981Z" fill="#364D95"/>
<path d="M68.269 26.8931L68.4595 26.9883L67.793 27.6548L67.6978 27.8452L67.6025 38.4141H67.5073L67.4121 35.5576V28.2261V27.8452L68.269 26.8931Z" fill="#425AA4"/>
<path d="M60.3652 62.313H60.7461V62.5034L59.2227 63.1699L56.6519 64.1221L55.3188 64.4077H54.6523L54.7476 64.2173L56.8423 63.646L58.937 62.8843L60.3652 62.313Z" fill="#1F2D6B"/>
<path d="M140.061 141.437H140.632L140.537 141.722L138.823 142.103L135.396 142.674H134.919L134.824 142.484L136.062 142.198L139.68 141.532L140.061 141.437Z" fill="#1F2F70"/>
<path d="M161.865 128.106L162.056 128.202V128.678L162.246 128.773L161.865 129.63L161.484 130.392L161.008 130.868L160.056 131.725L158.723 132.582L158.438 132.677L158.533 132.296L159.485 131.629L160.532 130.868L161.199 130.201L161.675 129.344L161.865 128.297V128.106Z" fill="#202A5A"/>
<path d="M99.2148 131.915L99.7861 132.105L100.833 132.867L102.357 134.01L103.309 134.771L103.785 135.343L103.69 135.533L102.833 134.867L100.167 132.772L99.3101 132.105L99.2148 131.915Z" fill="#212A57"/>
<path d="M83.5034 86.2119H83.7891L83.5986 87.9258L83.313 91.7344H83.0273V90.3062L83.4082 86.3071L83.5034 86.2119Z" fill="#4057A0"/>
<path d="M122.16 142.389L124.35 142.484L127.778 142.674L127.683 142.96H126.064L123.017 142.77L122.255 142.674L122.16 142.389Z" fill="#222F67"/>
<path d="M88.3584 74.1196L88.4536 74.3101L87.6919 75.8335L86.5493 78.3091L86.0732 79.5469L85.8828 79.6421L85.978 78.8804L87.0254 76.4048L87.5967 75.0718L88.168 74.2148L88.3584 74.1196Z" fill="#4159A3"/>
<path d="M151.962 136.866V137.152L151.01 137.723L148.916 138.771L147.392 139.342H146.916L147.297 139.056L149.201 138.199L150.725 137.438L151.962 136.866Z" fill="#212F68"/>
<path d="M137.014 50.1255L138.061 50.2207L140.061 50.6968L142.631 51.4585L142.727 51.6489H142.06L138.632 50.6968L137.204 50.3159L137.014 50.1255Z" fill="#243473"/>
<path d="M84.7422 111.444L85.3135 111.825L85.7896 112.396L86.8369 114.776L87.0273 115.252H87.2178L87.4082 116.109L86.9321 115.824L86.6465 115.348L86.1704 114.11L85.2183 112.11L84.7422 111.634V111.444Z" fill="#384D91"/>
<path d="M174.624 107.254L174.91 107.35L174.053 110.111L173.481 111.92L173.101 112.586L172.91 112.491L173.291 111.444L174.529 107.35L174.624 107.254Z" fill="#242E5B"/>
<path d="M82.0742 68.4067L82.5503 68.502L82.8359 68.5972V68.7876H83.0264L83.312 69.4541L83.5024 69.5493V69.7397L83.8833 69.9302L84.4546 70.7871L84.9307 71.2632V71.4536L85.3115 71.644L85.5972 72.0249L85.2163 71.9297L83.9785 70.6919L83.312 69.9302L82.0742 68.6924V68.4067Z" fill="#111F74"/>
<path d="M81.5029 115.157H84.7402L84.645 115.443L83.7881 115.538L81.5029 115.443L76.7422 115.348V115.252L81.5029 115.157Z" fill="#28346A"/>
<path d="M170.149 118.966L170.245 119.251L169.197 120.775L167.864 122.774L167.103 123.631L166.912 123.536L168.15 121.822L168.912 120.584L169.864 119.251L170.149 118.966Z" fill="#222C5A"/>
<path d="M82.8374 99.1611H83.123L83.5039 102.684L83.5991 104.017H83.3135L83.2183 103.636L83.0278 101.351L82.7422 99.6372L82.8374 99.1611Z" fill="#425AA4"/>
<path d="M153.104 24.7031H153.485V25.1792L151.676 25.3696H150.629L150.819 24.7983L153.104 24.7031Z" fill="#435BA4"/>
<path d="M109.496 9.56396H111.496L112.067 9.94482L113.019 10.8018L115.78 13.563L115.59 13.7534L114.638 12.8013L113.971 12.0396L113.305 11.5635L112.638 10.8018V10.6113L112.257 10.4209L111.591 9.94482V9.75439L109.496 9.65918V9.56396Z" fill="#1D2349"/>
<path d="M90.7402 122.87H93.311V124.012L92.2637 123.917L92.0732 123.822L92.1685 123.25L92.2637 123.06L90.7402 122.965V122.87Z" fill="#061250"/>
<path d="M119.398 62.5034L119.494 62.7891L119.303 63.1699H119.113L119.018 63.4556H118.827V63.7412L118.351 63.9316L118.256 64.2173L117.875 64.4077L117.78 64.6934H117.589L117.494 64.979H117.304V65.1694H117.113L117.018 65.4551L116.542 65.6455L116.352 65.8359V65.5503L119.398 62.5034Z" fill="#0E0D24"/>
<path d="M153.487 24.7031L153.773 25.084V28.6069H153.297L153.487 24.7031Z" fill="#19296A"/>
<path d="M111.402 71.8345L111.878 71.9297L111.688 72.2153L111.307 72.3105H101.404V72.1201H111.021L111.402 71.8345Z" fill="#28346A"/>
<path d="M77.8867 62.2178H78.0771V62.4082L78.458 62.5986L81.124 65.2646V65.4551H81.3145V65.6455L80.9336 65.5503V65.3599H80.7432L80.0767 64.5981L77.8867 62.4082V62.2178Z" fill="#3B539C"/>
<path d="M51.416 12.7061H52.6538L54.4629 12.9917L54.5581 13.2773H53.7012L51.6064 12.9917L51.416 12.8965V12.7061Z" fill="#17245F"/>
<path d="M29.1367 58.0283L29.5176 58.1235L30.5649 58.79L31.9932 59.8374L31.7075 59.9326L31.2314 59.5518L30.7554 59.2661L30.2793 59.1709L29.3271 58.4092L29.1367 58.0283Z" fill="#2C3D7C"/>
<path d="M58.2715 122.679H59.0332L59.2236 122.87L55.2246 122.965L53.5107 123.06L53.3203 123.25V122.774L58.2715 122.679Z" fill="#2B3A74"/>
<path d="M174.72 85.0693L174.91 85.355L175.386 87.3545V87.5449L175.005 87.4497L174.72 86.688L174.529 85.355L174.72 85.0693Z" fill="#1F2D68"/>
<path d="M158.532 114.11H159.484L160.151 114.681L160.341 115.062V116.395H160.246L159.96 115.252L159.675 114.681L159.199 114.396L158.342 114.3L158.532 114.11Z" fill="#181B3E"/>
<path d="M29.1357 20.228L29.231 20.5137L27.9932 21.9419L27.7075 22.2275H27.5171L27.4219 21.9419L27.7075 21.561H27.8979L28.0884 21.1802L28.9453 20.3232L29.1357 20.228Z" fill="#1B2047"/>
<path d="M109.973 138.485L110.925 138.771L112.829 139.532V139.627L112.163 139.723L110.449 138.961L109.973 138.675V138.485Z" fill="#273878"/>
<path d="M60.3667 62.313H60.7476V62.5034L59.2241 63.1699L58.272 63.5508H58.0815L57.9863 63.2651L60.3667 62.313Z" fill="#22316D"/>
<path d="M123.494 27.3691L123.875 27.4644L125.113 28.7021L125.875 29.6543L125.779 29.9399L125.494 29.6543V29.4639L125.113 29.2734L124.732 28.8926V28.6069L124.351 28.4165L123.494 27.4644V27.3691Z" fill="#2B3871"/>
<path d="M80.7412 98.6851L80.9316 99.0659L81.5029 101.065V101.542L81.1221 101.256L80.9316 100.304L80.7412 100.018L80.5508 98.8755H80.7412V98.6851Z" fill="#2A3872"/>
<path d="M158.248 114.11L159.2 114.3V114.396L157.867 114.586L157.486 114.967L157.295 115.919L157.01 116.014V114.967L157.391 114.491L157.867 114.205L158.248 114.11Z" fill="#192151"/>
<path d="M67.9829 56.0288H68.1733V56.8857L67.8877 57.3618L67.4116 57.2666L67.3164 57.0762L67.6021 56.2192L67.9829 56.0288Z" fill="#425AA4"/>
<path d="M81.2188 65.6455L81.5996 65.8359L82.0757 66.2168L82.7422 66.9785L84.0752 68.3115L83.98 68.5972L83.2183 67.8354V67.645L82.8374 67.4546L81.6948 66.312V66.1216L81.4092 66.0264V65.8359H81.2188V65.6455Z" fill="#374F97"/>
<path d="M21.6133 36.2241H21.7085V37.1763L21.6133 38.5093H21.2324V37.4619L21.3276 36.5098L21.6133 36.2241Z" fill="#324280"/>
<path d="M153.392 21.3706H153.583L153.773 21.8467L153.678 24.0366H153.487L153.392 23.5605L153.297 21.4658L153.392 21.3706Z" fill="#4158A2"/>
<path d="M86.3604 119.347H86.646L86.8364 120.489H86.646L86.7412 120.87L86.3604 121.822L86.1699 121.632L86.3604 120.584L86.2651 119.728L86.3604 119.347Z" fill="#0C1855"/>
<path d="M160.247 131.058L160.532 131.153L160.056 131.725L158.723 132.582L158.438 132.677L158.533 132.296L159.485 131.629L160.247 131.058Z" fill="#1F2E6C"/>
<path d="M122.16 142.389L124.35 142.484L125.778 142.579V142.674L124.35 142.77H123.017L122.255 142.674L122.16 142.389Z" fill="#28366E"/>
<path d="M80.1709 96.3047L80.3613 96.6855L80.7422 98.209V98.8755H80.5518L79.9805 96.876V96.5903H80.1709V96.3047Z" fill="#25336E"/>
<path d="M71.3149 78.9756L72.2671 79.0708V79.166H71.4102L71.2197 80.1182L70.8389 81.5464L70.6484 81.6416L70.7437 80.6895L71.1245 79.2612L71.3149 78.9756Z" fill="#273774"/>
<path d="M129.968 47.3643H130.063L130.158 53.3628L129.968 54.0293L129.777 53.6484L129.873 53.5532L129.968 47.3643Z" fill="#172572"/>
<path d="M60.938 116.49H61.0332V117.252L60.938 117.538H60.7476L60.8428 118.204L60.5571 118.68H60.2715L60.6523 117.062L60.8428 116.585L60.938 116.49Z" fill="#2B3972"/>
<path d="M44.8457 65.2646H45.9883L47.3213 65.3599L47.5117 65.5503L47.4165 65.6455H46.4644L44.8457 65.4551V65.2646Z" fill="#39519A"/>
<path d="M64.3652 18.4189H64.8413L65.9839 19.2759L66.2695 19.5615V19.752L65.7935 19.5615L64.5557 18.7046L64.3652 18.4189Z" fill="#1F2A60"/>
<path d="M99.2148 131.915L99.7861 132.105L100.833 132.867L101.119 133.058L101.214 133.343L101.5 133.629L101.119 133.534L100.167 132.772L99.3101 132.105L99.2148 131.915Z" fill="#202957"/>
<path d="M32.7534 60.4087L33.6104 60.98L34.3721 61.5513V61.7417L33.896 61.6465L32.6582 60.8848L32.8486 60.7896L32.7534 60.4087Z" fill="#202E68"/>
<path d="M84.7422 111.444L85.3135 111.825L85.7896 112.396L86.1704 113.253V113.729L85.8848 113.443L85.0278 111.825L84.7422 111.634V111.444Z" fill="#21306C"/>
<path d="M79.5039 105.636H82.1699L82.5508 105.826L82.4556 106.207H82.2651L82.1699 106.397L81.9795 106.017L81.4082 105.826L79.5039 105.731V105.636Z" fill="#030E69"/>
<path d="M95.8809 73.6436L96.7378 73.834L97.0234 73.7388V74.0244L96.5474 74.3101L96.1665 74.4053V74.5957H95.8809V73.6436Z" fill="#051253"/>
<path d="M152.725 55.9336L153.201 56.0288L154.058 56.6001L154.438 56.981L154.343 57.1714L152.725 56.2192V55.9336Z" fill="#1B2965"/>
<path d="M170.149 118.966L170.245 119.251L169.197 120.775L168.816 120.87L169.007 120.489L169.864 119.251L170.149 118.966Z" fill="#202A5A"/>
<path d="M124.826 24.7031H125.017V24.8936L125.397 25.084L125.493 25.3696L125.778 25.4648V25.6553L126.064 25.7505V25.9409H126.254V26.1313L126.54 26.2266V26.417L126.921 26.6074L127.016 26.8931L126.635 26.7026L124.826 24.8936V24.7031Z" fill="#1B2C6F"/>
<path d="M144.061 128.011L144.156 128.202L146.25 128.297L147.107 128.392V128.487H144.156L144.061 128.011Z" fill="#0B1958"/>
<path d="M153.486 24.7031L153.772 25.084V27.6548H153.677L153.582 26.417H153.486V24.7031Z" fill="#28356C"/>
<path d="M115.019 45.3647L115.399 45.46H115.114V45.6504L115.399 45.7456L115.304 46.3169H115.114V47.7451L114.923 48.2212L114.828 47.8403L115.019 45.3647Z" fill="#4159A3"/>
<path d="M144.061 126.869H145.87V126.964L144.822 127.059L144.727 127.25H144.537V127.44L144.061 127.63V126.869Z" fill="#05030B"/>
<path d="M97.6914 72.1201H99.4053L99.7861 72.3105L99.0244 72.4058H97.2153L96.9297 72.2153L97.6914 72.1201Z" fill="#314990"/>
<path d="M27.3262 22.0371H27.5166L27.6118 22.418L26.7549 23.3701L26.5645 22.9893L27.3262 22.0371Z" fill="#17235A"/>
<path d="M83.5977 109.254L83.7881 109.349L84.0737 110.396V111.063L83.6929 110.968L83.5977 110.111V109.254Z" fill="#161A3D"/>
<path d="M148.63 138.485H148.82L148.916 138.771L147.392 139.342H146.916L147.297 139.056L148.63 138.485Z" fill="#283877"/>
<path d="M111.402 71.8345L111.878 71.9297L111.688 72.2153L111.307 72.3105H108.355V72.2153L111.021 72.1201L111.402 71.8345Z" fill="#394D91"/>
<path d="M149.393 54.1245L150.154 54.3149L150.726 54.6006V54.8862L151.106 55.0767L150.63 54.9814L149.488 54.4102L149.393 54.1245Z" fill="#1F2F70"/>
<path d="M71.8867 56.3145L72.2676 56.5049L73.791 58.0283L73.5054 58.1235L72.458 57.0762L71.8867 56.3145Z" fill="#3D559E"/>
<path d="M126.35 24.3223L126.73 24.5127L127.683 25.3696L128.254 26.0361L127.873 25.9409L126.35 24.4175V24.3223Z" fill="#162669"/>
<path d="M39.8003 123.346L40.2764 123.441L40.3716 123.631H39.5146L39.8955 124.488L39.8003 124.774L39.3242 124.107V123.631L39.8003 123.346Z" fill="#425AA4"/>
<path d="M160.342 115.443H160.438V116.585L160.152 117.062L159.676 117.157L159.866 116.681H160.057L160.152 115.824L160.342 115.443Z" fill="#2F3E7A"/>
<path d="M173.576 82.1177L173.957 82.2129L174.243 82.8794V83.3555H174.052L173.957 83.5459L173.576 82.3081V82.1177Z" fill="#202A5C"/>
<path d="M170.625 74.1196L170.91 74.4053L171.386 75.3574V75.5479L171.005 75.3574L170.529 74.5957L170.625 74.1196Z" fill="#212A57"/>
<path d="M140.822 51.0776L141.679 51.1729L142.631 51.4585L142.727 51.6489H142.06L141.013 51.3633L140.822 51.0776Z" fill="#223069"/>
<path d="M35.9922 15.1816L36.1826 15.2769L36.2778 15.4673L34.8496 16.0386L34.4688 16.1338V15.9434L35.9922 15.1816Z" fill="#242E5C"/>
<path d="M40.9424 12.8965H41.1328V13.0869L39.7998 13.7534H39.6094L39.7046 13.3726L40.9424 12.8965Z" fill="#212A56"/>
<path d="M53.0352 12.8013L54.0825 12.8965L54.5586 13.0869V13.2773H53.7017L53.1304 13.1821L53.3208 12.9917L53.0352 12.8013Z" fill="#23326F"/>
<path d="M151.962 136.866V137.152L151.01 137.723L150.629 137.628L150.915 137.342L151.962 136.866Z" fill="#1F2855"/>
<path d="M109.496 9.56396H111.496L112.067 9.94482L112.353 10.2305L112.067 10.3257L111.591 9.94482V9.75439L109.496 9.65918V9.56396Z" fill="#202B60"/>
<path d="M146.059 126.869H148.249L148.344 127.154H147.392L146.059 126.964V126.869Z" fill="#05030A"/>
<path d="M96.3574 126.583L96.9287 126.869V126.964L94.0723 126.869V126.773L95.8813 126.678L96.3574 126.583Z" fill="#28346A"/>
<path d="M122.445 20.4185L122.826 20.6089L123.969 21.7515L123.683 21.8467L122.445 20.6089V20.4185Z" fill="#20274F"/>
<path d="M140.06 141.437H140.631L140.536 141.722L139.87 141.913H139.203L139.489 141.627L140.06 141.437Z" fill="#1F2C65"/>
<path d="M173.481 110.777L173.672 111.158L173.577 111.729L173.196 112.491H172.91L173.291 111.444L173.481 110.777Z" fill="#2C396F"/>
<path d="M115.781 13.6582L116.448 14.2295L116.924 14.8008H116.543L116.067 14.4199L115.781 13.9438V13.6582Z" fill="#182770"/>
<path d="M83.7881 111.158H84.2642V111.539H82.8359L83.1216 111.349L83.7881 111.158Z" fill="#1C275B"/>
<path d="M123.494 27.3691L123.875 27.4644L124.732 28.3213V28.6069L124.351 28.4165L123.494 27.4644V27.3691Z" fill="#1F2754"/>
<path d="M122.066 21.9419H122.257V22.1323L122.542 22.2275V22.418L122.923 22.6084L123.495 23.1797L123.399 23.4653L122.066 22.1323V21.9419Z" fill="#1B2B6F"/>
<path d="M161.866 128.106L162.056 128.202V128.678L162.247 128.773L161.866 129.63L161.675 129.916L161.58 129.535L161.866 128.297V128.106Z" fill="#314589"/>
<path d="M30.3726 58.6948L31.2295 59.2661L31.9912 59.8374L31.7056 59.9326L31.2295 59.5518L30.7534 59.2661L30.2773 59.1709L30.4678 59.0757L30.3726 58.6948Z" fill="#314281"/>
<path d="M86.1694 113.443L86.3599 113.729L86.8359 114.776L86.7407 115.062L86.4551 114.776L86.0742 113.919L86.1694 113.443Z" fill="#334585"/>
<path d="M173.862 109.54L174.052 109.825L173.862 110.777L173.671 111.158H173.576V110.492L173.862 109.54Z" fill="#222C5B"/>
<path d="M78.8374 91.7344L79.0278 91.8296L79.3135 92.877V93.353L79.0278 93.0674L78.9326 92.5913L78.7422 92.2104L78.8374 91.7344Z" fill="#2D3C77"/>
<path d="M55.8901 63.9316L56.271 64.0269L56.1758 64.2173L55.3188 64.4077H54.6523L54.7476 64.2173L55.8901 63.9316Z" fill="#273775"/>
<path d="M174.91 86.5928H175.195L175.386 87.5449L175.005 87.4497L174.814 87.0688L174.91 86.5928Z" fill="#1D2B68"/>
<path d="M37.0381 14.6104L37.2285 14.7056V14.9912L36.4668 15.3721L36.0859 15.2769L36.3716 14.9912L37.0381 14.6104Z" fill="#1D244C"/>
<path d="M158.248 114.11L159.2 114.3V114.396L157.867 114.586L157.581 114.681L157.391 114.491L157.867 114.205L158.248 114.11Z" fill="#2B386F"/>
<path d="M25.4229 24.4175L25.7085 24.6079L25.5181 24.9888L25.1372 25.3696H24.8516L25.042 24.8936L25.4229 24.4175Z" fill="#1E2B65"/>
<path d="M69.126 87.1641L69.2212 87.4497L68.9355 88.3066L68.6499 89.2588H68.5547L68.6499 88.4019L68.9355 87.3545L69.126 87.1641Z" fill="#2C3B76"/>
<path d="M60.3672 62.313H60.748V62.5034L59.9863 62.8843H59.6055V62.5986L60.3672 62.313Z" fill="#1E2756"/>
<path d="M61.4141 16.229L61.9854 16.3242L62.4614 16.6099L62.271 16.7051V16.8955L61.7949 16.7051L61.4141 16.4194V16.229Z" fill="#243476"/>
<path d="M99.2148 131.915L99.7861 132.105L100.453 132.582L100.167 132.772L99.3101 132.105L99.2148 131.915Z" fill="#283874"/>
<path d="M82.1699 105.636H82.9316L83.0269 106.302L82.4556 106.207V105.826L82.1699 105.636Z" fill="#0F1B57"/>
<path d="M153.106 24.7031H153.487V25.1792H152.82V24.7983L153.106 24.7031Z" fill="#6477B4"/>
<path d="M62.2695 16.7051L62.7456 16.8003L63.1265 17.1812L62.7456 17.3716L62.2695 16.9907V16.7051Z" fill="#182663"/>
<path d="M114.639 12.6108L115.02 12.8013L115.781 13.563L115.591 13.7534L114.639 12.8013V12.6108Z" fill="#1D285E"/>
<path d="M114.354 140.389H115.02L115.496 140.675V140.865L114.354 140.58V140.389Z" fill="#212C60"/>
<path d="M84.7422 111.444L85.3135 111.825L85.6943 112.206L85.5991 112.682L85.3135 112.301L85.0278 111.825L84.7422 111.634V111.444Z" fill="#283771"/>
<path d="M79.5039 105.636H82.0747L81.6938 105.731V105.921L81.4082 105.826L79.5039 105.731V105.636Z" fill="#253169"/>
<path d="M139.204 141.627L139.49 141.722L139.299 141.913V142.008L138.442 142.103L138.252 141.817L139.204 141.627Z" fill="#27387B"/>
<path d="M86.0742 118.014L86.3599 118.109L86.5503 118.966V119.347L86.2646 119.251L86.1694 118.395L86.0742 118.014Z" fill="#162565"/>
<path d="M44.8457 65.2646H45.9883V65.5503H45.3218L44.8457 65.4551V65.2646Z" fill="#385099"/>
<path d="M153.486 56.4097L153.962 56.5049L154.438 56.981L154.343 57.1714L153.486 56.6001V56.4097Z" fill="#242E5E"/>
<path d="M29.1362 20.228L29.2314 20.5137L28.6602 20.8945L28.0889 21.4658L27.8984 21.3706L28.9458 20.3232L29.1362 20.228Z" fill="#253166"/>
<path d="M135.586 142.293L135.967 142.389L136.062 142.579L134.919 142.674L134.824 142.484L135.586 142.293Z" fill="#293978"/>
<path d="M83.3125 102.684H83.5029L83.5981 104.017H83.3125V102.684Z" fill="#2E3E7C"/>
<path d="M120.543 18.5142L120.924 18.7046L121.59 19.3711L121.4 19.5615L120.543 18.7046V18.5142Z" fill="#1A2A6C"/>
<path d="M113.305 11.4683L113.781 11.5635L114.733 12.5156H114.447L113.781 11.8491L113.305 11.5635V11.4683Z" fill="#181F4B"/>
<path d="M82.8374 106.112L83.0278 106.302L82.9326 106.683H82.647L82.3613 106.588L82.4565 106.207L82.8374 106.112Z" fill="#0F0D24"/>
<path d="M71.3154 78.9756L72.2676 79.0708V79.166H71.4106L71.3154 79.5469L71.125 79.7373L71.2202 79.0708L71.3154 78.9756Z" fill="#223171"/>
<path d="M85.7891 70.2158L86.646 70.5967L87.6934 70.6919V70.7871H86.4556L85.8843 70.5015L85.7891 70.2158Z" fill="#3F57A1"/>
<path d="M150.725 54.6958L151.296 54.8862L151.582 55.0767V55.3623L151.105 55.2671L150.915 55.0767L150.725 54.6958Z" fill="#293873"/>
<path d="M137.014 50.1255L138.061 50.2207L138.537 50.3159L138.156 50.5063L137.204 50.3159L137.014 50.1255Z" fill="#364A8C"/>
<path d="M68.2686 26.8931L68.459 26.9883L67.7925 27.6548L67.6021 28.2261L67.3164 28.1309L67.5068 27.75L68.1733 26.9883L68.2686 26.8931Z" fill="#39519A"/>
<path d="M111.592 139.151L112.068 139.247L112.83 139.532V139.627L112.163 139.723L111.973 139.627V139.342L111.592 139.247V139.151Z" fill="#30458A"/>
<path d="M50.749 12.6108H51.8916V12.7061H51.4155V12.8965H50.749L50.5586 12.7061L50.749 12.6108Z" fill="#1E2F70"/>
<path d="M101.117 133.153L101.974 133.724L102.069 133.915L101.784 134.01L101.308 133.629L101.403 133.534L101.117 133.343V133.153Z" fill="#2B3971"/>
<path d="M69.9824 84.022L70.0776 84.3076L69.792 85.2598L69.6016 85.355L69.6968 84.5933L69.8872 84.1172L69.9824 84.022Z" fill="#273671"/>
<path d="M138.156 50.4111H138.918L139.394 50.5063L139.108 50.6016L139.013 50.792L138.156 50.6016V50.4111Z" fill="#293B7D"/>
<path d="M124.826 24.7031H125.017V24.8936L125.397 25.084L125.493 25.3696L125.778 25.4648L125.683 25.7505L124.826 24.8936V24.7031Z" fill="#1C2D71"/>
<path d="M153.486 22.7988H153.676V24.0366H153.486L153.391 23.6558L153.486 22.7988Z" fill="#28356C"/>
<path d="M153.392 21.3706H153.583L153.773 21.8467H153.583L153.487 22.2275L153.297 21.9419V21.4658L153.392 21.3706Z" fill="#202C63"/>
<path d="M112.354 139.627H113.02L113.496 139.818V139.913L112.83 140.008L112.354 139.723V139.627Z" fill="#283979"/>
<path d="M160.246 131.058L160.531 131.153L160.055 131.725L159.77 131.82V131.439L160.246 131.058Z" fill="#1F2F70"/>
<path d="M82.6465 108.397L82.8369 108.683V108.873H83.0273L83.1226 109.444V109.92L82.9321 109.635L82.6465 108.778V108.397Z" fill="#28346A"/>
<path d="M174.624 107.254L174.91 107.35L174.624 108.207L174.434 108.111L174.529 107.35L174.624 107.254Z" fill="#222A56"/>
<path d="M83.2188 67.645L83.5996 67.8354L84.0757 68.3115L83.9805 68.5972L83.2188 67.8354V67.645Z" fill="#364E96"/>
<path d="M31.9922 60.2183L32.7539 60.4087L32.8491 60.7896L32.373 60.6943L31.9922 60.4087V60.2183Z" fill="#131C4E"/>
<path d="M73.6016 58.1235L73.9824 58.2188L74.5537 58.79L74.4585 59.0757L74.2681 58.6948L73.8872 58.5044L73.6016 58.1235Z" fill="#364E96"/>
<path d="M125.207 23.1797L125.588 23.3701L126.254 24.0366L125.969 24.1318L125.397 23.4653L125.207 23.3701V23.1797Z" fill="#151E51"/>
<path d="M63.793 17.9429L64.269 18.0381L64.6499 18.4189L64.269 18.5142L63.793 18.1333V17.9429Z" fill="#222E64"/>
</g>
<defs>
<clipPath id="clip0_1142_4206">
<rect width="195" height="153" fill="white"/>
</clipPath>
</defs>
</svg>
