<svg width="259" height="54" viewBox="0 0 259 54" fill="none" xmlns="http://www.w3.org/2000/svg">
<line x1="1" y1="2.18558e-08" x2="0.999998" y2="54" stroke="#134967"/>
<line x1="8" y1="6.55673e-08" x2="8" y2="54" stroke="#134967" stroke-width="3"/>
<line x1="15" y1="1.09279e-07" x2="15" y2="54" stroke="#134967" stroke-width="5"/>
<line x1="19" y1="2.18558e-08" x2="19" y2="54" stroke="#134967"/>
<line x1="25.5" y1="4.37115e-08" x2="25.5" y2="54" stroke="#134967" stroke-width="2"/>
<line x1="33.5" y1="1.31135e-07" x2="33.5" y2="54" stroke="#134967" stroke-width="6"/>
<line x1="37" y1="2.18558e-08" x2="37" y2="54" stroke="#134967"/>
<line x1="45" y1="1.09279e-07" x2="45" y2="54" stroke="#134967" stroke-width="5"/>
<line x1="49" y1="2.18558e-08" x2="49" y2="54" stroke="#134967"/>
<line x1="55.5" y1="4.37115e-08" x2="55.5" y2="54" stroke="#134967" stroke-width="2"/>
<line x1="64.5" y1="1.74846e-07" x2="64.5" y2="54" stroke="#134967" stroke-width="8"/>
<line x1="67" y1="2.18558e-08" x2="67" y2="54" stroke="#134967"/>
<line x1="73.5" y1="4.37115e-08" x2="73.5" y2="54" stroke="#134967" stroke-width="2"/>
<line x1="80.5" y1="8.74231e-08" x2="80.5" y2="54" stroke="#134967" stroke-width="4"/>
<line x1="84.75" y1="1.09279e-08" x2="84.75" y2="54" stroke="#134967" stroke-width="0.5"/>
<line x1="92" y1="6.55673e-08" x2="92" y2="54" stroke="#134967" stroke-width="3"/>
<line x1="99" y1="1.09279e-07" x2="99" y2="54" stroke="#134967" stroke-width="5"/>
<line x1="103" y1="2.18558e-08" x2="103" y2="54" stroke="#134967"/>
<line x1="108" y1="54" x2="108" stroke="#134967"/>
<line x1="116.5" y1="8.74231e-08" x2="116.5" y2="54" stroke="#134967" stroke-width="4"/>
<line x1="121" y1="2.18558e-08" x2="121" y2="54" stroke="#134967"/>
<line x1="127" y1="2.18558e-08" x2="127" y2="54" stroke="#134967"/>
<line x1="132.75" y1="1.09279e-08" x2="132.75" y2="54" stroke="#134967" stroke-width="0.5"/>
<line x1="137" y1="54" x2="137" stroke="#134967" stroke-width="3"/>
<line x1="142" y1="54" x2="142" stroke="#134967" stroke-width="5"/>
<line x1="150" y1="54" x2="150" stroke="#134967"/>
<line x1="155.5" y1="54" x2="155.5" stroke="#134967" stroke-width="2"/>
<line x1="159.5" y1="54" x2="159.5" stroke="#134967" stroke-width="6"/>
<line x1="168" y1="54" x2="168" stroke="#134967"/>
<line x1="172" y1="54" x2="172" stroke="#134967" stroke-width="5"/>
<line x1="180" y1="54" x2="180" stroke="#134967"/>
<line x1="185.5" y1="54" x2="185.5" stroke="#134967" stroke-width="2"/>
<line x1="188.5" y1="54" x2="188.5" stroke="#134967" stroke-width="8"/>
<line x1="198" y1="54" x2="198" stroke="#134967"/>
<line x1="203.5" y1="54" x2="203.5" stroke="#134967" stroke-width="2"/>
<line x1="208.5" y1="54" x2="208.5" stroke="#134967" stroke-width="4"/>
<line x1="216.25" y1="54" x2="216.25" stroke="#134967" stroke-width="0.5"/>
<line x1="221" y1="54" x2="221" stroke="#134967" stroke-width="3"/>
<line x1="226" y1="54" x2="226" stroke="#134967" stroke-width="5"/>
<line x1="234" y1="54" x2="234" stroke="#134967"/>
<line x1="238.5" y1="54" x2="238.5" stroke="#134967" stroke-width="4"/>
<line x1="246" y1="54" x2="246" stroke="#134967"/>
<line x1="252" y1="54" x2="252" stroke="#134967"/>
<line x1="258.25" y1="54" x2="258.25" stroke="#134967" stroke-width="0.5"/>
</svg>
