<svg width="390" height="400" viewBox="0 0 390 400" fill="none" xmlns="http://www.w3.org/2000/svg">
<path d="M195 332.552C259.249 332.552 311.334 329.511 311.334 325.76C311.334 322.009 259.249 318.968 195 318.968C130.751 318.968 78.666 322.009 78.666 325.76C78.666 329.511 130.751 332.552 195 332.552Z" fill="#F5F5F5"/>
<path d="M188.037 271.918H72.1829C70.2929 271.915 68.7629 270.382 68.7629 268.492V105.634C68.7791 103.756 70.3049 102.241 72.1829 102.238H188.037C189.929 102.238 191.463 103.772 191.463 105.664V268.492C191.463 270.384 189.929 271.918 188.037 271.918ZM72.1829 102.358C70.3757 102.362 68.9129 103.827 68.9129 105.634V268.492C68.9129 270.299 70.3757 271.764 72.1829 271.768H188.037C189.845 271.765 191.309 270.3 191.313 268.492V105.634C191.309 103.826 189.845 102.361 188.037 102.358H72.1829Z" fill="#E6E6E6"/>
<path d="M317.823 271.918H201.963C200.072 271.915 198.54 270.383 198.537 268.492V105.634C198.557 103.755 200.084 102.241 201.963 102.238H317.823C319.699 102.245 321.221 103.758 321.237 105.634V268.492C321.237 270.38 319.711 271.911 317.823 271.918ZM201.963 102.358C200.155 102.362 198.69 103.826 198.687 105.634V268.492C198.69 270.3 200.155 271.764 201.963 271.768H317.823C319.631 271.765 321.095 270.3 321.099 268.492V105.634C321.095 103.826 319.631 102.361 317.823 102.358H201.963Z" fill="#E6E6E6"/>
<path d="M96.564 302.326H71.838V302.476H96.564V302.326Z" fill="#E0E0E0"/>
<path d="M146.964 301.126H122.166V301.276H146.964V301.126Z" fill="#E0E0E0"/>
<path d="M179.232 301.126H173.232V301.276H179.232V301.126Z" fill="#E0E0E0"/>
<path d="M119.262 306.25H91.512V306.4H119.262V306.25Z" fill="#E0E0E0"/>
<path d="M215.244 302.248H202.284V302.398H215.244V302.248Z" fill="#E0E0E0"/>
<path d="M237.342 302.248H220.584V302.398H237.342V302.248Z" fill="#E0E0E0"/>
<path d="M318.162 304.786H280.698V304.936H318.162V304.786Z" fill="#E0E0E0"/>
<path d="M345 296.439H45V296.589H345V296.439Z" fill="#EBEBEB"/>
<path opacity="0.8" d="M245.901 114.688L244.406 135.252C244.355 135.969 244.046 136.619 243.57 137.106C243.021 137.691 242.244 138.056 241.406 138.056H224.91C224.3 138.056 223.75 137.863 223.316 137.528C222.64 137.025 222.236 136.191 222.302 135.252L223.797 114.687C223.906 113.138 225.248 111.883 226.797 111.883H243.292C244.842 111.884 246.009 113.139 245.901 114.688Z" fill="#E0E0E0"/>
<path d="M238.747 123.998C238.534 127.032 236.341 129.491 233.848 129.491C231.355 129.491 229.506 127.032 229.718 123.998C229.93 120.965 232.123 118.506 234.616 118.506C237.109 118.506 238.958 120.965 238.747 123.998Z" fill="white"/>
<path d="M240.826 136.64H225.731C224.774 136.64 224.111 136.181 224.087 135.536C224.052 134.603 228.947 130.554 233.591 130.905C233.608 130.906 233.625 130.905 233.642 130.905C233.661 130.905 233.68 130.905 233.698 130.905C236.543 130.917 239.222 132.12 241.473 133.899C243.713 135.67 241.593 136.64 240.826 136.64Z" fill="white"/>
<path d="M160.813 137.308C157.601 137.348 154.774 134.766 154.508 131.552C154.244 128.338 156.641 125.691 159.852 125.651C163.064 125.61 165.892 128.193 166.156 131.407C166.421 134.621 164.024 137.268 160.813 137.308ZM160.108 128.748C158.603 128.766 157.48 130.007 157.604 131.513C157.728 133.019 159.053 134.229 160.558 134.21C162.062 134.192 163.186 132.951 163.062 131.445C162.938 129.939 161.612 128.729 160.108 128.748Z" fill="#E0E0E0"/>
<path d="M161.101 128.298L158.891 128.326L157.718 114.096L159.929 114.068L161.101 128.298Z" fill="#E0E0E0"/>
<path d="M162.023 114.707L157.873 114.759L157.691 112.546L161.841 112.494L162.023 114.707Z" fill="#E0E0E0"/>
<path d="M162.261 117.55L158.359 117.599L158.176 115.386L162.079 115.337L162.261 117.55Z" fill="#E0E0E0"/>
<path d="M162.598 121.56L159.191 121.603L159.009 119.39L162.416 119.348L162.598 121.56Z" fill="#E0E0E0"/>
<path d="M92.5853 258.261C92.5979 258.441 92.6225 258.621 92.6525 258.795C92.8535 259.953 93.4547 260.997 94.2893 261.777C95.2523 262.677 96.5333 263.235 97.9073 263.235H148.601C151.169 263.235 153.145 261.291 153.235 258.795C153.241 258.621 153.241 258.441 153.228 258.261C153.132 256.893 152.487 255.645 151.525 254.751C150.562 253.851 149.281 253.293 147.907 253.293H97.2119C94.4639 253.293 92.3933 255.519 92.5853 258.261Z" fill="#F0F0F0"/>
<path d="M153.233 258.794C153.23 258.956 153.215 259.118 153.188 259.274C153.055 257.978 152.422 256.802 151.501 255.95C150.538 255.05 149.258 254.492 147.884 254.492L93.9731 254.576C94.7969 253.778 95.9333 253.292 97.2113 253.292H147.905C149.279 253.292 150.56 253.85 151.522 254.75C152.484 255.644 153.134 256.892 153.23 258.26C153.239 258.44 153.242 258.62 153.233 258.794Z" fill="#E0E0E0"/>
<path d="M144.558 255.69L144.728 258.116L147.001 257.274L147.516 258.471L145.195 259.236L146.816 261.271L145.769 262.037L144.191 259.923L142.93 262.037L141.808 261.271L143.123 259.236L140.717 258.471L141.064 257.281L143.475 258.092L143.307 255.69H144.558Z" fill="white"/>
<path d="M130.694 255.69L130.864 258.116L133.136 257.274L133.652 258.471L131.331 259.236L132.952 261.271L131.905 262.037L130.327 259.923L129.066 262.037L127.944 261.271L129.259 259.236L126.853 258.471L127.199 257.281L129.611 258.092L129.443 255.69H130.694Z" fill="white"/>
<path d="M116.83 255.69L116.999 258.116L119.272 257.274L119.788 258.471L117.467 259.236L119.088 261.271L118.04 262.037L116.462 259.923L115.202 262.037L114.08 261.271L115.395 259.236L112.988 258.471L113.335 257.281L115.747 258.092L115.579 255.69H116.83Z" fill="white"/>
<path d="M102.965 255.69L103.135 258.116L105.408 257.274L105.923 258.471L103.603 259.236L105.224 261.271L104.176 262.037L102.598 259.923L101.338 262.037L100.216 261.271L101.531 259.236L99.1241 258.471L99.4709 257.281L101.882 258.092L101.714 255.69H102.965Z" fill="white"/>
<path d="M136.641 251.541H134.278L134.289 250.941H136.651L136.641 251.541Z" fill="#E0E0E0"/>
<path d="M146.804 251.541H139.092L139.102 250.941H146.815L146.804 251.541Z" fill="#E0E0E0"/>
<g opacity="0.8">
<path d="M206.631 248.516L216.191 263.235L247.726 231.701C248.003 231.423 247.621 230.992 247.313 231.234L217.26 254.789L211.585 245.639L206.631 248.516Z" fill="#E0E0E0"/>
</g>
<path opacity="0.1" d="M200.914 143.773L178.27 228.464H185.887L208.281 143.773H200.914Z" fill="white"/>
<path opacity="0.1" d="M212.669 143.773L190.025 228.464H205.135L227.528 143.773H212.669Z" fill="white"/>
<path d="M294.186 220.189L298.963 152.207C299.12 149.961 297.419 148.141 295.162 148.143L176.521 148.247C174.264 148.248 172.306 150.071 172.148 152.317L167.372 220.299C167.214 222.545 168.916 224.365 171.173 224.363L289.813 224.259C292.07 224.257 294.028 222.435 294.186 220.189Z" fill="#263238"/>
<path d="M292.664 218.706L297.44 150.724C297.598 148.478 295.897 146.658 293.639 146.661L174.999 146.764C172.742 146.766 170.784 148.589 170.626 150.834L165.85 218.817C165.692 221.063 167.393 222.882 169.651 222.88L288.291 222.777C290.548 222.775 292.506 220.952 292.664 218.706Z" fill="#407BFF"/>
<path opacity="0.6" d="M289.519 219.71C289.349 219.867 289.056 220.056 288.623 220.057L169.982 220.16C169.184 220.16 168.533 219.465 168.589 218.673L173.366 150.692C173.396 150.264 173.603 149.988 173.772 149.83C173.942 149.672 174.235 149.484 174.668 149.483L293.309 149.38C294.107 149.379 294.758 150.074 294.702 150.866L289.925 218.848C289.894 219.276 289.687 219.552 289.519 219.71Z" fill="white"/>
<path d="M250.055 182.337H208.412C207.668 182.337 207.002 182.937 206.925 183.677L206.288 189.767C206.21 190.506 206.75 191.106 207.494 191.106H249.137C249.881 191.106 250.547 190.506 250.624 189.767L251.261 183.677C251.339 182.937 250.799 182.337 250.055 182.337Z" fill="white"/>
<path d="M213.365 207.211H206.866C206.123 207.211 205.457 207.811 205.379 208.551L204.742 214.64C204.665 215.38 205.205 215.98 205.948 215.98H212.447C213.19 215.98 213.856 215.38 213.934 214.64L214.571 208.551C214.649 207.811 214.109 207.211 213.365 207.211Z" fill="white"/>
<path d="M224.585 207.211H218.087C217.343 207.211 216.677 207.811 216.6 208.551L215.963 214.64C215.885 215.38 216.425 215.98 217.169 215.98H223.667C224.411 215.98 225.077 215.38 225.154 214.64L225.791 208.551C225.869 207.811 225.329 207.211 224.585 207.211Z" fill="white"/>
<path d="M235.806 207.211H229.307C228.564 207.211 227.898 207.811 227.821 208.551L227.183 214.64C227.106 215.38 227.646 215.98 228.389 215.98H234.888C235.631 215.98 236.297 215.38 236.375 214.64L237.012 208.551C237.09 207.811 236.55 207.211 235.806 207.211Z" fill="white"/>
<path d="M247.027 207.211H240.528C239.785 207.211 239.119 207.811 239.041 208.551L238.404 214.64C238.327 215.38 238.867 215.98 239.61 215.98H246.109C246.852 215.98 247.518 215.38 247.595 214.64L248.233 208.551C248.311 207.811 247.771 207.211 247.027 207.211Z" fill="white"/>
<path d="M213.635 203.063H239.685C240.952 203.063 242.085 202.041 242.217 200.781L242.53 197.791C242.662 196.53 241.742 195.509 240.476 195.509H214.426C213.16 195.509 212.026 196.531 211.894 197.791L211.582 200.781C211.449 202.041 212.369 203.063 213.635 203.063Z" stroke="#407BFF" stroke-miterlimit="10" stroke-linecap="round" stroke-linejoin="round"/>
<path d="M251.556 169.656H209.912C209.169 169.656 208.503 170.256 208.426 170.996L207.788 177.086C207.711 177.825 208.251 178.425 208.994 178.425H250.638C251.381 178.425 252.047 177.825 252.125 177.086L252.762 170.996C252.84 170.256 252.299 169.656 251.556 169.656Z" fill="white"/>
<path d="M213.476 186.722C213.562 185.903 212.963 185.239 212.141 185.239C211.318 185.239 210.581 185.903 210.495 186.722C210.409 187.541 211.007 188.205 211.831 188.205C212.654 188.205 213.39 187.541 213.476 186.722Z" fill="#263238"/>
<path d="M218.056 186.722C218.142 185.903 217.544 185.239 216.721 185.239C215.897 185.239 215.161 185.903 215.075 186.722C214.989 187.541 215.587 188.205 216.41 188.205C217.234 188.205 217.97 187.541 218.056 186.722Z" fill="#263238"/>
<path d="M222.636 186.722C222.722 185.903 222.124 185.239 221.3 185.239C220.477 185.239 219.74 185.903 219.655 186.722C219.569 187.541 220.166 188.205 220.99 188.205C221.813 188.205 222.55 187.541 222.636 186.722Z" fill="#263238"/>
<path d="M227.216 186.722C227.302 185.903 226.705 185.239 225.881 185.239C225.058 185.239 224.321 185.903 224.236 186.722C224.15 187.541 224.748 188.205 225.571 188.205C226.394 188.205 227.131 187.541 227.216 186.722Z" fill="#263238"/>
<path d="M231.886 186.722C231.972 185.903 231.374 185.239 230.551 185.239C229.728 185.239 228.991 185.903 228.905 186.722C228.82 187.541 229.418 188.205 230.241 188.205C231.064 188.205 231.8 187.541 231.886 186.722Z" fill="#263238"/>
<path d="M214.976 174.041C215.062 173.222 214.464 172.558 213.641 172.558C212.818 172.558 212.081 173.222 211.995 174.041C211.909 174.86 212.507 175.524 213.33 175.524C214.154 175.525 214.891 174.861 214.976 174.041Z" fill="#263238"/>
<path d="M219.557 174.041C219.643 173.222 219.045 172.558 218.221 172.558C217.398 172.558 216.661 173.222 216.575 174.041C216.49 174.86 217.087 175.524 217.91 175.524C218.734 175.525 219.471 174.861 219.557 174.041Z" fill="#263238"/>
<path d="M224.137 174.041C224.222 173.222 223.624 172.558 222.802 172.558C221.978 172.558 221.242 173.222 221.156 174.041C221.07 174.86 221.668 175.524 222.491 175.524C223.314 175.525 224.051 174.861 224.137 174.041Z" fill="#263238"/>
<path d="M228.717 174.041C228.803 173.222 228.205 172.558 227.382 172.558C226.559 172.558 225.822 173.222 225.736 174.041C225.65 174.86 226.249 175.524 227.072 175.524C227.895 175.524 228.631 174.861 228.717 174.041Z" fill="#263238"/>
<path d="M233.297 174.041C233.383 173.222 232.784 172.558 231.962 172.558C231.139 172.558 230.402 173.222 230.316 174.041C230.23 174.86 230.828 175.524 231.652 175.524C232.474 175.525 233.211 174.861 233.297 174.041Z" fill="#263238"/>
<path d="M237.877 174.041C237.963 173.222 237.365 172.558 236.542 172.558C235.719 172.558 234.982 173.222 234.896 174.041C234.811 174.86 235.408 175.524 236.232 175.524C237.055 175.525 237.791 174.861 237.877 174.041Z" fill="#263238"/>
<path d="M233.987 156.227L233.662 159.303C233.633 159.58 233.383 159.804 233.105 159.804C232.826 159.804 232.624 159.579 232.654 159.303L232.978 156.227C233.083 155.234 232.357 154.425 231.358 154.425H230.252C229.255 154.425 228.357 155.234 228.253 156.227L227.971 159.084H226.963L227.244 156.227C227.407 154.68 228.805 153.422 230.359 153.422H231.464C233.018 153.422 234.15 154.68 233.987 156.227Z" fill="#407BFF"/>
<path d="M234.007 159.19L233.375 165.182C233.335 165.561 232.994 165.868 232.613 165.868H226.592C226.212 165.868 225.935 165.561 225.976 165.182L226.608 159.19C226.634 158.945 226.786 158.73 226.993 158.609C227.105 158.543 227.235 158.504 227.369 158.504H233.39C233.521 158.504 233.639 158.54 233.736 158.603C233.923 158.723 234.034 158.94 234.007 159.19Z" fill="#407BFF"/>
<path d="M280.985 146.265L266.323 146.352" stroke="#263238" stroke-miterlimit="10" stroke-linecap="round" stroke-linejoin="round"/>
<path d="M288.977 146.225L283.795 146.248" stroke="#263238" stroke-miterlimit="10" stroke-linecap="round" stroke-linejoin="round"/>
<g opacity="0.3">
<path d="M186.059 149.465H202.845L185.78 220.16H172.271C172.259 220.16 172.246 220.16 172.234 220.16C170.563 220.151 169.383 218.552 169.775 216.928L186.059 149.465Z" fill="white"/>
<path d="M210.298 149.465H217.424L200.359 220.16H193.233L210.298 149.465Z" fill="white"/>
</g>
<path d="M96.9924 127.398H100.398C96.9702 127.398 94.3854 130.176 94.6254 133.605L101.854 236.984C102.094 240.411 105.067 243.191 108.495 243.191H105.089C101.662 243.191 98.6886 240.412 98.4486 236.984L91.2192 133.604C90.9798 130.176 93.564 127.398 96.9924 127.398Z" fill="#407BFF"/>
<path d="M96.9924 127.398H100.398C96.9702 127.398 94.3854 130.176 94.6254 133.605L101.854 236.984C102.094 240.411 105.067 243.191 108.495 243.191H105.089C101.662 243.191 98.2086 240.412 97.9686 236.984L90.7392 133.604C90.4998 130.176 93.564 127.398 96.9924 127.398Z" fill="#263238"/>
<path d="M106.105 243.19H147.803C151.231 243.19 153.815 240.411 153.575 236.983L146.347 133.604C146.107 130.176 143.134 127.397 139.706 127.397H98.0077C94.5799 127.397 91.9951 130.176 92.2351 133.604L99.4639 236.983C99.7039 240.411 102.677 243.19 106.105 243.19Z" fill="#407BFF"/>
<g opacity="0.6">
<path d="M139.594 129.389C141.974 129.389 144.046 131.327 144.212 133.709L151.441 237.087C151.519 238.196 151.165 239.231 150.446 240.003C149.729 240.774 148.725 241.197 147.621 241.197H105.923C103.543 241.197 101.471 239.26 101.304 236.878L94.0747 133.5C93.9973 132.392 94.3507 131.356 95.0701 130.584C95.7871 129.814 96.7909 129.39 97.8949 129.39L139.594 129.389Z" fill="white"/>
</g>
<g opacity="0.3">
<path d="M127.82 241.198H111.189L124.904 129.389H138.289C139.509 129.389 140.601 129.9 141.373 130.717L127.82 241.198Z" fill="white"/>
<path d="M108.204 241.198H104.462L118.178 129.389H121.919L108.204 241.198Z" fill="white"/>
</g>
<path d="M106.906 178.242H137.11" stroke="white" stroke-miterlimit="10" stroke-linecap="round" stroke-linejoin="round"/>
<path d="M110.802 182.709H134.461" stroke="white" stroke-miterlimit="10" stroke-linecap="round" stroke-linejoin="round"/>
<path d="M107.807 157.647L107.848 158.834H107.074L107.033 157.637L105.662 155.484H106.484L107.43 156.972L108.271 155.484H109.031L107.807 157.647Z" fill="#407BFF"/>
<path d="M109.063 157.159C109.028 156.164 109.776 155.427 110.833 155.427C111.884 155.427 112.689 156.159 112.724 157.159C112.759 158.159 112.006 158.891 110.955 158.891C109.899 158.891 109.099 158.154 109.063 157.159ZM111.94 157.159C111.918 156.522 111.453 156.087 110.856 156.087C110.259 156.087 109.825 156.523 109.847 157.159C109.869 157.796 110.334 158.231 110.931 158.231C111.529 158.231 111.963 157.795 111.94 157.159Z" fill="#407BFF"/>
<path d="M113.288 157.36L113.223 155.484H113.997L114.061 157.332C114.083 157.968 114.37 158.231 114.839 158.231C115.312 158.231 115.575 157.968 115.553 157.332L115.489 155.484H116.253L116.318 157.36C116.353 158.346 115.808 158.891 114.857 158.891C113.906 158.891 113.323 158.346 113.288 157.36Z" fill="#407BFF"/>
<path d="M119.269 158.834L118.591 157.901H118.553H117.879L117.912 158.834H117.138L117.021 155.484H118.469C119.363 155.484 119.938 155.948 119.964 156.699C119.982 157.202 119.742 157.571 119.313 157.757L120.102 158.834H119.269ZM118.448 156.116H117.816L117.857 157.283H118.488C118.961 157.283 119.193 157.063 119.179 156.699C119.167 156.331 118.92 156.116 118.448 156.116Z" fill="#407BFF"/>
<path d="M121.737 157.159C121.702 156.149 122.45 155.427 123.492 155.427C124.07 155.427 124.561 155.637 124.889 156.02L124.408 156.48C124.175 156.221 123.889 156.087 123.554 156.087C122.927 156.087 122.498 156.527 122.521 157.159C122.543 157.791 123.002 158.231 123.629 158.231C123.964 158.231 124.241 158.097 124.456 157.834L124.969 158.294C124.667 158.681 124.192 158.892 123.608 158.892C122.572 158.891 121.772 158.168 121.737 157.159Z" fill="#407BFF"/>
<path d="M125.171 157.159C125.136 156.164 125.885 155.427 126.941 155.427C127.992 155.427 128.797 156.159 128.832 157.159C128.867 158.159 128.114 158.891 127.063 158.891C126.007 158.891 125.207 158.154 125.171 157.159ZM128.048 157.159C128.026 156.522 127.561 156.087 126.964 156.087C126.367 156.087 125.933 156.523 125.955 157.159C125.977 157.796 126.442 158.231 127.039 158.231C127.636 158.231 128.071 157.795 128.048 157.159Z" fill="#407BFF"/>
<path d="M129.36 155.484H130.88C131.974 155.484 132.747 156.144 132.783 157.159C132.819 158.174 132.091 158.834 130.997 158.834H129.477L129.36 155.484ZM130.936 158.197C131.601 158.197 132.022 157.8 131.999 157.159C131.977 156.518 131.528 156.121 130.863 156.121H130.156L130.228 158.198H130.936V158.197Z" fill="#407BFF"/>
<path d="M135.996 158.211L136.018 158.834H133.427L133.31 155.484H135.839L135.86 156.106H134.101L134.126 156.833H135.68L135.701 157.436H134.148L134.175 158.211H135.996Z" fill="#407BFF"/>
<path d="M113.627 171.284L113.651 172.63H107.335L107.316 171.566L110.662 168.335C111.481 167.539 111.619 167.037 111.61 166.56C111.597 165.777 111.05 165.324 109.997 165.324C109.165 165.324 108.473 165.605 108.006 166.217L106.877 165.36C107.522 164.467 108.701 163.941 110.108 163.941C111.969 163.941 113.185 164.883 113.212 166.401C113.226 167.233 113.007 167.992 111.839 169.106L109.588 171.284H113.627V171.284Z" fill="#263238"/>
<path d="M120.607 170.06C120.632 171.504 119.565 172.752 117.263 172.752C116.051 172.752 114.833 172.385 114.027 171.761L114.691 170.525C115.311 171.038 116.248 171.369 117.214 171.369C118.352 171.369 119.017 170.867 119.003 170.072C118.99 169.301 118.417 168.799 117.12 168.799H116.336L116.318 167.71L118.223 165.397H114.331L114.308 164.063H120.146L120.164 165.128L118.127 167.6C119.747 167.808 120.584 168.774 120.607 170.06Z" fill="#263238"/>
<path d="M128.602 170.17C128.63 171.761 127.264 172.752 125.134 172.752C123.004 172.752 121.628 171.761 121.6 170.17C121.584 169.227 122.061 168.53 122.935 168.126C122.243 167.747 121.853 167.135 121.839 166.327C121.813 164.858 123.082 163.94 124.979 163.94C126.889 163.94 128.203 164.858 128.228 166.327C128.242 167.135 127.862 167.747 127.171 168.126C128.071 168.53 128.585 169.227 128.602 170.17ZM126.997 170.121C126.982 169.277 126.239 168.75 125.063 168.75C123.889 168.75 123.187 169.277 123.202 170.121C123.217 170.99 123.937 171.504 125.111 171.504C126.287 171.504 127.012 170.99 126.997 170.121ZM123.407 166.4C123.419 167.135 124.04 167.6 125.044 167.6C126.059 167.6 126.676 167.135 126.663 166.4C126.65 165.629 125.981 165.188 125.002 165.188C124.022 165.189 123.393 165.629 123.407 166.4Z" fill="#263238"/>
<path d="M136.582 170.17C136.61 171.761 135.244 172.752 133.114 172.752C130.984 172.752 129.609 171.761 129.581 170.17C129.565 169.227 130.042 168.53 130.916 168.126C130.224 167.747 129.833 167.135 129.82 166.327C129.794 164.858 131.063 163.94 132.96 163.94C134.87 163.94 136.183 164.858 136.209 166.327C136.223 167.135 135.842 167.747 135.151 168.126C136.052 168.53 136.565 169.227 136.582 170.17ZM134.978 170.121C134.963 169.277 134.219 168.75 133.044 168.75C131.869 168.75 131.168 169.277 131.183 170.121C131.198 170.99 131.917 171.504 133.092 171.504C134.267 171.504 134.993 170.99 134.978 170.121ZM131.387 166.4C131.4 167.135 132.02 167.6 133.024 167.6C134.039 167.6 134.656 167.135 134.643 166.4C134.63 165.629 133.961 165.188 132.981 165.188C132.002 165.189 131.374 165.629 131.387 166.4Z" fill="#263238"/>
<path d="M91.0314 142.382L92.0952 156.884" stroke="#407BFF" stroke-miterlimit="10" stroke-linecap="round" stroke-linejoin="round"/>
<path d="M90.5466 135.775L90.8274 139.602" stroke="#407BFF" stroke-miterlimit="10" stroke-linecap="round" stroke-linejoin="round"/>
<path d="M119.022 121.356V112.526" stroke="#407BFF" stroke-miterlimit="10" stroke-linecap="round" stroke-linejoin="round"/>
<path d="M112.033 123.224L107.62 115.582" stroke="#407BFF" stroke-miterlimit="10" stroke-linecap="round" stroke-linejoin="round"/>
<path d="M130.424 115.582L126.011 123.227" stroke="#407BFF" stroke-miterlimit="10" stroke-linecap="round" stroke-linejoin="round"/>
<path d="M233.335 278.055C230.303 290.205 229.072 302.802 229.694 315.309" stroke="#407BFF" stroke-miterlimit="10"/>
<path d="M230.533 277.538C230.56 278.658 231.564 282.619 232.685 282.592C233.805 282.565 234.617 278.56 234.59 277.44C234.563 276.32 233.633 275.433 232.513 275.46C231.392 275.488 230.506 276.419 230.533 277.538Z" fill="#407BFF"/>
<path d="M234.896 290.133C234.869 289.013 233.865 285.052 232.745 285.079C231.625 285.106 230.812 289.11 230.84 290.231C230.867 291.351 231.797 292.238 232.917 292.211C234.037 292.183 234.923 291.253 234.896 290.133Z" fill="#407BFF"/>
<path d="M226.417 286.017C227.537 285.99 231.498 284.986 231.471 283.865C231.444 282.745 227.44 281.933 226.319 281.96C225.199 281.988 224.312 282.918 224.339 284.038C224.367 285.158 225.297 286.044 226.417 286.017Z" fill="#407BFF"/>
<path d="M239.011 281.654C237.891 281.681 233.93 282.685 233.957 283.805C233.984 284.925 237.989 285.737 239.11 285.71C240.23 285.683 241.116 284.753 241.089 283.633C241.062 282.513 240.131 281.627 239.011 281.654Z" fill="#407BFF"/>
<path d="M226.718 280.926C227.53 281.699 231.041 283.789 231.814 282.978C232.587 282.167 230.329 278.76 229.518 277.988C228.707 277.215 227.422 277.245 226.649 278.057C225.877 278.868 225.907 280.152 226.718 280.926Z" fill="#407BFF"/>
<path d="M238.71 286.745C237.899 285.972 234.388 283.882 233.615 284.693C232.842 285.504 235.099 288.91 235.91 289.683C236.722 290.456 238.006 290.426 238.779 289.614C239.552 288.803 239.521 287.519 238.71 286.745Z" fill="#407BFF"/>
<path d="M229.805 289.831C230.578 289.02 232.668 285.509 231.856 284.736C231.045 283.963 227.639 286.22 226.866 287.031C226.093 287.843 226.124 289.127 226.936 289.9C227.747 290.673 229.031 290.643 229.805 289.831Z" fill="#407BFF"/>
<path d="M235.624 277.84C234.851 278.651 232.761 282.162 233.572 282.935C234.383 283.708 237.79 281.451 238.562 280.639C239.336 279.828 239.305 278.543 238.493 277.77C237.682 276.998 236.397 277.029 235.624 277.84Z" fill="#407BFF"/>
<path d="M230.312 283.894C230.344 285.221 231.446 286.271 232.772 286.238C234.099 286.206 235.149 285.105 235.117 283.778C235.084 282.452 233.983 281.402 232.656 281.434C231.329 281.465 230.28 282.567 230.312 283.894Z" fill="white"/>
<path d="M229.968 301.752C229.968 301.752 230.383 295.625 233.746 294.655C237.109 293.686 238.343 292.372 238.343 292.372C238.343 292.372 238.003 301.871 229.968 301.752Z" fill="#407BFF"/>
<path opacity="0.5" d="M229.968 301.752C229.968 301.752 230.383 295.625 233.746 294.655C237.109 293.686 238.343 292.372 238.343 292.372C238.343 292.372 238.003 301.871 229.968 301.752Z" fill="white"/>
<path d="M229.523 306.443C229.523 306.443 229.109 300.315 225.746 299.346C222.383 298.377 221.148 297.063 221.148 297.063C221.148 297.063 221.489 306.561 229.523 306.443Z" fill="#407BFF"/>
<path opacity="0.5" d="M229.523 306.443C229.523 306.443 229.109 300.315 225.746 299.346C222.383 298.377 221.148 297.063 221.148 297.063C221.148 297.063 221.489 306.561 229.523 306.443Z" fill="white"/>
<path d="M242.219 319.205C242.219 323.987 236.525 327.857 229.505 327.857C222.479 327.857 216.791 323.987 216.791 319.205C216.791 316.787 218.249 314.597 220.607 313.031C221.969 312.119 223.631 311.417 225.479 311.003H233.531C235.433 311.435 237.137 312.161 238.517 313.109C240.809 314.675 242.219 316.823 242.219 319.205Z" fill="#407BFF"/>
<path opacity="0.8" d="M233.531 311.003C235.433 311.435 237.137 312.161 238.517 313.109C240.809 314.675 242.219 316.823 242.219 319.205C242.219 323.987 236.525 327.857 229.505 327.857C222.479 327.857 216.791 323.987 216.791 319.205C216.791 316.787 218.249 314.597 220.607 313.031C221.969 312.119 223.631 311.417 225.479 311.003H233.531Z" fill="white"/>
<path d="M229.542 311.782C229.542 313.208 229.542 314.634 229.542 316.059" stroke="#407BFF" stroke-miterlimit="10"/>
<path d="M239.077 310.87L238.402 312.972L238.391 312.994H220.613L220.576 312.882L219.934 310.87H239.077Z" fill="#407BFF"/>
<path d="M240.718 320.943C239.492 322.713 237.748 324.126 235.834 325.142C232.78 326.762 219.934 327.18 218.468 319.892C218.447 319.79 218.413 319.692 218.395 319.589C218.044 317.682 219.741 315.986 221.671 316.179C222.869 316.299 224.121 316.157 225.313 315.975C229.909 315.275 234.647 315.532 239.142 316.717C240.978 317.201 241.798 319.381 240.718 320.943Z" fill="#263238"/>
<path d="M148.506 318.519C148.731 318.439 148.88 318.261 148.951 317.992C149.003 317.789 148.927 317.655 148.854 317.579C148.391 317.096 146.515 317.439 146.302 317.48C146.253 317.489 146.215 317.526 146.204 317.574C146.193 317.622 146.213 317.672 146.253 317.7C146.564 317.921 147.019 318.212 147.471 318.394C147.847 318.545 148.22 318.622 148.506 318.519ZM148.672 317.748C148.702 317.78 148.734 317.829 148.708 317.931C148.659 318.119 148.565 318.236 148.42 318.288C148.08 318.41 147.429 318.18 146.648 317.669C147.403 317.554 148.429 317.491 148.672 317.748Z" fill="#407BFF"/>
<path d="M146.342 317.722C146.916 317.651 148.237 316.973 148.353 316.386C148.375 316.274 148.372 316.063 148.096 315.912C147.922 315.815 147.736 315.8 147.543 315.866C146.819 316.114 146.235 317.495 146.21 317.554C146.193 317.594 146.199 317.641 146.226 317.676C146.24 317.693 146.258 317.706 146.278 317.715C146.298 317.721 146.32 317.724 146.342 317.722ZM147.974 316.125C148.114 316.203 148.119 316.28 148.107 316.338C148.036 316.696 147.157 317.251 146.54 317.428C146.759 316.978 147.193 316.245 147.625 316.097C147.73 316.061 147.827 316.062 147.922 316.101C147.94 316.108 147.957 316.116 147.974 316.125Z" fill="#407BFF"/>
<path d="M140.646 315.304L145.53 317.278L149.793 305.992L144.909 304.018L140.646 315.304Z" fill="#FFB573"/>
<path d="M146.149 316.878L140.662 314.66C140.462 314.579 140.243 314.651 140.135 314.831L137.726 318.851C137.477 319.268 137.689 319.844 138.152 320.022C140.079 320.763 141.047 321.025 143.461 322C144.945 322.6 147.051 323.628 149.101 324.457C151.106 325.268 152.093 323.335 151.315 322.809C147.826 320.452 147.687 319.091 146.843 317.504C146.69 317.217 146.441 316.996 146.149 316.878Z" fill="#263238"/>
<path d="M149.731 311.529L141.247 308.1L142.024 304.991L151.126 308.321L149.731 311.529Z" fill="#407BFF"/>
<path d="M158.224 180.901C156.503 185.883 151.408 197.619 147.482 192.731C146.781 191.858 146.183 190.913 145.767 189.875C144.1 185.762 143.69 179.102 143.479 177.647L142.142 173.081C142.118 173.003 142.106 172.92 142.106 172.839L142.084 170.232C142.084 169.175 142.936 168.547 144.089 168.644C144.089 168.644 145.949 168.426 145.949 169.538L146.311 173.45H146.299C146.486 174.815 145.943 176.711 146.263 177.961C147.459 182.659 149.113 182.87 150.151 187.719C151.594 184.223 154.185 178.166 154.185 178.166C155.93 178.383 158.792 179.258 158.224 180.901Z" fill="#FFB573"/>
<path d="M152.071 194.52C150.899 196.329 148.261 196.433 146.99 194.694C146.213 193.631 145.597 192.459 145.33 191.577C143.771 186.462 142.805 183.292 142.673 177.948C143.76 176.819 145.529 176.396 147.008 176.921L149.563 185.58C149.563 185.58 154.768 172.65 156.869 172.185C159.35 171.642 160.383 173.853 161.428 176.577C162.181 178.537 155.461 189.29 152.071 194.52Z" fill="#407BFF"/>
<path d="M173.089 159.247C172.5 162.248 171.178 168.795 173.278 170.798C173.278 170.798 172.458 173.843 166.881 173.843C160.749 173.843 163.951 170.798 163.951 170.798C167.297 169.999 167.211 167.516 166.628 165.184L173.089 159.247Z" fill="#FFB573"/>
<path d="M163.709 152.169C163.745 152.169 163.781 152.16 163.816 152.144C163.934 152.084 163.982 151.94 163.922 151.822C163.329 150.637 162.231 150.5 162.185 150.494C162.054 150.478 161.935 150.574 161.92 150.705C161.905 150.836 161.999 150.955 162.13 150.97C162.166 150.974 163.021 151.091 163.494 152.036C163.537 152.12 163.621 152.168 163.709 152.169Z" fill="#263238"/>
<path d="M161.881 154.791C161.881 154.791 160.978 156.45 160.117 157.197C160.59 157.762 161.527 157.646 161.527 157.646L161.881 154.791Z" fill="#ED893E"/>
<path d="M162.362 153.914C162.449 154.313 162.308 154.682 162.047 154.738C161.786 154.794 161.505 154.517 161.419 154.118C161.332 153.719 161.473 153.35 161.734 153.294C161.994 153.237 162.275 153.515 162.362 153.914Z" fill="#263238"/>
<path d="M161.854 153.291L160.836 153.223C160.836 153.223 161.489 153.864 161.854 153.291Z" fill="#263238"/>
<path d="M140.987 168.431V168.443C140.987 168.437 140.981 168.437 140.981 168.431H140.987Z" fill="#FFB573"/>
<path opacity="0.2" d="M158.008 178.34C159.071 177.367 159.79 177.657 160.279 178.43C160.762 180.677 157.9 185.381 156.746 187.162L158.008 178.34Z" fill="black"/>
<path d="M182.582 181.298C182.444 183.77 182.21 186.884 181.832 190.802C181.436 194.936 180.872 199.958 180.098 206.06C171.944 206.06 163.406 205.934 159.44 205.934C159.772 197.829 159.895 189.617 156.259 173.486C156.068 172.638 156.623 171.799 157.478 171.647C159.125 171.353 161.854 170.934 164.631 170.798C168.087 170.63 170.919 170.522 173.961 170.798C177.963 171.164 182.511 172.094 182.511 172.094C182.511 172.094 183.014 173.582 182.582 181.298Z" fill="#407BFF"/>
<path opacity="0.2" d="M182.582 181.298C182.444 183.77 182.21 186.884 181.832 190.802C179.636 188.258 177.56 179.498 178.22 176.504C179.84 177.608 181.34 179.306 182.486 180.824C182.522 180.968 182.558 181.124 182.582 181.298Z" fill="black"/>
<path d="M203.756 192.28L207.934 189.93L208.715 194.208C208.715 194.208 205.174 195.565 203.299 194.615L203.756 192.28Z" fill="#FFB573"/>
<path d="M210.733 190.416L211.024 191.813C211.115 192.252 210.932 192.702 210.562 192.954L208.715 194.208L207.935 189.93L209.38 189.568C209.99 189.414 210.605 189.8 210.733 190.416Z" fill="#FFB573"/>
<path d="M178.558 177.053C179.897 179.778 184.809 190.065 186.968 192.444L187.39 192.887L187.601 193.108C187.673 193.182 187.731 193.248 187.846 193.349C188.251 193.73 188.683 194.05 189.119 194.312C189.995 194.837 190.883 195.144 191.736 195.368C193.445 195.795 195.068 195.864 196.643 195.834C199.8 195.71 202.753 195.18 205.703 194.295L205.167 191.79C203.784 191.907 202.331 191.993 200.924 192.016C199.513 192.055 198.109 192.015 196.754 191.884C195.404 191.767 194.089 191.531 192.977 191.149C192.428 190.954 191.944 190.706 191.582 190.445C191.4 190.315 191.254 190.178 191.135 190.047C191.111 190.028 191.051 189.953 191 189.892L190.843 189.705L190.53 189.332C188.872 187.256 184.498 177.249 183.185 174.748L178.558 177.053Z" fill="#FFB573"/>
<path d="M203.69 196.537C200.284 198.372 196.136 198.777 192.44 197.63C188.926 196.537 185.798 193.989 183.986 190.782C181.819 187.594 176.053 178.583 176.777 176.252C177.634 173.468 179.458 171.741 182.507 172.49C184.651 173.009 188.738 183.41 190.713 187.57C191.492 188.729 192.977 190.565 194.638 191.133C197.573 192.147 199.735 191.706 202.808 191.272C203.37 191.61 203.328 192.129 203.612 192.715C204.191 193.898 204.288 195.366 203.69 196.537Z" fill="#407BFF"/>
<path d="M176.114 154.435C175.193 159.37 174.909 161.478 172.082 163.719C167.829 167.091 161.969 164.881 161.397 159.771C160.882 155.171 162.474 147.874 167.586 146.497C172.622 145.142 177.035 149.501 176.114 154.435Z" fill="#FFB573"/>
<path d="M193.62 181.744C192.678 182.818 192.381 183.44 191.073 184.022C189.765 184.604 186.91 184.097 186.004 182.987C186.298 183.851 188.016 185.404 188.916 185.524C186.924 186.688 184.122 186.196 182.64 184.42C182.784 185.47 183.774 186.412 184.776 186.766C173.278 187.063 178.12 181.652 170.924 173.958C162.953 165.435 164.682 158.392 164.682 158.392C164.676 157.174 164.406 155.152 163.116 153.508C161.964 152.032 162.3 150.04 162.666 148.924C163.2 147.286 164.826 146.71 166.386 146.614C166.661 144.998 169.963 145.295 170.386 145.565C170.748 145.797 170.84 145.778 171.202 145.545C172.014 145.025 174.053 144.482 176.237 146.248C177.571 147.326 178.994 149.26 179.042 153.376C179.092 157.656 177.05 162.734 184.125 169.237C188.295 173.069 186.302 181.295 193.62 181.744Z" fill="#263238"/>
<path d="M163.734 154.808C163.127 155.648 162.953 156.692 163.087 157.534C163.288 158.801 164.523 158.885 165.417 158.073C166.222 157.342 167.086 155.802 166.427 154.752C165.778 153.718 164.428 153.848 163.734 154.808Z" fill="#FFB573"/>
<path d="M174.869 206.058C174.869 206.058 172.419 240.502 169.654 263.221C168.825 270.028 166.75 276.627 163.525 282.705L149.972 308.24L143.036 305.511C143.036 305.511 147.814 281.239 157.186 268.005C157.186 268.005 150.191 228.447 159.346 205.937L174.869 206.058Z" fill="#263238"/>
<path opacity="0.2" d="M165.437 214.399C165.437 214.399 167.499 230.024 168.632 239.282C164.378 233.702 161.119 225.917 165.437 214.399Z" fill="black"/>
<path d="M192.385 321.754C192.545 321.579 192.593 321.353 192.526 321.083C192.476 320.88 192.345 320.796 192.244 320.763C191.606 320.549 190.111 321.717 189.942 321.851C189.903 321.881 189.887 321.932 189.9 321.98C189.913 322.026 189.954 322.062 190.004 322.068C190.384 322.119 190.924 322.167 191.41 322.12C191.815 322.08 192.181 321.976 192.385 321.754ZM192.164 320.996C192.206 321.009 192.258 321.039 192.283 321.141C192.329 321.33 192.302 321.476 192.199 321.588C191.956 321.853 191.272 321.95 190.339 321.858C190.951 321.409 191.827 320.881 192.164 320.996Z" fill="#407BFF"/>
<path d="M190.093 322.046C190.566 321.719 191.411 320.511 191.234 319.939C191.201 319.83 191.097 319.645 190.781 319.638C190.582 319.632 190.409 319.705 190.271 319.852C189.749 320.405 189.89 321.894 189.896 321.957C189.901 322.001 189.928 322.039 189.969 322.057C189.989 322.066 190.012 322.07 190.033 322.067C190.054 322.066 190.075 322.059 190.093 322.046ZM190.775 319.884C190.936 319.887 190.977 319.953 190.995 320.01C191.102 320.359 190.59 321.254 190.129 321.695C190.109 321.197 190.142 320.35 190.454 320.02C190.529 319.94 190.616 319.896 190.718 319.886C190.737 319.884 190.756 319.884 190.775 319.884Z" fill="#407BFF"/>
<path d="M183.91 322.535L189.165 322.028L187.561 310.092L182.306 310.598L183.91 322.535Z" fill="#FFB573"/>
<path d="M189.521 321.39L183.617 321.959C183.403 321.98 183.243 322.143 183.233 322.352L183.017 327.014C182.995 327.497 183.457 327.908 183.952 327.852C186.007 327.619 186.986 327.405 189.583 327.155C191.18 327 193.531 326.939 195.736 326.727C197.894 326.519 197.846 324.356 196.908 324.251C192.703 323.776 191.933 322.637 190.431 321.623C190.161 321.44 189.836 321.359 189.521 321.39Z" fill="#263238"/>
<path d="M180.067 206.049C180.067 206.049 186.79 247.155 188.085 271.506L188.327 315.123L182.887 316.184C182.887 316.184 175.006 288.357 174.099 272.274C171.693 229.597 157.793 229.527 166.156 205.973L180.067 206.049Z" fill="#263238"/>
<path d="M190.133 315.302L181.126 316.536L180.213 313.077L189.84 311.825L190.133 315.302Z" fill="#407BFF"/>
<path d="M140.999 168.474H140.981L140.987 168.444C140.987 168.456 140.993 168.462 140.999 168.474Z" fill="#FFB573"/>
<path d="M141.577 161.952H141.921C141.575 161.952 141.308 162.233 141.326 162.579L141.874 173.028C141.892 173.374 142.188 173.655 142.534 173.655H142.19C141.844 173.655 141.548 173.375 141.53 173.028L140.982 162.579C140.964 162.233 141.23 161.952 141.577 161.952Z" fill="#407BFF"/>
<path opacity="0.1" d="M141.577 161.952H141.921C141.575 161.952 141.308 162.233 141.326 162.579L141.874 173.028C141.892 173.374 142.188 173.655 142.534 173.655H142.19C141.844 173.655 141.548 173.375 141.53 173.028L140.982 162.579C140.964 162.233 141.23 161.952 141.577 161.952Z" fill="white"/>
<path d="M142.293 173.655H146.507C146.854 173.655 147.12 173.375 147.102 173.028L146.554 162.579C146.536 162.233 146.24 161.952 145.894 161.952H141.679C141.333 161.952 141.067 162.233 141.085 162.579L141.633 173.028C141.651 173.374 141.946 173.655 142.293 173.655Z" fill="#407BFF"/>
<path opacity="0.4" d="M142.293 173.655H146.507C146.854 173.655 147.12 173.375 147.102 173.028L146.554 162.579C146.536 162.233 146.24 161.952 145.894 161.952H141.679C141.333 161.952 141.067 162.233 141.085 162.579L141.633 173.028C141.651 173.374 141.946 173.655 142.293 173.655Z" fill="white"/>
<path d="M146.838 172.81C146.844 172.918 146.808 173.02 146.736 173.098C146.664 173.17 146.562 173.212 146.454 173.212H142.368C142.134 173.212 141.936 173.02 141.924 172.786L141.39 162.652C141.384 162.544 141.42 162.442 141.492 162.37C141.564 162.292 141.666 162.25 141.774 162.25H145.86C146.094 162.25 146.292 162.442 146.304 162.676L146.34 163.402L146.838 172.81Z" fill="#263238"/>
<g opacity="0.1">
<path d="M146.34 163.402L144.984 173.212H143.358L144.894 162.25H145.86C146.094 162.25 146.292 162.442 146.304 162.676L146.34 163.402Z" fill="white"/>
<path d="M142.77 173.212H142.403L143.94 162.251H144.307L142.77 173.212Z" fill="white"/>
</g>
<path d="M158.113 207.221C155.057 213.211 153.395 219.906 153.293 226.629C163.507 234.542 172.992 225.275 184.667 226.841C184.259 221.568 182.468 211.811 180.341 206.969C172.626 207.295 165.401 206.525 158.113 207.221Z" fill="#407BFF"/>
<path d="M159.175 205.08C159.175 205.08 158.351 207.193 158.587 207.193H179.993C180.178 207.193 180.33 207.103 180.341 206.987L180.526 205.16C180.538 205.034 180.379 204.926 180.178 204.926H159.508C159.355 204.927 159.221 204.989 159.175 205.08Z" fill="white"/>
<path d="M162.191 207.373H161.637C161.527 207.373 161.443 207.316 161.45 207.247L161.71 204.873C161.718 204.804 161.814 204.747 161.924 204.747H162.478C162.589 204.747 162.673 204.804 162.665 204.873L162.405 207.247C162.398 207.316 162.301 207.373 162.191 207.373Z" fill="#407BFF"/>
<path d="M175.609 207.373H175.055C174.945 207.373 174.861 207.316 174.869 207.247L175.129 204.873C175.136 204.804 175.232 204.747 175.343 204.747H175.897C176.007 204.747 176.091 204.804 176.083 204.873L175.823 207.247C175.816 207.316 175.72 207.373 175.609 207.373Z" fill="#407BFF"/>
</svg>
