<svg width="330" height="95" viewBox="0 0 330 95" fill="none" xmlns="http://www.w3.org/2000/svg">
<path d="M131.23 9.53856C131.23 10.45 130.916 11.2095 130.287 11.8171C129.669 12.4143 128.721 12.7128 127.443 12.7128H125.337V17.2857H123.907V6.33285H127.443C128.679 6.33285 129.617 6.63142 130.256 7.22856C130.905 7.82571 131.23 8.59571 131.23 9.53856ZM127.443 11.5343C128.239 11.5343 128.826 11.3614 129.203 11.0157C129.58 10.67 129.769 10.1776 129.769 9.53856C129.769 8.18714 128.993 7.51142 127.443 7.51142H125.337V11.5343H127.443ZM135.977 17.4271C135.171 17.4271 134.437 17.2437 133.777 16.8771C133.128 16.5105 132.615 15.9919 132.237 15.3214C131.871 14.6405 131.687 13.8548 131.687 12.9643C131.687 12.0843 131.876 11.309 132.253 10.6386C132.641 9.95762 133.165 9.43905 133.825 9.08285C134.485 8.71619 135.223 8.53285 136.04 8.53285C136.857 8.53285 137.596 8.71619 138.256 9.08285C138.916 9.43905 139.435 9.95237 139.812 10.6228C140.199 11.2933 140.393 12.0738 140.393 12.9643C140.393 13.8548 140.194 14.6405 139.796 15.3214C139.408 15.9919 138.879 16.5105 138.209 16.8771C137.538 17.2437 136.795 17.4271 135.977 17.4271ZM135.977 16.17C136.491 16.17 136.973 16.0495 137.423 15.8086C137.874 15.5676 138.235 15.2062 138.507 14.7243C138.79 14.2424 138.932 13.6557 138.932 12.9643C138.932 12.2728 138.795 11.6862 138.523 11.2043C138.251 10.7224 137.895 10.3662 137.455 10.1357C137.015 9.89476 136.538 9.77428 136.025 9.77428C135.501 9.77428 135.019 9.89476 134.579 10.1357C134.149 10.3662 133.804 10.7224 133.542 11.2043C133.28 11.6862 133.149 12.2728 133.149 12.9643C133.149 13.6662 133.275 14.2581 133.526 14.74C133.788 15.2219 134.134 15.5833 134.563 15.8243C134.993 16.0548 135.464 16.17 135.977 16.17ZM152.959 8.67428L150.272 17.2857H148.795L146.72 10.45L144.646 17.2857H143.169L140.466 8.67428H141.928L143.908 15.9028L146.045 8.67428H147.506L149.596 15.9186L151.545 8.67428H152.959ZM161.45 12.65C161.45 12.9224 161.434 13.2105 161.403 13.5143H154.52C154.572 14.3628 154.86 15.0281 155.384 15.51C155.918 15.9814 156.562 16.2171 157.317 16.2171C157.935 16.2171 158.449 16.0757 158.857 15.7928C159.275 15.4995 159.569 15.1119 159.737 14.63H161.277C161.046 15.4576 160.586 16.1334 159.894 16.6571C159.203 17.1705 158.343 17.4271 157.317 17.4271C156.5 17.4271 155.766 17.2437 155.117 16.8771C154.478 16.5105 153.975 15.9919 153.608 15.3214C153.242 14.6405 153.058 13.8548 153.058 12.9643C153.058 12.0738 153.236 11.2933 153.592 10.6228C153.949 9.95237 154.446 9.43905 155.085 9.08285C155.735 8.71619 156.479 8.53285 157.317 8.53285C158.134 8.53285 158.857 8.71094 159.486 9.06713C160.114 9.42333 160.595 9.91571 160.932 10.5443C161.277 11.1624 161.45 11.8643 161.45 12.65ZM159.973 12.3514C159.973 11.8067 159.852 11.3405 159.611 10.9528C159.369 10.5548 159.04 10.2562 158.622 10.0571C158.213 9.84762 157.757 9.74285 157.254 9.74285C156.531 9.74285 155.913 9.97333 155.4 10.4343C154.897 10.8952 154.609 11.5343 154.535 12.3514H159.973ZM163.982 10.0728C164.233 9.58047 164.59 9.19808 165.05 8.92571C165.522 8.65333 166.092 8.51714 166.763 8.51714V9.99428H166.386C164.783 9.99428 163.982 10.8638 163.982 12.6028V17.2857H162.552V8.67428H163.982V10.0728ZM175.484 12.65C175.484 12.9224 175.469 13.2105 175.437 13.5143H168.555C168.608 14.3628 168.895 15.0281 169.419 15.51C169.953 15.9814 170.597 16.2171 171.352 16.2171C171.971 16.2171 172.483 16.0757 172.892 15.7928C173.311 15.4995 173.605 15.1119 173.772 14.63H175.312C175.082 15.4576 174.62 16.1334 173.929 16.6571C173.237 17.1705 172.379 17.4271 171.352 17.4271C170.535 17.4271 169.802 17.2437 169.152 16.8771C168.514 16.5105 168.011 15.9919 167.643 15.3214C167.277 14.6405 167.093 13.8548 167.093 12.9643C167.093 12.0738 167.272 11.2933 167.627 10.6228C167.984 9.95237 168.482 9.43905 169.12 9.08285C169.771 8.71619 170.514 8.53285 171.352 8.53285C172.169 8.53285 172.892 8.71094 173.52 9.06713C174.149 9.42333 174.631 9.91571 174.966 10.5443C175.312 11.1624 175.484 11.8643 175.484 12.65ZM174.007 12.3514C174.007 11.8067 173.888 11.3405 173.646 10.9528C173.405 10.5548 173.076 10.2562 172.656 10.0571C172.247 9.84762 171.792 9.74285 171.289 9.74285C170.566 9.74285 169.948 9.97333 169.434 10.4343C168.932 10.8952 168.644 11.5343 168.57 12.3514H174.007ZM176.053 12.9486C176.053 12.0686 176.231 11.2986 176.588 10.6386C176.943 9.96808 177.43 9.44951 178.049 9.08285C178.678 8.71619 179.378 8.53285 180.155 8.53285C180.824 8.53285 181.448 8.68999 182.025 9.00428C182.6 9.30808 183.04 9.71142 183.345 10.2143V5.65714H184.791V17.2857H183.345V15.6671C183.062 16.1805 182.642 16.6048 182.088 16.94C181.531 17.2648 180.882 17.4271 180.139 17.4271C179.374 17.4271 178.678 17.2386 178.049 16.8614C177.43 16.4843 176.943 15.9552 176.588 15.2743C176.231 14.5933 176.053 13.8181 176.053 12.9486ZM183.345 12.9643C183.345 12.3148 183.213 11.749 182.952 11.2671C182.69 10.7852 182.333 10.4186 181.883 10.1671C181.443 9.90522 180.956 9.77428 180.422 9.77428C179.888 9.77428 179.401 9.89999 178.961 10.1514C178.521 10.4028 178.168 10.7695 177.908 11.2514C177.645 11.7333 177.515 12.299 177.515 12.9486C177.515 13.6086 177.645 14.1848 177.908 14.6771C178.168 15.159 178.521 15.5309 178.961 15.7928C179.401 16.0443 179.888 16.17 180.422 16.17C180.956 16.17 181.443 16.0443 181.883 15.7928C182.333 15.5309 182.69 15.159 182.952 14.6771C183.213 14.1848 183.345 13.6138 183.345 12.9643ZM191.254 10.2771C191.548 9.7638 191.977 9.34476 192.542 9.01999C193.108 8.69522 193.752 8.53285 194.475 8.53285C195.252 8.53285 195.948 8.71619 196.565 9.08285C197.184 9.44951 197.671 9.96808 198.027 10.6386C198.383 11.2986 198.561 12.0686 198.561 12.9486C198.561 13.8181 198.383 14.5933 198.027 15.2743C197.671 15.9552 197.178 16.4843 196.55 16.8614C195.932 17.2386 195.241 17.4271 194.475 17.4271C193.732 17.4271 193.077 17.2648 192.511 16.94C191.956 16.6152 191.537 16.2014 191.254 15.6986V17.2857H189.824V5.65714H191.254V10.2771ZM197.1 12.9486C197.1 12.299 196.969 11.7333 196.707 11.2514C196.446 10.7695 196.089 10.4028 195.638 10.1514C195.198 9.89999 194.711 9.77428 194.177 9.77428C193.653 9.77428 193.166 9.90522 192.715 10.1671C192.275 10.4186 191.92 10.7905 191.647 11.2828C191.386 11.7648 191.254 12.3252 191.254 12.9643C191.254 13.6138 191.386 14.1848 191.647 14.6771C191.92 15.159 192.275 15.5309 192.715 15.7928C193.166 16.0443 193.653 16.17 194.177 16.17C194.711 16.17 195.198 16.0443 195.638 15.7928C196.089 15.5309 196.446 15.159 196.707 14.6771C196.969 14.1848 197.1 13.6086 197.1 12.9486ZM207.075 8.67428L201.889 21.34H200.412L202.109 17.1914L198.636 8.67428H200.224L202.926 15.6514L205.598 8.67428H207.075Z" fill="black"/>
<path d="M109.201 48.5458C104.155 48.5458 99.9042 50.3429 96.4482 53.9373C92.9922 57.5316 91.2642 61.8862 91.2642 67.0012C91.2642 72.1162 92.9922 76.4707 96.4482 80.0651C99.9042 83.5903 104.155 85.3529 109.201 85.3529C114.247 85.3529 118.498 83.5903 121.954 80.0651C125.41 76.4707 127.138 72.1162 127.138 67.0012C127.138 61.8862 125.41 57.5316 121.954 53.9373C118.498 50.3429 114.247 48.5458 109.201 48.5458ZM109.201 93.2327C101.598 93.2327 95.2387 90.7443 90.1237 85.7676C85.0087 80.7218 82.4512 74.4662 82.4512 67.0012C82.4512 59.5361 85.0087 53.3151 90.1237 48.3384C95.2387 43.2926 101.598 40.7696 109.201 40.7696C116.804 40.7696 123.164 43.2926 128.279 48.3384C133.394 53.3151 135.951 59.5361 135.951 67.0012C135.951 74.4662 133.359 80.6872 128.175 85.6639C122.991 90.7098 116.666 93.2327 109.201 93.2327Z" fill="black"/>
<path d="M228.195 42.0139V49.9974H201.133V63.476H225.395V71.0448H201.133V84.6271H229.025V92.7143H192.528V42.0139H228.195ZM268.728 74.259L282.001 92.7143H271.114L258.982 75.6068H247.786V92.7143H239.179V42.0139H258.051C265.722 42.0139 271.218 43.3271 274.535 45.9538C277.923 48.5113 279.615 52.6931 279.615 58.4993C279.615 66.8629 275.987 72.1162 268.728 74.259ZM258.362 67.9343C263.131 67.9343 266.414 67.2086 268.211 65.7571C270.008 64.3054 270.906 61.8516 270.906 58.3956C270.906 55.0778 270.008 52.8313 268.211 51.6563C266.414 50.4121 263.2 49.7899 258.568 49.7899H247.786V67.9343H258.362ZM298.076 54.7667C298.076 56.9095 298.872 58.4647 300.462 59.4324C302.051 60.6075 305.439 61.817 310.621 63.0613C316.082 64.3745 320.058 66.1718 322.545 68.4527C325.103 70.7338 326.381 74.017 326.381 78.3026C326.381 82.7954 324.689 86.4243 321.301 89.1891C317.983 91.954 313.629 93.3364 308.237 93.3364C300.427 93.3364 293.376 90.5715 287.086 85.0418L292.477 78.6135C297.731 83.1064 303.053 85.3529 308.445 85.3529C311.14 85.3529 313.318 84.7654 314.977 83.5903C316.635 82.3462 317.465 80.7563 317.465 78.821C317.465 76.8854 316.704 75.3648 315.185 74.259C313.733 73.153 311.105 72.1507 307.304 71.2522C300.737 69.7315 296.175 67.9343 293.618 65.8606C290.645 63.5797 289.16 60.0891 289.16 55.3888C289.16 50.8268 290.818 47.267 294.137 44.7095C297.454 42.083 301.705 40.7696 306.889 40.7696C313.871 40.7696 319.85 42.8087 324.827 46.8869L320.265 53.3151C318.744 51.9327 316.704 50.8268 314.147 49.9974C311.589 49.0988 309.067 48.6496 306.578 48.6496C304.021 48.6496 301.947 49.2025 300.358 50.3084C298.837 51.3452 298.076 52.8313 298.076 54.7667Z" fill="#E1B42A"/>
<path d="M158.777 42.0139C167.832 42.0139 174.814 44.2256 179.721 48.6495C184.629 53.0041 187.082 59.1559 187.082 67.1049C187.082 75.1921 184.663 81.482 179.825 85.9749C174.986 90.4678 167.763 92.7143 158.155 92.7143H141.358V42.0139H158.777ZM158.466 49.8936H149.964V84.6271H159.399C165.621 84.6271 170.355 83.1755 173.604 80.2725C176.852 77.3003 178.477 72.9801 178.477 67.3123C178.477 55.6999 171.806 49.8936 158.466 49.8936Z" fill="black"/>
<path d="M75.9081 78.7173L81.4033 84.3161C76.15 90.3296 69.6526 93.3364 61.9109 93.3364C54.2386 93.3364 47.8448 90.8826 42.7299 85.9749C37.6841 80.9982 35.1611 74.7428 35.1611 67.2086C35.1611 59.6052 37.753 53.3151 42.9372 48.3384C48.1213 43.2926 54.6533 40.7696 62.5331 40.7696C70.2747 40.7696 76.8067 43.6728 82.1289 49.479L76.7375 55.3888C74.3183 53.0387 72.0372 51.4143 69.8946 50.5158C67.7518 49.6172 65.2288 49.168 62.3258 49.168C57.1416 49.168 52.7871 50.8268 49.2619 54.1447C45.8057 57.4624 44.0777 61.6789 44.0777 66.7939C44.0777 71.8397 45.8057 76.1252 49.2619 79.6504C52.7179 83.1756 56.8305 84.9381 61.6 84.9381C64.503 84.9381 66.9914 84.4542 69.065 83.4865C71.2078 82.5189 73.4887 80.929 75.9081 78.7173Z" fill="black"/>
<path d="M25.2054 42.0139C34.2603 42.0139 41.2416 44.2256 46.1491 48.6495C51.0567 53.0041 53.5106 59.1559 53.5106 67.1049C53.5106 75.1921 51.0913 81.482 46.2528 85.9749C41.4144 90.4678 34.1912 92.7143 24.5833 92.7143H7.78687V42.0139H25.2054ZM24.8943 49.8936H16.3924V84.6271H25.8276C32.0484 84.6271 36.7833 83.1755 40.0319 80.2725C43.2806 77.3003 44.905 72.9801 44.905 67.3123C44.905 55.6999 38.2348 49.8936 24.8943 49.8936Z" fill="#E1B42A"/>
<mask id="mask0_311_903" style="mask-type:luminance" maskUnits="userSpaceOnUse" x="37" y="70" width="15" height="18">
<path d="M51.8572 70.7143H37.7144V88H51.8572V70.7143Z" fill="white"/>
</mask>
<g mask="url(#mask0_311_903)">
<path fill-rule="evenodd" clip-rule="evenodd" d="M50.3817 80.7107C49.2908 82.6774 47.9146 84.4322 46.2531 85.975C45.6794 86.5077 45.072 87.0089 44.4312 87.4786C43.8493 87.0059 43.2822 86.5048 42.73 85.975C41.227 84.4927 39.9479 82.8968 38.8927 81.1875C39.2909 80.9004 39.6707 80.5954 40.0321 80.2725C42.4609 78.0505 43.9818 75.0751 44.5948 71.3463C45.3415 74.4703 46.8972 77.2384 49.2619 79.6503C49.6279 80.0236 50.0011 80.3771 50.3817 80.7107ZM44.2613 47.1296C44.9215 47.6034 45.5508 48.1101 46.1494 48.6495C47.7222 50.0451 49.0432 51.6255 50.1119 53.3904C49.8234 53.6314 49.5401 53.8829 49.2619 54.1447C46.7835 56.524 45.1936 59.3656 44.4926 62.6692C43.7119 58.6165 41.8237 55.528 38.8276 53.4036C39.943 51.5864 41.313 49.8979 42.9374 48.3385C43.3694 47.918 43.8106 47.5151 44.2613 47.1296Z" fill="black"/>
</g>
</svg>
