<svg width="390" height="400" viewBox="0 0 390 400" fill="none" xmlns="http://www.w3.org/2000/svg">
<path d="M314.941 311.096H295.067V311.246H314.941V311.096Z" fill="#EBEBEB"/>
<path d="M243.732 312.725H238.516V312.875H243.732V312.725Z" fill="#EBEBEB"/>
<path d="M294.467 305.525H282.952V305.675H294.467V305.525Z" fill="#EBEBEB"/>
<path d="M102.391 306.533H76.4753V306.683H102.391V306.533Z" fill="#EBEBEB"/>
<path d="M111.533 306.533H107.734V306.683H111.533V306.533Z" fill="#EBEBEB"/>
<path d="M180.088 309.067H123.883V309.217H180.088V309.067Z" fill="#EBEBEB"/>
<path d="M188.041 274.68H72.1811C70.2929 274.68 68.7563 273.143 68.7563 271.255V108.396C68.7563 106.508 70.2929 104.971 72.1811 104.971H188.041C189.928 104.971 191.465 106.508 191.465 108.396V271.255C191.465 273.143 189.928 274.68 188.041 274.68ZM72.1811 105.122C70.3751 105.122 68.9063 106.591 68.9063 108.397V271.256C68.9063 273.062 70.3751 274.531 72.1811 274.531H188.041C189.846 274.531 191.315 273.062 191.315 271.256V108.396C191.315 106.591 189.846 105.121 188.041 105.121L72.1811 105.122Z" fill="#EBEBEB"/>
<path d="M317.819 274.68H201.959C200.072 274.68 198.535 273.143 198.535 271.255V108.396C198.535 106.508 200.072 104.971 201.959 104.971H317.819C319.708 104.971 321.244 106.508 321.244 108.396V271.255C321.244 273.143 319.707 274.68 317.819 274.68ZM201.959 105.122C200.154 105.122 198.685 106.591 198.685 108.397V271.256C198.685 273.062 200.154 274.531 201.959 274.531H317.819C319.625 274.531 321.094 273.062 321.094 271.256V108.396C321.094 106.591 319.625 105.121 317.819 105.121L201.959 105.122Z" fill="#EBEBEB"/>
<path d="M345 301.439H45V301.589H345V301.439Z" fill="#EBEBEB"/>
<path d="M255.044 297.955H312.15V221.968H255.044V297.955Z" fill="#F5F5F5"/>
<path d="M244.15 297.955H255.044V221.968H244.15V297.955Z" fill="#E6E6E6"/>
<path d="M258.75 246.06H308.15V227.607H258.75V246.06Z" fill="#FAFAFA"/>
<path d="M289.892 227.607L289.676 230.067C289.604 230.878 288.925 231.501 288.11 231.501H278.789C277.975 231.501 277.295 230.879 277.223 230.067L277.007 227.607H289.892Z" fill="#EBEBEB"/>
<path d="M258.75 266.529H308.15V248.076H258.75V266.529Z" fill="#FAFAFA"/>
<path d="M289.892 248.075L289.676 250.535C289.604 251.347 288.925 251.969 288.11 251.969H278.789C277.975 251.969 277.295 251.347 277.223 250.535L277.007 248.075H289.892Z" fill="#EBEBEB"/>
<path d="M258.75 286.998H308.15V268.545H258.75V286.998Z" fill="#FAFAFA"/>
<path d="M289.892 268.544L289.676 271.004C289.604 271.816 288.925 272.438 288.11 272.438H278.789C277.975 272.438 277.295 271.816 277.223 271.004L277.007 268.544H289.892Z" fill="#EBEBEB"/>
<path d="M258.75 301.749H307.55L308.15 297.949H258.75V301.749Z" fill="#E6E6E6"/>
<path d="M248.55 301.749H258.75V297.949H247.95L248.55 301.749Z" fill="#E0E0E0"/>
<path d="M281.689 222.05H301.189L299.026 197.321H279.526L281.689 222.05Z" fill="#FAFAFA"/>
<path d="M281.689 222.05H280.758L278.594 197.321H279.526L281.689 222.05Z" fill="#EBEBEB"/>
<path d="M283.456 219.529H298.98L297.258 199.842H281.734L283.456 219.529Z" fill="#F0F0F0"/>
<path d="M284.593 217.909H297.561L296.122 201.463H283.154L284.593 217.909Z" fill="#E6E6E6"/>
<path d="M276.21 222.05L277.549 206.744H258.137L256.798 222.05H276.21Z" fill="#F0F0F0"/>
<path d="M276.21 222.05L277.549 206.744H278.594L277.255 222.05H276.21Z" fill="#E0E0E0"/>
<path d="M274.367 220.49L275.434 208.304H259.98L258.914 220.49H274.367Z" fill="#EBEBEB"/>
<path d="M273.183 219.487L274.073 209.308H261.164L260.273 219.487H273.183Z" fill="#F5F5F5"/>
<path d="M231.386 291.462C231.386 295.518 230.75 298.142 229.678 299.825C228.871 301.091 227.424 301.803 225.922 301.803H220.049C218.548 301.803 217.101 301.091 216.294 299.825C215.222 298.141 214.585 295.518 214.585 291.462C214.585 285.579 217.15 280.869 217.988 277.108C218.29 275.754 217.285 271.604 217.285 271.604H228.685C228.685 271.604 227.681 275.755 227.983 277.108C228.821 280.869 231.386 285.579 231.386 291.462Z" fill="#EBEBEB"/>
<path d="M250.8 267.652C250.8 262.544 242.792 264.665 240.774 256.741C240.009 253.738 246.522 246.941 246.522 246.941H226.215C226.215 246.941 232.728 253.738 231.963 256.741C229.945 264.665 221.937 262.544 221.937 267.652C221.937 273.278 233.233 284.994 233.777 298.181C233.826 299.36 231.653 301.804 231.653 301.804H241.084C241.084 301.804 238.91 299.36 238.959 298.181C239.504 284.994 250.8 273.278 250.8 267.652Z" fill="#F5F5F5"/>
<path d="M244.663 280.926C245.843 278.443 243.403 270.003 243.403 270.003H252.203C252.203 270.003 249.762 278.444 250.942 280.926C251.776 282.679 253.671 283.798 253.671 285.871V298.334C253.671 301.562 251.03 301.803 247.802 301.803C244.574 301.803 241.934 301.562 241.934 298.334V285.871C241.934 283.798 243.829 282.679 244.663 280.926Z" fill="#F0F0F0"/>
<path d="M144.091 207.317C139.036 205.127 136.151 200.507 137.662 197.018C139.173 193.528 144.517 192.47 149.572 194.659C154.629 196.849 157.513 201.469 156.002 204.959C154.491 208.448 149.148 209.506 144.091 207.317ZM148.116 198.022C145.747 196.996 143.243 197.492 142.535 199.127C141.827 200.762 143.179 202.927 145.548 203.953C147.917 204.979 150.421 204.484 151.129 202.849C151.837 201.214 150.485 199.048 148.116 198.022Z" fill="#E6E6E6"/>
<path d="M150.04 198.216L147.637 197.176L162.155 163.615C162.443 162.951 163.213 162.646 163.877 162.933C164.54 163.22 164.845 163.99 164.558 164.654L150.04 198.216Z" fill="#E6E6E6"/>
<path d="M165.67 167.899L161.06 165.884L162.1 163.482L166.71 165.496L165.67 167.899Z" fill="#E6E6E6"/>
<path d="M163.398 170.585L160.097 169.151L161.137 166.748L164.438 168.182L163.398 170.585Z" fill="#E6E6E6"/>
<path d="M159.806 171.339L158.766 173.741L162.467 175.344L163.508 172.942L159.806 171.339Z" fill="#E6E6E6"/>
<path d="M150.974 194.633L149.654 194.062C148.996 193.777 148.694 193.013 148.979 192.356L148.988 192.335C149.273 191.678 150.037 191.375 150.694 191.66L152.014 192.232C152.672 192.517 152.974 193.28 152.689 193.938L152.68 193.958C152.395 194.615 151.631 194.918 150.974 194.633Z" fill="#E6E6E6"/>
<path d="M254.081 183.096C258.087 185.765 259.121 191.277 256.384 195.384C253.648 199.49 248.162 200.66 244.157 197.992C240.151 195.322 239.117 189.809 241.853 185.703C244.59 181.596 250.075 180.427 254.081 183.096ZM246.794 194.033C248.672 195.284 251.242 194.736 252.524 192.812C253.806 190.888 253.322 188.305 251.444 187.054C249.567 185.803 246.997 186.351 245.714 188.275C244.433 190.199 244.917 192.783 246.794 194.033Z" fill="#E6E6E6"/>
<path d="M245.824 192.968L248.308 194.623L230.539 221.815C230.083 222.501 229.156 222.687 228.47 222.23C227.784 221.773 227.599 220.847 228.055 220.162L245.824 192.968Z" fill="#E6E6E6"/>
<path d="M228.167 214.232L233.393 217.742L230.784 221.658L225.548 218.141C224.796 217.637 224.594 216.619 225.096 215.865L225.882 214.686C226.387 213.928 227.411 213.725 228.167 214.232Z" fill="#E6E6E6"/>
<path d="M181.522 131.134L178.764 138.278C178.516 138.922 177.792 139.243 177.148 138.994C176.504 138.746 176.184 138.022 176.432 137.378L179.191 130.233C180.082 127.926 178.93 125.323 176.622 124.432L174.066 123.445C171.759 122.554 169.156 123.707 168.266 126.015L167.14 128.932L164.808 128.032L165.934 125.115C167.321 121.521 171.374 119.726 174.967 121.113L177.523 122.1C181.114 123.487 182.909 127.54 181.522 131.134Z" fill="#F0F0F0"/>
<path d="M181.086 132.259C180.902 132.022 180.653 131.829 180.353 131.713L166.433 126.339C166.123 126.219 165.796 126.194 165.493 126.256C164.937 126.365 164.444 126.749 164.225 127.316L158.851 141.237C158.511 142.118 158.948 143.104 159.829 143.444L173.75 148.819C174.631 149.159 175.617 148.722 175.957 147.841L181.331 133.92C181.555 133.343 181.444 132.717 181.086 132.259ZM170.516 143.016L166.102 141.311L168.436 137.237C168.142 136.646 168.088 135.937 168.344 135.271C168.832 134.009 170.249 133.378 171.511 133.865C172.772 134.353 173.401 135.773 172.915 137.035C172.658 137.701 172.141 138.189 171.523 138.428L170.516 143.016Z" fill="#E6E6E6"/>
<path d="M86.4941 293.674H197.572V233.895H86.4941L86.4941 293.674Z" fill="#E6E6E6"/>
<path d="M188.667 301.43H195.648V296.156H188.667V301.43Z" fill="#E6E6E6"/>
<path d="M78.0152 301.431H84.9962L84.9962 229.447H78.0152L78.0152 301.431Z" fill="#E6E6E6"/>
<path d="M84.9126 229.447V301.43H88.6356V297.397H195.648V301.43H199.372V229.447H197.51H195.648H88.6362H86.7744H84.9126ZM88.6362 235.963H140.281V260.965H88.6362V235.963ZM195.648 290.881H144.004V235.963H195.648V290.881ZM88.6362 290.881V264.688H140.281V290.881H88.6362Z" fill="#F0F0F0"/>
<path d="M144.004 290.881H192.157V238.652H144.004V290.881Z" fill="#F5F5F5"/>
<path d="M146.184 263.201C146.184 264.437 147.185 265.439 148.421 265.439C149.657 265.439 150.659 264.437 150.659 263.201C150.659 261.965 149.657 260.964 148.421 260.964C147.186 260.965 146.184 261.966 146.184 263.201Z" fill="#FAFAFA"/>
<path d="M148.421 265.439C149.324 265.439 150.097 264.902 150.45 264.133C150.581 264.417 150.658 264.73 150.658 265.063C150.658 266.299 149.657 267.301 148.421 267.301C147.185 267.301 146.183 266.299 146.183 265.063C146.183 264.73 146.261 264.416 146.392 264.133C146.746 264.902 147.519 265.439 148.421 265.439Z" fill="#E0E0E0"/>
<path d="M173.482 290.881H161.994L156.505 238.652H167.993L173.482 290.881Z" fill="#FAFAFA"/>
<path d="M159.052 290.881H156.765L151.276 238.652H153.562L159.052 290.881Z" fill="#FAFAFA"/>
<path d="M128.642 260.94H133.193V238.601H128.642V260.94Z" fill="#FAFAFA"/>
<path d="M109.774 260.94H114.324V238.601H109.774V260.94Z" fill="#F5F5F5"/>
<path d="M124.091 260.94H128.641V240.17H124.091V260.94Z" fill="#F5F5F5"/>
<path d="M114.325 260.94H118.875V240.17H114.325V260.94Z" fill="#FAFAFA"/>
<path d="M118.875 260.94H121.815V238.601H118.875V260.94Z" fill="#EBEBEB"/>
<path d="M121.816 260.94H124.091V240.17H121.816V260.94Z" fill="#FAFAFA"/>
<path d="M105.223 260.94H109.774V238.601H105.223V260.94Z" fill="#EBEBEB"/>
<path d="M100.673 260.94H105.223V240.17H100.673V260.94Z" fill="#E6E6E6"/>
<path d="M90.9059 260.94H95.4563V240.17H90.9059V260.94Z" fill="#E6E6E6"/>
<path d="M95.456 260.94H98.3966V238.601H95.456V260.94Z" fill="#FAFAFA"/>
<path d="M98.3969 260.94H100.672V240.17H98.3969V260.94Z" fill="#EBEBEB"/>
<path d="M88.6303 260.94H90.9055V239.13H88.6303V260.94Z" fill="#EBEBEB"/>
<path d="M93.1806 268.541H88.6302V290.881H93.1806V268.541Z" fill="#EBEBEB"/>
<path d="M112.049 268.541H107.498V290.881H112.049V268.541Z" fill="#FAFAFA"/>
<path d="M97.7311 270.112H93.1807V290.881H97.7311V270.112Z" fill="#FAFAFA"/>
<path d="M107.498 270.112H102.947V290.881H107.498V270.112Z" fill="#EBEBEB"/>
<path d="M102.947 268.541H100.007V290.881H102.947V268.541Z" fill="#FAFAFA"/>
<path d="M100.007 270.112H97.7316V290.881H100.007V270.112Z" fill="#F5F5F5"/>
<path d="M116.599 268.541H112.049V290.881H116.599V268.541Z" fill="#EBEBEB"/>
<path d="M121.15 270.112H116.599V290.881H121.15V270.112Z" fill="#F5F5F5"/>
<path d="M130.916 270.112H126.366V290.881H130.916V270.112Z" fill="#E6E6E6"/>
<path d="M126.366 268.541H123.425V290.881H126.366V268.541Z" fill="#FAFAFA"/>
<path d="M136.133 268.541H133.192V290.881H136.133V268.541Z" fill="#FAFAFA"/>
<path d="M123.425 270.112H121.15V290.881H123.425V270.112Z" fill="#EBEBEB"/>
<path d="M133.192 269.071H130.917V290.881H133.192V269.071Z" fill="#EBEBEB"/>
<path d="M93.708 190.973C93.708 190.973 92.9442 191.324 92.595 192.035C92.2458 192.745 93.3288 194.057 93.3288 194.057C93.3288 194.057 94.2378 194.69 95.1414 194.279C96.045 193.869 96.045 193.869 96.045 193.869C96.045 193.869 94.5 191.188 93.75 191.161L93.708 190.973Z" fill="#E6E6E6"/>
<path d="M97.5768 190.952C97.6872 192.223 96.8988 193.828 95.7636 193.926C94.6284 194.024 93.576 192.58 93.4656 191.308C93.3552 190.037 94.272 189.913 95.4072 189.814C96.5418 189.716 97.4664 189.68 97.5768 190.952Z" fill="#E6E6E6"/>
<path d="M94.2509 190.577C94.2509 190.577 95.1185 191.269 96.9059 190.865C96.9059 190.865 94.0865 192.746 94.2509 190.577Z" fill="#E6E6E6"/>
<path d="M95.016 190.325C95.016 190.325 96.0168 190.151 96.0312 190.568C96.0312 190.568 96.8802 190.521 96.7626 190.166C96.6456 189.811 95.016 190.325 95.016 190.325Z" fill="#E6E6E6"/>
<g opacity="0.2">
<path d="M94.2509 190.577C94.2509 190.577 95.1185 191.269 96.9059 190.865C96.9059 190.865 94.0865 192.746 94.2509 190.577Z" fill="#FAFAFA"/>
</g>
<g opacity="0.2">
<path d="M95.016 190.325C95.016 190.325 96.0168 190.151 96.0312 190.568C96.0312 190.568 96.8802 190.521 96.7626 190.166C96.6456 189.811 95.016 190.325 95.016 190.325Z" fill="#FAFAFA"/>
</g>
<path d="M93.8574 194.328C94.2186 194.914 94.9554 195.215 95.6382 195.133C96.3216 195.052 96.9366 194.625 97.3308 194.061C97.725 193.497 97.9128 192.808 97.9566 192.121C97.968 191.944 97.9818 191.499 97.7478 191.43C97.533 191.367 97.4004 191.668 97.3008 191.807C97.0146 192.211 96.711 192.588 96.3468 192.925C95.9934 193.25 95.6028 193.536 95.1846 193.772C95.067 193.838 93.921 194.431 93.8574 194.328Z" fill="#E6E6E6"/>
<path d="M98.7281 191.789C98.9429 192.304 98.8649 192.931 98.5295 193.378C98.3093 193.671 97.9973 193.88 97.6829 194.07C97.4645 194.202 97.1831 194.327 96.9689 194.188C96.7379 194.039 96.7589 193.699 96.8117 193.429C96.8933 193.013 96.9863 192.599 97.0907 192.188C97.1765 191.851 97.2281 191.287 97.4255 191.001C97.6115 190.732 97.8749 190.891 98.1557 191.087C98.4059 191.261 98.6105 191.506 98.7281 191.789Z" fill="#E6E6E6"/>
<g opacity="0.2">
<path d="M94.1478 193.624C93.7092 193.605 93.2946 193.308 93.135 192.899C93.0174 192.597 93.0192 191.83 93.411 191.732C93.5844 192.413 93.7344 193.033 94.1478 193.624Z" fill="#FAFAFA"/>
</g>
<g opacity="0.2">
<path d="M97.1064 193.593C97.5204 193.475 97.8648 193.136 97.9908 192.725C98.0604 192.497 97.9722 191.335 97.6272 191.824C97.5144 191.983 97.5354 192.493 97.4766 192.7C97.3884 193.01 97.2642 193.311 97.1064 193.593Z" fill="#FAFAFA"/>
</g>
<g opacity="0.2">
<path d="M95.5212 194.311C95.8416 194.583 96.3534 194.596 96.687 194.341C96.6432 194.566 95.9352 194.753 95.7156 194.818C95.1438 194.986 94.8444 194.734 94.2894 194.503C94.2894 194.503 95.1684 194.636 95.5212 194.311Z" fill="#FAFAFA"/>
</g>
<path d="M94.5282 217.681L94.5822 200.369L95.4702 195.105L95.8074 195.162L94.9236 200.402L94.8612 218.009L94.5282 217.681Z" fill="#E0E0E0"/>
<path d="M94.8888 200.282L94.6176 200.49C94.3458 200.136 94.101 199.674 93.8178 199.139C93.3798 198.312 92.883 197.374 92.1288 196.545L92.382 196.315C93.165 197.177 93.6726 198.134 94.1202 198.979C94.3956 199.501 94.6344 199.951 94.8888 200.282Z" fill="#E0E0E0"/>
<path d="M95.0976 197.96C95.5584 197.839 95.9712 197.545 96.237 197.15C96.5388 196.701 96.6438 196.152 96.7422 195.62C96.1446 195.799 95.5026 195.509 94.8834 195.58C94.3896 195.637 93.9294 195.938 93.6798 196.368C93.3564 196.925 93.225 197.557 93.5106 197.812C93.7458 198.021 94.4814 198.122 95.0976 197.96Z" fill="#E6E6E6"/>
<path d="M92.7972 196.765C92.2452 197.114 91.5354 197.203 90.9144 197C90.2934 196.798 90.1122 195.865 89.8716 195.257C90.435 195.141 91.866 195.222 92.19 195.254C92.514 195.287 92.8428 195.433 93.0174 195.708C93.1914 195.983 93.1596 196.396 92.8956 196.586C92.8776 196.575 92.7972 196.765 92.7972 196.765Z" fill="#E6E6E6"/>
<path d="M89.9574 197.776C90.3372 197.316 91.2732 196.983 91.8594 197.09C92.4456 197.197 92.946 197.6 93.156 198.08C93.0012 198.452 92.586 198.662 92.184 198.691C91.782 198.72 91.3854 198.601 90.9996 198.484C90.6144 198.366 90.2178 198.247 89.8158 198.275L89.9574 197.776Z" fill="#E6E6E6"/>
<path d="M101.506 194.8C101.506 194.8 102.133 195.361 102.258 196.142C102.382 196.924 100.962 197.859 100.962 197.859C100.962 197.859 99.9061 198.197 99.1633 197.539C98.4205 196.881 98.4205 196.881 98.4205 196.881C98.4205 196.881 100.686 194.773 101.41 194.968L101.506 194.8Z" fill="#E6E6E6"/>
<path d="M97.8145 193.642C97.3351 194.825 97.6171 196.59 98.6737 197.018C99.7297 197.446 101.161 196.375 101.639 195.191C102.119 194.009 101.279 193.621 100.223 193.193C99.1669 192.765 98.2939 192.459 97.8145 193.642Z" fill="#E6E6E6"/>
<path d="M101.104 194.262C101.104 194.262 100.071 194.668 98.4811 193.756C98.4811 193.756 100.622 196.382 101.104 194.262Z" fill="#E6E6E6"/>
<path d="M100.446 193.795C100.446 193.795 99.5413 193.334 99.4039 193.729C99.4039 193.729 98.6065 193.435 98.8231 193.129C99.0403 192.825 100.446 193.795 100.446 193.795Z" fill="#E6E6E6"/>
<g opacity="0.2">
<path d="M101.104 194.262C101.104 194.262 100.071 194.668 98.4811 193.756C98.4811 193.756 100.622 196.382 101.104 194.262Z" fill="#FAFAFA"/>
</g>
<g opacity="0.2">
<path d="M100.446 193.795C100.446 193.795 99.5413 193.334 99.4039 193.729C99.4039 193.729 98.6065 193.435 98.8231 193.129C99.0403 192.825 100.446 193.795 100.446 193.795Z" fill="#FAFAFA"/>
</g>
<path d="M100.376 197.962C99.8592 198.416 99.0666 198.487 98.4372 198.208C97.8084 197.929 97.3458 197.341 97.1346 196.685C96.9234 196.031 96.9468 195.316 97.107 194.647C97.1484 194.474 97.266 194.045 97.5102 194.048C97.7346 194.051 97.7724 194.377 97.8264 194.54C97.9818 195.01 98.1606 195.46 98.4102 195.889C98.652 196.304 98.9418 196.691 99.2718 197.041C99.3648 197.139 100.285 198.043 100.376 197.962Z" fill="#E6E6E6"/>
<path d="M96.4681 194.103C96.1111 194.533 96.0019 195.155 96.1909 195.68C96.3151 196.025 96.5521 196.318 96.7963 196.591C96.9667 196.781 97.1989 196.984 97.4443 196.914C97.7095 196.839 97.7893 196.508 97.8175 196.235C97.8619 195.813 97.8949 195.391 97.9159 194.967C97.9333 194.62 98.0497 194.065 97.9447 193.734C97.8463 193.422 97.5475 193.497 97.2217 193.601C96.9307 193.694 96.6637 193.867 96.4681 194.103Z" fill="#E6E6E6"/>
<g opacity="0.2">
<path d="M100.307 197.204C100.732 197.315 101.215 197.153 101.488 196.809C101.689 196.555 101.912 195.821 101.567 195.613C101.2 196.213 100.875 196.76 100.307 197.204Z" fill="#FAFAFA"/>
</g>
<g opacity="0.2">
<path d="M97.4875 196.304C97.1263 196.07 96.8965 195.645 96.8971 195.214C96.8971 194.977 97.3237 193.891 97.5097 194.459C97.5703 194.645 97.4005 195.127 97.3957 195.341C97.3891 195.664 97.4197 195.989 97.4875 196.304Z" fill="#FAFAFA"/>
</g>
<g opacity="0.2">
<path d="M98.7913 197.456C98.4055 197.623 97.9123 197.485 97.6681 197.143C97.6435 197.37 98.2651 197.758 98.4565 197.884C98.9539 198.213 99.3133 198.061 99.9121 198.002C99.9121 198.002 99.0331 197.872 98.7913 197.456Z" fill="#FAFAFA"/>
</g>
<path d="M94.0363 215.096L94.2517 214.387L94.5427 213.431L94.8793 212.317L97.5709 203.454L97.9075 200.911L98.2063 198.654L98.2681 198.185L98.4355 198.207L98.4379 198.209L98.6077 198.231L98.6029 198.272L98.5429 198.713L98.2255 201.125L97.9651 203.091L97.9075 203.523L97.8865 203.593L94.8775 213.491L94.5379 214.602L94.3825 215.117L94.1677 215.822L94.0363 215.096Z" fill="#E0E0E0"/>
<path d="M97.6405 203.35L97.8385 203.629C98.2021 203.371 98.5723 203.001 99.0001 202.573C99.6619 201.911 100.413 201.162 101.377 200.59L101.203 200.296C100.201 200.889 99.4351 201.655 98.7589 202.331C98.3413 202.748 97.9813 203.108 97.6405 203.35Z" fill="#E0E0E0"/>
<path d="M98.1235 201.069C97.7191 200.818 97.4107 200.416 97.2721 199.96C97.1155 199.442 97.1767 198.887 97.2391 198.35C97.7581 198.696 98.4565 198.608 99.0277 198.858C99.4831 199.057 99.8341 199.48 99.9463 199.964C100.091 200.592 100.031 201.234 99.6835 201.394C99.3979 201.525 98.6647 201.405 98.1235 201.069Z" fill="#E6E6E6"/>
<path d="M100.674 200.603C101.099 201.1 101.751 201.394 102.404 201.383C103.058 201.372 103.505 200.533 103.914 200.023C103.409 199.747 102.018 199.403 101.699 199.339C101.38 199.274 101.022 199.318 100.775 199.529C100.528 199.741 100.437 200.144 100.633 200.404C100.652 200.398 100.674 200.603 100.674 200.603Z" fill="#E6E6E6"/>
<path d="M103.091 202.405C102.863 201.854 102.067 201.26 101.474 201.19C100.883 201.119 100.286 201.358 99.9445 201.755C99.9835 202.156 100.318 202.479 100.694 202.625C101.069 202.771 101.483 202.774 101.887 202.774C102.29 202.775 102.703 202.778 103.079 202.923L103.091 202.405Z" fill="#E6E6E6"/>
<path d="M89.3538 194.108C89.3538 194.108 88.6656 194.591 88.4496 195.353C88.2336 196.114 89.535 197.21 89.535 197.21C89.535 197.21 90.543 197.67 91.3578 197.104C92.1726 196.537 92.1726 196.537 92.1726 196.537C92.1726 196.537 90.171 194.177 89.4288 194.286L89.3538 194.108Z" fill="#E6E6E6"/>
<path d="M93.1561 193.392C93.4927 194.623 93.0055 196.343 91.9063 196.643C90.8071 196.944 89.5123 195.712 89.1757 194.481C88.8385 193.25 89.7181 192.964 90.8173 192.662C91.9165 192.361 92.8189 192.161 93.1561 193.392Z" fill="#E6E6E6"/>
<path d="M89.817 193.621C89.817 193.621 90.795 194.145 92.481 193.427C92.481 193.427 90.045 195.784 89.817 193.621Z" fill="#E6E6E6"/>
<path d="M90.5244 193.235C90.5244 193.235 91.4772 192.884 91.5666 193.292C91.5666 193.292 92.3934 193.093 92.214 192.764C92.0346 192.437 90.5244 193.235 90.5244 193.235Z" fill="#E6E6E6"/>
<g opacity="0.2">
<path d="M89.817 193.621C89.817 193.621 90.795 194.145 92.481 193.427C92.481 193.427 90.045 195.784 89.817 193.621Z" fill="#FAFAFA"/>
</g>
<g opacity="0.2">
<path d="M90.5244 193.235C90.5244 193.235 91.4772 192.884 91.5666 193.292C91.5666 193.292 92.3934 193.093 92.214 192.764C92.0346 192.437 90.5244 193.235 90.5244 193.235Z" fill="#FAFAFA"/>
</g>
<path d="M90.1038 197.381C90.5646 197.893 91.3428 198.056 92.0004 197.854C92.658 197.651 93.186 197.12 93.4728 196.495C93.759 195.869 93.8202 195.157 93.7398 194.474C93.7188 194.297 93.6528 193.857 93.4098 193.832C93.1872 193.808 93.111 194.128 93.0378 194.284C92.8284 194.732 92.598 195.157 92.2998 195.554C92.0106 195.938 91.6776 196.289 91.3086 196.597C91.2054 196.682 90.1854 197.471 90.1038 197.381Z" fill="#E6E6E6"/>
<path d="M94.4394 194.008C94.7436 194.477 94.779 195.107 94.5294 195.607C94.3656 195.935 94.0962 196.198 93.8208 196.44C93.6294 196.609 93.375 196.783 93.1392 196.685C92.8848 196.579 92.8446 196.241 92.8482 195.966C92.8536 195.542 92.871 195.118 92.8998 194.695C92.9232 194.348 92.8728 193.784 93.0156 193.467C93.15 193.169 93.438 193.279 93.7494 193.42C94.0278 193.547 94.2726 193.751 94.4394 194.008Z" fill="#E6E6E6"/>
<g opacity="0.2">
<path d="M90.2628 196.636C89.8278 196.697 89.367 196.479 89.1366 196.106C88.9662 195.829 88.8306 195.074 89.1984 194.908C89.4912 195.547 89.7498 196.129 90.2628 196.636Z" fill="#FAFAFA"/>
</g>
<g opacity="0.2">
<path d="M93.168 196.075C93.5544 195.884 93.8322 195.49 93.882 195.061C93.9096 194.825 93.6138 193.697 93.3618 194.24C93.2796 194.417 93.3918 194.915 93.3714 195.129C93.3408 195.451 93.2724 195.769 93.168 196.075Z" fill="#FAFAFA"/>
</g>
<g opacity="0.2">
<path d="M91.7376 197.065C92.1012 197.275 92.6076 197.197 92.8896 196.885C92.8872 197.114 92.2242 197.426 92.0196 197.529C91.4874 197.797 91.1478 197.603 90.5598 197.475C90.5598 197.475 91.449 197.449 91.7376 197.065Z" fill="#FAFAFA"/>
</g>
<path d="M94.9589 220.234L91.9025 203.194L91.8293 197.856L92.1713 197.851L92.2439 203.165L95.3459 220.497L94.9589 220.234Z" fill="#E0E0E0"/>
<path d="M92.1875 203.053L91.9577 203.307C91.6265 203.008 91.3031 202.597 90.9281 202.121C90.3485 201.386 89.6915 200.554 88.8005 199.873L89.0081 199.601C89.9333 200.308 90.6047 201.159 91.1969 201.91C91.5623 202.373 91.8779 202.773 92.1875 203.053Z" fill="#E0E0E0"/>
<path d="M91.9764 200.731C92.4078 200.529 92.7612 200.166 92.952 199.73C93.1686 199.234 93.1728 198.676 93.174 198.134C92.6184 198.418 91.9344 198.247 91.338 198.428C90.8622 198.573 90.4638 198.952 90.2958 199.42C90.078 200.026 90.0618 200.671 90.3888 200.87C90.657 201.035 91.3992 201.002 91.9764 200.731Z" fill="#E6E6E6"/>
<path d="M89.4984 199.969C89.0178 200.412 88.3356 200.627 87.6882 200.54C87.0408 200.452 86.6946 199.567 86.349 199.012C86.8824 198.797 88.305 198.619 88.6296 198.593C88.9542 198.566 89.304 198.651 89.5248 198.89C89.7456 199.13 89.7882 199.541 89.5626 199.776C89.544 199.768 89.4984 199.969 89.4984 199.969Z" fill="#E6E6E6"/>
<path d="M86.8866 201.474C87.1776 200.954 88.0386 200.458 88.6344 200.458C89.2302 200.457 89.7948 200.764 90.0876 201.199C90.0018 201.592 89.631 201.874 89.241 201.974C88.8504 202.075 88.4394 202.03 88.0392 201.983C87.639 201.936 87.2274 201.89 86.8368 201.991L86.8866 201.474Z" fill="#E6E6E6"/>
<path d="M96.2129 209.78H92.6255C92.3567 209.774 92.1167 209.947 92.0363 210.204C91.7417 211.135 91.1147 213.582 91.1147 217.437C91.1147 221.672 92.2193 227.294 92.5667 228.955C92.6249 229.235 92.8703 229.436 93.1559 229.438H95.6537C95.9393 229.436 96.1847 229.235 96.2429 228.955C96.5903 227.294 97.6949 221.672 97.6949 217.437C97.6949 213.582 97.0673 211.135 96.7733 210.204C96.6947 209.958 96.4703 209.788 96.2129 209.78Z" fill="#F0F0F0"/>
<path d="M195 328.21C259.249 328.21 311.333 325.168 311.333 321.416C311.333 317.664 259.249 314.622 195 314.622C130.751 314.622 78.6666 317.664 78.6666 321.416C78.6666 325.168 130.751 328.21 195 328.21Z" fill="#F5F5F5"/>
<path d="M117.47 298.064C117.266 298.051 117.107 297.878 117.112 297.671C117.556 280.037 118.465 251.11 118.513 250.952C118.573 250.749 118.787 250.639 118.989 250.694C119.191 250.754 119.308 250.967 119.248 251.17C119.237 251.209 118.318 280.237 117.878 297.691C117.874 297.902 117.697 298.07 117.485 298.065C117.48 298.064 117.475 298.064 117.47 298.064Z" fill="#263238"/>
<path d="M115.1 239.179C115.247 240.537 116.873 245.245 118.232 245.098C119.59 244.95 120.166 240.002 120.018 238.643C119.87 237.286 118.649 236.304 117.292 236.452C115.933 236.6 114.952 237.821 115.1 239.179Z" fill="#407BFF"/>
<path d="M121.691 254.031C121.544 252.673 119.918 247.964 118.559 248.112C117.201 248.26 116.625 253.208 116.773 254.566C116.92 255.924 118.141 256.906 119.499 256.758C120.858 256.61 121.84 255.39 121.691 254.031Z" fill="#407BFF"/>
<path d="M110.969 249.901C112.328 249.754 117.036 248.128 116.888 246.769C116.741 245.411 111.793 244.835 110.435 244.983C109.076 245.131 108.095 246.352 108.243 247.709C108.391 249.068 109.611 250.049 110.969 249.901Z" fill="#407BFF"/>
<path d="M125.822 243.309C124.463 243.457 119.755 245.083 119.903 246.441C120.051 247.799 124.999 248.375 126.357 248.227C127.715 248.08 128.696 246.859 128.549 245.501C128.401 244.143 127.18 243.161 125.822 243.309Z" fill="#407BFF"/>
<path d="M110.813 243.685C111.878 244.541 116.357 246.721 117.214 245.656C118.07 244.591 114.978 240.685 113.914 239.828C112.849 238.973 111.292 239.142 110.435 240.207C109.58 241.271 109.749 242.828 110.813 243.685Z" fill="#407BFF"/>
<path d="M125.977 249.526C124.912 248.669 120.433 246.49 119.577 247.555C118.721 248.62 121.813 252.526 122.878 253.382C123.943 254.237 125.5 254.068 126.355 253.004C127.212 251.939 127.042 250.381 125.977 249.526Z" fill="#407BFF"/>
<path d="M115.475 254.187C116.331 253.122 118.511 248.643 117.446 247.787C116.381 246.931 112.475 250.022 111.619 251.087C110.763 252.152 110.933 253.709 111.998 254.565C113.062 255.421 114.619 255.252 115.475 254.187Z" fill="#407BFF"/>
<path d="M121.316 239.023C120.461 240.088 118.281 244.567 119.346 245.423C120.411 246.279 124.317 243.188 125.173 242.123C126.029 241.058 125.859 239.501 124.794 238.645C123.73 237.789 122.172 237.959 121.316 239.023Z" fill="#407BFF"/>
<g opacity="0.6">
<path d="M115.1 239.179C115.247 240.537 116.873 245.245 118.232 245.098C119.59 244.95 120.166 240.002 120.018 238.643C119.87 237.286 118.649 236.304 117.292 236.452C115.933 236.6 114.952 237.821 115.1 239.179Z" fill="white"/>
<path d="M121.691 254.031C121.544 252.673 119.918 247.964 118.559 248.112C117.201 248.26 116.625 253.208 116.773 254.566C116.92 255.924 118.141 256.906 119.499 256.758C120.858 256.61 121.84 255.39 121.691 254.031Z" fill="white"/>
<path d="M110.969 249.901C112.328 249.754 117.036 248.128 116.888 246.769C116.741 245.411 111.793 244.835 110.435 244.983C109.076 245.131 108.095 246.352 108.243 247.709C108.391 249.068 109.611 250.049 110.969 249.901Z" fill="white"/>
<path d="M125.822 243.309C124.463 243.457 119.755 245.083 119.903 246.441C120.051 247.799 124.999 248.375 126.357 248.227C127.715 248.08 128.696 246.859 128.549 245.501C128.401 244.143 127.18 243.161 125.822 243.309Z" fill="white"/>
<path d="M110.813 243.685C111.878 244.541 116.357 246.721 117.214 245.656C118.07 244.591 114.978 240.685 113.914 239.828C112.849 238.973 111.292 239.142 110.435 240.207C109.58 241.271 109.749 242.828 110.813 243.685Z" fill="white"/>
<path d="M125.977 249.526C124.912 248.669 120.433 246.49 119.577 247.555C118.721 248.62 121.813 252.526 122.878 253.382C123.943 254.237 125.5 254.068 126.355 253.004C127.212 251.939 127.042 250.381 125.977 249.526Z" fill="white"/>
<path d="M115.475 254.187C116.331 253.122 118.511 248.643 117.446 247.787C116.381 246.931 112.475 250.022 111.619 251.087C110.763 252.152 110.933 253.709 111.998 254.565C113.062 255.421 114.619 255.252 115.475 254.187Z" fill="white"/>
<path d="M121.316 239.023C120.461 240.088 118.281 244.567 119.346 245.423C120.411 246.279 124.317 243.188 125.173 242.123C126.029 241.058 125.859 239.501 124.794 238.645C123.73 237.789 122.172 237.959 121.316 239.023Z" fill="white"/>
</g>
<path d="M115.483 246.922C115.658 248.53 117.104 249.692 118.712 249.517C120.321 249.343 121.483 247.897 121.308 246.288C121.133 244.679 119.687 243.517 118.079 243.692C116.47 243.868 115.309 245.313 115.483 246.922Z" fill="#407BFF"/>
<path d="M115.771 285.143C112.391 285.217 106.607 282.094 104.331 279.046C102.022 275.953 108.498 277.858 107.827 275.426C107.155 272.994 99.1818 274.816 97.6992 271.334C96.2166 267.853 101.975 268.637 101.741 266.856C101.508 265.075 95.5452 265.454 93.6198 261.754C91.6944 258.054 96.9462 260.114 96.1182 258.581C95.2902 257.048 88.6962 250.603 91.4442 249.248C94.1916 247.892 100.375 254.606 102.442 255.352C104.509 256.097 104.978 251.446 107.672 253.662C110.365 255.879 108.383 265.606 111.55 266.879C113.908 267.827 112.893 263.379 115.609 264.494C120.363 266.447 117.144 285.113 115.771 285.143Z" fill="#407BFF"/>
<g opacity="0.2">
<path d="M115.771 285.143C112.391 285.217 106.607 282.094 104.331 279.046C102.022 275.953 108.498 277.858 107.827 275.426C107.155 272.994 99.1818 274.816 97.6992 271.334C96.2166 267.853 101.975 268.637 101.741 266.856C101.508 265.075 95.5452 265.454 93.6198 261.754C91.6944 258.054 96.9462 260.114 96.1182 258.581C95.2902 257.048 88.6962 250.603 91.4442 249.248C94.1916 247.892 100.375 254.606 102.442 255.352C104.509 256.097 104.978 251.446 107.672 253.662C110.365 255.879 108.383 265.606 111.55 266.879C113.908 267.827 112.893 263.379 115.609 264.494C120.363 266.447 117.144 285.113 115.771 285.143Z" fill="white"/>
</g>
<path d="M120.629 280.853C120.686 280.948 120.18 281.428 121.849 281.497C125.96 281.666 133.228 281.389 135.957 277.651C139.854 272.315 130.866 272.805 131.74 269.863C132.614 266.92 142.27 269.323 144.154 265.123C146.039 260.922 139.016 261.742 139.342 259.581C139.667 257.42 147.035 260.22 149.464 255.764C151.892 251.309 145.456 253.693 146.498 251.846C147.541 250.001 155.712 242.315 152.402 240.602C149.092 238.889 141.413 246.912 138.881 247.771C136.349 248.629 135.764 240.76 132.436 243.394C129.107 246.027 131.291 257.905 127.41 259.379C124.519 260.478 126.096 256.221 122.528 256.384C117.682 256.607 116.088 273.262 120.629 280.853Z" fill="#407BFF"/>
<g opacity="0.3">
<path d="M120.629 280.853C120.686 280.948 120.18 281.428 121.849 281.497C125.96 281.666 133.228 281.389 135.957 277.651C139.854 272.315 130.866 272.805 131.74 269.863C132.614 266.92 142.27 269.323 144.154 265.123C146.039 260.922 139.016 261.742 139.342 259.581C139.667 257.42 147.035 260.22 149.464 255.764C151.892 251.309 145.456 253.693 146.498 251.846C147.541 250.001 155.712 242.315 152.402 240.602C149.092 238.889 141.413 246.912 138.881 247.771C136.349 248.629 135.764 240.76 132.436 243.394C129.107 246.027 131.291 257.905 127.41 259.379C124.519 260.478 126.096 256.221 122.528 256.384C117.682 256.607 116.088 273.262 120.629 280.853Z" fill="white"/>
</g>
<path d="M117.549 295.399C117.542 295.399 117.535 295.398 117.527 295.397C117.38 295.38 117.276 295.247 117.294 295.1C120.668 267.49 136.572 256.268 136.732 256.158C136.853 256.075 137.02 256.105 137.103 256.227C137.186 256.348 137.156 256.515 137.034 256.598C136.876 256.707 121.167 267.808 117.824 295.165C117.808 295.304 117.687 295.405 117.549 295.399Z" fill="#263238"/>
<path d="M133.113 259.994C133.004 259.99 132.905 259.918 132.869 259.81C132.824 259.669 132.901 259.519 133.041 259.473C133.14 259.441 135.508 258.692 139.388 259.516C139.533 259.546 139.625 259.688 139.595 259.832C139.564 259.977 139.422 260.07 139.278 260.039C135.549 259.248 133.229 259.975 133.207 259.982C133.175 259.991 133.144 259.995 133.113 259.994Z" fill="#263238"/>
<path d="M130.173 263.347C130.031 263.341 129.919 263.226 129.917 263.083C129.835 254.732 134.668 248.209 134.717 248.144C134.806 248.026 134.974 248.002 135.092 248.091C135.21 248.18 135.233 248.347 135.145 248.465C135.097 248.529 130.372 254.915 130.452 263.078C130.453 263.225 130.335 263.346 130.187 263.348C130.183 263.348 130.178 263.347 130.173 263.347Z" fill="#263238"/>
<path d="M125.437 270.415C125.369 270.412 125.303 270.384 125.253 270.331C125.152 270.224 125.156 270.055 125.264 269.953C125.3 269.919 128.878 266.611 133.564 268.289C133.703 268.339 133.775 268.492 133.726 268.631C133.676 268.77 133.523 268.843 133.384 268.793C129.003 267.221 125.664 270.31 125.631 270.341C125.577 270.393 125.506 270.417 125.437 270.415Z" fill="#263238"/>
<path d="M122.961 275.345C122.861 275.341 122.768 275.281 122.726 275.183C122.651 275.008 120.899 270.809 121.865 264.828C121.889 264.683 122.02 264.581 122.171 264.607C122.317 264.631 122.416 264.767 122.393 264.913C121.453 270.733 123.2 274.931 123.218 274.973C123.276 275.108 123.213 275.266 123.077 275.323C123.039 275.339 122.999 275.346 122.961 275.345Z" fill="#263238"/>
<path d="M117.656 305.261C117.518 305.256 117.405 305.143 117.401 305.003L117.054 297.69C116.031 273.375 99.3522 256.837 99.1836 256.673C99.078 256.57 99.0756 256.401 99.1788 256.295C99.2826 256.19 99.4512 256.188 99.5568 256.291C99.7266 256.456 116.555 273.135 117.588 297.671L117.935 304.987C117.94 305.134 117.824 305.257 117.676 305.263C117.67 305.262 117.663 305.261 117.656 305.261Z" fill="#263238"/>
<path d="M106.063 265.807C106.048 265.807 106.033 265.805 106.019 265.802C105.995 265.797 105.967 265.786 105.941 265.772L105.854 265.737C103.671 264.83 101.231 264.359 98.9862 264.409C98.8362 264.416 98.7162 264.295 98.7132 264.147C98.7096 263.999 98.8266 263.878 98.9742 263.874C101.293 263.824 103.809 264.308 106.06 265.243L106.148 265.28C106.165 265.286 106.18 265.293 106.194 265.301C106.299 265.355 106.36 265.474 106.334 265.594C106.307 265.725 106.19 265.813 106.063 265.807Z" fill="#263238"/>
<path d="M108.421 268.939C108.417 268.939 108.412 268.938 108.408 268.937C108.261 268.925 108.152 268.794 108.166 268.648C108.811 261.471 105.095 255.566 105.057 255.508C104.978 255.383 105.014 255.218 105.138 255.139C105.263 255.059 105.428 255.095 105.507 255.22C105.545 255.28 109.361 261.332 108.698 268.696C108.685 268.838 108.563 268.945 108.421 268.939Z" fill="#263238"/>
<path d="M110.855 273.096C110.79 273.094 110.725 273.067 110.676 273.017C110.649 272.99 107.941 270.317 103.977 271.373C103.834 271.412 103.688 271.325 103.65 271.183C103.612 271.04 103.697 270.894 103.84 270.856C108.112 269.716 110.939 272.522 111.056 272.642C111.16 272.747 111.159 272.915 111.054 273.02C110.999 273.073 110.927 273.099 110.855 273.096Z" fill="#263238"/>
<path d="M113.944 279.948C113.906 279.946 113.867 279.937 113.831 279.918C113.701 279.85 113.65 279.688 113.719 279.557C113.737 279.521 115.573 275.934 115.154 270.758C115.142 270.611 115.252 270.482 115.399 270.471C115.547 270.453 115.675 270.568 115.687 270.716C116.119 276.053 114.271 279.655 114.193 279.806C114.143 279.899 114.044 279.952 113.944 279.948Z" fill="#263238"/>
<path d="M132.694 306.413C132.694 314.941 128.858 321.858 117.242 321.858C106.155 321.858 101.789 314.941 101.789 306.413C101.789 303.196 102.778 300.204 104.459 297.73H130.024C131.706 300.204 132.694 303.196 132.694 306.413Z" fill="#407BFF"/>
<path opacity="0.7" d="M132.694 306.413C132.694 314.941 128.858 321.858 117.242 321.858C106.155 321.858 101.789 314.941 101.789 306.413C101.789 303.196 102.778 300.204 104.459 297.73H130.024C131.706 300.204 132.694 303.196 132.694 306.413Z" fill="white"/>
<path d="M221.461 314.318L227.437 313.445L225.928 299.465L219.951 300.337L221.461 314.318Z" fill="#E8BFBF"/>
<path d="M232.031 313.655C232.55 313.616 233.041 313.403 233.423 313.05C233.587 312.844 233.638 312.571 233.561 312.32C233.527 312.163 233.414 312.035 233.261 311.982C232.463 311.697 230.277 313.307 230.033 313.489C229.985 313.528 229.965 313.589 229.98 313.648C230 313.705 230.054 313.742 230.114 313.743C230.754 313.772 231.396 313.742 232.031 313.655ZM232.872 312.253C232.962 312.231 233.056 312.234 233.144 312.26C233.207 312.28 233.254 312.332 233.268 312.397C233.317 312.563 233.284 312.742 233.179 312.88C232.872 313.262 231.896 313.478 230.536 313.478C231.244 312.935 232.04 312.518 232.89 312.244L232.872 312.253Z" fill="#407BFF"/>
<path d="M230.147 313.75L230.196 313.727C230.859 313.29 232.055 311.768 231.83 311.11C231.761 310.963 231.637 310.775 231.236 310.797C230.946 310.802 230.671 310.93 230.481 311.149C229.834 311.892 229.962 313.529 229.964 313.595C229.962 313.646 229.984 313.694 230.024 313.724C230.059 313.752 230.104 313.761 230.147 313.75ZM231.152 311.098L231.232 311.06C231.496 311.05 231.526 311.147 231.535 311.18C231.676 311.578 230.883 312.748 230.223 313.288C230.162 312.599 230.322 311.909 230.679 311.318C230.807 311.185 230.98 311.104 231.164 311.092L231.152 311.098Z" fill="#407BFF"/>
<path d="M226.826 310.97L221.526 312.233C221.287 312.283 221.125 312.505 221.15 312.747L221.321 320.416C221.395 320.953 221.891 321.329 222.428 321.255C222.465 321.25 222.502 321.242 222.538 321.233C224.834 320.662 225.917 320.272 228.836 319.598C230.625 319.187 236.293 318.76 238.615 317.725C240.937 316.691 240.032 314.338 238.973 314.56C235.568 315.293 231.192 313.835 228.706 311.615C228.369 311.45 227.189 310.876 226.826 310.97Z" fill="#263238"/>
<path opacity="0.2" d="M225.928 299.465L226.705 306.671L220.73 307.55L219.946 300.345L225.928 299.465Z" fill="black"/>
<path d="M229.12 303.705L218.062 305.77C218.062 305.77 212.693 298.104 211.679 292.66C210.625 286.992 211.752 267.695 211.679 267.439C208.552 256.88 200.054 229.518 195.951 219.45C193.679 213.87 192.084 210.113 192.084 210.113L193.233 209.855L202.259 206.158L208.836 207.398C208.836 207.398 228.824 247.815 230.919 263.02C232.483 274.372 229.12 303.705 229.12 303.705Z" fill="#407BFF"/>
<path opacity="0.3" d="M229.12 303.705L218.062 305.77C218.062 305.77 212.693 298.104 211.679 292.66C210.625 286.992 211.752 267.695 211.679 267.439C208.552 256.88 200.054 229.518 195.951 219.45C193.679 213.87 192.084 210.113 192.084 210.113L193.233 209.855L202.259 206.158L208.836 207.398C208.836 207.398 228.824 247.815 230.919 263.02C232.483 274.372 229.12 303.705 229.12 303.705Z" fill="white"/>
<path opacity="0.2" d="M209.075 258.295C205.947 247.736 199.639 231.719 195.535 221.651L192.816 212.057L192.293 210.211L193.245 211.955L203.957 235.682C208.684 244.768 209.147 258.551 209.075 258.295Z" fill="black"/>
<path d="M160.543 311.026L165.869 313.27L171.554 301.073L166.228 298.829L160.543 311.026Z" fill="#E8BFBF"/>
<path d="M169.34 315.823C169.762 316.087 170.261 316.199 170.756 316.142C170.999 316.076 171.192 315.894 171.275 315.657C171.338 315.516 171.323 315.353 171.235 315.226C170.78 314.555 168.182 314.563 167.891 314.565C167.832 314.568 167.781 314.604 167.76 314.658C167.744 314.713 167.763 314.773 167.81 314.807C168.287 315.191 168.8 315.532 169.34 315.823ZM170.781 315.215C170.862 315.249 170.934 315.304 170.987 315.375C171.024 315.426 171.032 315.493 171.005 315.55C170.949 315.706 170.823 315.826 170.664 315.872C170.21 315.994 169.335 315.61 168.285 314.84C169.139 314.822 169.989 314.95 170.8 315.218L170.781 315.215Z" fill="#407BFF"/>
<path d="M167.831 314.831L167.882 314.841C168.641 314.879 170.424 314.379 170.623 313.744C170.653 313.592 170.663 313.375 170.341 313.166C170.114 313.006 169.83 312.95 169.559 313.012C168.639 313.219 167.813 314.556 167.777 314.608C167.747 314.646 167.737 314.696 167.75 314.742C167.761 314.783 167.792 314.815 167.831 314.831ZM170.106 313.351L170.189 313.367C170.399 313.508 170.367 313.601 170.355 313.631C170.238 314.018 168.966 314.473 168.151 314.517C168.493 313.951 169.006 313.509 169.616 313.254C169.79 313.223 169.97 313.259 170.119 313.354L170.106 313.351Z" fill="#407BFF"/>
<path d="M166.838 310.808L162.032 308.788C161.82 308.691 161.569 308.77 161.452 308.972L157.25 314.989C157.003 315.446 157.173 316.016 157.63 316.263C157.661 316.28 157.694 316.295 157.727 316.309C159.823 317.164 160.88 317.476 163.514 318.606C165.128 319.299 169.747 322.173 172.123 322.687C174.5 323.201 175.132 320.872 174.188 320.445C171.145 319.085 168.59 315.487 167.925 312.368C167.758 312.051 167.171 310.941 166.838 310.808Z" fill="#263238"/>
<path opacity="0.2" d="M171.787 301.217L168.705 307.43L163.432 305.064L166.508 298.848L171.787 301.217Z" fill="black"/>
<path d="M172.896 307.988L162.288 302.333C162.288 302.333 160.254 294.781 162.288 289.964C166.202 280.693 176.386 267.061 176.455 266.804C179.173 256.133 183.94 226.909 185.567 216.159C186.472 210.202 187.003 208.917 187.003 208.917L188.122 209.284L204.353 209.316C204.353 209.316 207.416 233.896 195.68 271.954C192.76 281.423 187.868 289.297 179.819 299.947C176.762 303.991 172.896 307.988 172.896 307.988Z" fill="#407BFF"/>
<path opacity="0.3" d="M172.896 307.988L162.288 302.333C162.288 302.333 160.254 294.781 162.288 289.964C166.202 280.693 176.386 267.061 176.455 266.804C179.173 256.133 183.94 226.909 185.567 216.159C186.472 210.202 187.003 208.917 187.003 208.917L188.122 209.284L204.353 209.316C204.353 209.316 207.416 233.896 195.68 271.954C192.76 281.423 187.868 289.297 179.819 299.947C176.762 303.991 172.896 307.988 172.896 307.988Z" fill="white"/>
<path d="M218.734 189.232C218.852 187.409 220.061 185.061 221.104 183.976C221.439 183.629 222.704 183.101 223.421 182.634C226.946 180.322 233.999 177.437 233.999 177.437L236.176 179.335C236.176 179.335 231.88 183.488 229.324 185.48C228.821 185.871 228.239 186.346 227.626 186.848C226.515 187.776 221.281 191.228 220.282 192.093L218.734 189.232Z" fill="#E8BFBF"/>
<path d="M240.205 176.364L236.179 179.339L233.92 177.676C233.92 177.676 234.842 176.501 235.789 175.592C236.205 175.192 236.429 174.642 236.435 174.065C236.443 173.179 236.576 172.15 237.058 171.395C237.07 171.377 237.076 171.359 237.088 171.347C237.961 170.032 240.001 170.428 240.414 171.949L240.995 174.095C241.224 174.943 240.911 175.843 240.205 176.364Z" fill="#E8BFBF"/>
<path d="M220.021 190.036L218.96 191.009C218.629 190.744 218.105 190.319 217.444 189.771C212.272 185.477 199.306 175.063 204.475 172.09C208.906 169.543 213.611 177.339 215.958 179.68C216.436 180.164 217.745 181.673 218.801 183.567C219.903 185.554 220.723 187.96 220.021 190.036Z" fill="#263238"/>
<path d="M218.798 182.635C216.962 183.976 215.395 185.684 214.216 187.627C215.066 190.445 217.208 192.898 219.908 194.069C221.388 190.635 222.077 186.943 221.784 183.215C220.847 183.014 219.734 182.836 218.798 182.635Z" fill="#263238"/>
<path d="M190.325 171.483C188.474 172.078 186.356 171.602 185.169 173.14C183.982 174.679 183.625 176.709 183.626 178.652C183.629 181.355 184.247 184.015 184.862 186.647C185.607 189.838 186.352 193.029 187.097 196.22C187.607 198.402 187.071 208.546 187.615 208.715C187.615 208.715 204.576 208.383 208.829 207.787C208.829 207.787 209.198 197.36 209.54 193.808C209.615 193.021 210.812 189.675 210.952 188.834C211.615 184.873 210.316 182.08 208.945 178.304C208.945 178.304 205.941 172.257 204.475 172.092C201.864 171.797 195.481 169.826 190.325 171.483Z" fill="#263238"/>
<path d="M189.611 176.487C189.551 176.135 186.541 170.054 183.656 174.304C179.64 180.22 179.369 187.648 179.369 187.648C179.369 187.648 176.902 194.871 178.621 196.448C180.341 198.026 182.195 199.041 183.397 198.146C184.598 197.252 185.378 195.464 185.378 195.464C185.378 195.464 190.666 182.676 189.611 176.487Z" fill="#263238"/>
<path d="M189.417 169.228C188.15 170.216 188.317 172.506 189.713 173.3C189.362 174.526 189.773 175.937 190.727 176.785C191.681 177.632 193.13 177.872 194.307 177.379C193.798 178.29 194.372 179.493 195.25 180.057C196.127 180.621 197.212 180.724 198.246 180.862C199.28 181.001 200.373 181.223 201.124 181.948C202.193 180.41 203.261 178.872 204.331 177.334C204.747 176.735 205.178 176.092 205.211 175.364C205.243 174.635 204.689 173.831 203.962 173.885C204.701 173.114 204.716 171.762 203.994 170.975C203.272 170.188 201.923 170.087 201.092 170.758C201.241 170.141 200.88 169.487 200.36 169.124C199.839 168.762 199.191 168.638 198.56 168.577L189.417 169.228Z" fill="#263238"/>
<path d="M191.341 161.397C192.176 164.459 193.189 170.104 191.164 172.336C191.164 172.336 196.892 174.629 200.964 179.233C202.859 177.392 202.662 175.324 202.082 173.811C201.632 172.639 200.665 171.769 199.51 171.278C197.28 170.331 197.261 168.136 197.632 166.031L191.341 161.397Z" fill="#E8BFBF"/>
<path opacity="0.2" d="M192.589 166.611L194.696 167.183C195.598 167.428 196.541 167.483 197.466 167.347C197.458 167.801 197.376 168.764 197.662 169.273C196.452 169.856 194.405 169.456 193.501 168.39C193.127 167.974 192.793 167.132 192.589 166.611Z" fill="black"/>
<path d="M187.252 158.791C189.482 163.497 190.326 165.535 193.759 167.033C198.932 169.298 204.209 165.517 203.427 160.24C202.724 155.493 199.193 148.593 193.703 148.568C189.781 148.53 186.569 151.678 186.53 155.602C186.52 156.706 186.767 157.798 187.252 158.791Z" fill="#E8BFBF"/>
<path d="M189.703 149.803C188.078 149.044 186.058 149.663 184.705 150.853C183.328 152.065 182.49 153.759 181.687 155.407C181.25 156.303 180.809 157.211 180.607 158.187C180.404 159.163 180.463 160.231 180.979 161.084C181.484 161.92 182.425 162.469 183.397 162.526C183.956 162.559 184.611 162.963 184.792 163.493C184.96 163.986 184.88 164.519 184.802 165.031C184.726 165.527 184.653 166.044 184.808 166.52C185.068 167.312 185.915 167.792 186.744 167.873C187.573 167.953 188.397 167.713 189.196 167.476C189.702 167.325 190.211 167.412 190.605 167.765C190.703 167.853 190.784 167.959 190.845 168.075C191.093 168.547 191.813 168.473 192.02 167.981C192.746 166.256 191.689 163.498 190.115 161.393C189.28 160.276 189.326 160.561 188.998 159.205C188.725 158.077 189.138 156.899 189.643 155.854C190.318 154.46 191.184 153.101 190.916 151.437C190.803 150.733 190.348 150.104 189.703 149.803Z" fill="#263238"/>
<path d="M187.393 163.605C188.133 164.392 189.155 164.854 190.235 164.888C191.668 164.919 192.031 163.552 191.339 162.386C190.715 161.335 189.217 160.057 187.92 160.565C186.623 161.073 186.491 162.624 187.393 163.605Z" fill="#E8BFBF"/>
<path d="M196.22 157.953C196.385 158.365 196.713 158.583 196.972 158.477C197.231 158.371 197.295 157.979 197.152 157.58C197.008 157.18 196.66 156.954 196.399 157.056C196.139 157.157 196.065 157.561 196.22 157.953Z" fill="#263238"/>
<path d="M200.611 156.063C200.773 156.476 201.104 156.693 201.359 156.588C201.614 156.483 201.682 156.091 201.539 155.691C201.395 155.291 201.047 155.065 200.791 155.166C200.535 155.266 200.452 155.672 200.611 156.063Z" fill="#263238"/>
<path d="M200.678 155.237L201.512 154.584C201.512 154.584 201.331 155.513 200.678 155.237Z" fill="#263238"/>
<path d="M199.471 156.944C200.491 157.951 201.258 158.135 202.362 158.826C202.33 159.806 201.407 160.031 201.407 160.031L199.471 156.944Z" fill="#ED847E"/>
<path d="M200.942 161.953C201.132 161.881 201.316 161.794 201.493 161.692C201.55 161.662 201.572 161.59 201.541 161.533C201.54 161.531 201.539 161.529 201.538 161.527C201.504 161.47 201.432 161.447 201.371 161.476C200.441 162.016 199.307 162.076 198.325 161.636C198.264 161.604 198.188 161.627 198.155 161.689C198.122 161.75 198.145 161.827 198.207 161.859C199.069 162.255 200.054 162.289 200.942 161.953Z" fill="#263238"/>
<path d="M196.056 154.686C196.05 154.798 195.973 154.894 195.864 154.924C194.713 155.266 194.203 156.726 194.2 156.738C194.155 156.874 194.008 156.947 193.873 156.901C193.737 156.856 193.664 156.709 193.709 156.574C193.753 156.518 194.311 154.843 195.713 154.424C195.85 154.386 195.992 154.463 196.034 154.6C196.049 154.626 196.056 154.656 196.056 154.686Z" fill="#263238"/>
<path d="M201.365 153.98C201.269 154.039 201.147 154.03 201.061 153.958C200.124 153.206 198.633 153.619 198.622 153.624C198.485 153.664 198.341 153.585 198.301 153.448C198.261 153.31 198.34 153.166 198.478 153.127C198.548 153.131 200.242 152.635 201.386 153.549C201.496 153.64 201.513 153.801 201.425 153.913C201.41 153.94 201.39 153.962 201.365 153.98Z" fill="#263238"/>
<path d="M196.295 157.125L197.129 156.476C197.129 156.476 196.94 157.404 196.295 157.125Z" fill="#263238"/>
<path d="M190.061 149.017C188.75 149.122 187.507 149.867 186.796 150.973C186.319 151.715 186.151 152.843 186.856 153.373C187.186 153.621 187.621 153.666 188.033 153.702C189.859 153.862 192.11 152.452 192.11 152.452C191.407 149.47 197.663 147.162 200.747 151.781C201.653 153.139 201.408 154.124 202.915 154.751C203.624 155.047 204.559 154.965 205.013 155.585C205.766 156.613 204.318 158.353 205.238 159.236C205.867 159.839 207.294 159.609 207.382 160.477C207.423 160.885 207.156 161.475 207.548 161.594C207.766 161.66 207.965 161.462 208.106 161.284C208.445 160.853 208.794 160.402 208.91 159.867C209.027 159.331 208.836 158.686 208.337 158.459C207.954 158.285 206.941 158.48 207.01 158.895C207.092 159.395 206.663 156.942 206.855 156.015C207.023 155.208 207.794 154.508 207.56 153.718C207.311 152.874 206.308 152.537 205.439 152.408C204.569 152.279 203.582 152.174 203.047 151.475C202.45 150.695 202.721 149.581 202.53 148.618C202.286 147.392 201.264 146.438 200.117 145.941C196.639 144.432 191.258 144.646 190.061 149.017Z" fill="#263238"/>
<path d="M199.941 165.026L187.944 171.053C184 173.035 182.215 177.694 183.827 181.804L189.613 196.559C191.224 200.669 195.701 202.877 199.943 201.654L212.844 197.933C217.679 196.54 220.267 191.293 218.43 186.608L211.74 169.546C209.903 164.863 204.437 162.768 199.941 165.026ZM197.959 190.368C195.284 191.415 192.265 190.096 191.216 187.421C190.167 184.747 191.486 181.73 194.161 180.683C196.836 179.636 199.854 180.955 200.903 183.629C201.952 186.304 200.633 189.321 197.959 190.368Z" fill="#407BFF"/>
<path d="M199.941 165.026L187.944 171.053C184 173.035 182.215 177.694 183.827 181.804L189.613 196.559C191.224 200.669 195.701 202.877 199.943 201.654L212.844 197.933C217.679 196.54 220.267 191.293 218.43 186.608L211.74 169.546C209.903 164.863 204.437 162.768 199.941 165.026ZM197.959 190.368C195.284 191.415 192.265 190.096 191.216 187.421C190.167 184.747 191.486 181.73 194.161 180.683C196.836 179.636 199.854 180.955 200.903 183.629C201.952 186.304 200.633 189.321 197.959 190.368Z" fill="#407BFF"/>
<path opacity="0.1" d="M218.432 186.611L211.739 169.549C209.905 164.861 204.437 162.767 199.943 165.026L196.458 166.777L194.117 167.951L187.948 171.053C184.003 173.035 182.216 177.694 183.826 181.804L189.611 196.56C191.227 200.671 195.704 202.876 199.944 201.656L212.848 197.935C213.904 197.628 214.853 197.138 215.673 196.507C216.31 196.024 216.865 195.457 217.33 194.827C219.022 192.55 219.553 189.477 218.432 186.611ZM197.956 190.367C195.284 191.417 192.264 190.096 191.215 187.418C190.165 184.747 191.486 181.727 194.164 180.683C196.835 179.633 199.855 180.955 200.905 183.626C201.949 186.304 200.633 189.318 197.956 190.367Z" fill="white"/>
<path d="M200.065 166.149L188.813 171.801C185.114 173.659 183.441 178.029 184.952 181.884L190.379 195.722C191.89 199.577 196.089 201.648 200.068 200.501L212.167 197.012C216.701 195.704 219.129 190.784 217.406 186.391L211.132 170.388C209.409 165.995 204.281 164.03 200.065 166.149ZM191.216 187.421C190.167 184.747 191.486 181.73 194.161 180.683C196.836 179.636 199.854 180.955 200.903 183.629C201.952 186.304 200.633 189.321 197.959 190.368C195.284 191.415 192.265 190.096 191.216 187.421Z" fill="#407BFF"/>
<path opacity="0.1" d="M200.065 166.149L188.813 171.801C185.114 173.659 183.441 178.029 184.952 181.884L190.379 195.722C191.89 199.577 196.089 201.648 200.068 200.501L212.167 197.012C216.701 195.704 219.129 190.784 217.406 186.391L211.132 170.388C209.409 165.995 204.281 164.03 200.065 166.149ZM191.216 187.421C190.167 184.747 191.486 181.73 194.161 180.683C196.836 179.636 199.854 180.955 200.903 183.629C201.952 186.304 200.633 189.321 197.959 190.368C195.284 191.415 192.265 190.096 191.216 187.421Z" fill="#407BFF"/>
<path d="M255.971 160.813L255.627 161.441L255.436 161.789L254.893 162.781L255.121 165.32C255.13 165.428 255.118 165.536 255.086 165.635C255.013 165.854 254.846 166.037 254.622 166.126L249.88 167.982C249.656 168.07 249.41 168.05 249.207 167.936C249.142 167.9 249.081 167.855 249.027 167.8L246.347 165.074L246.34 165.066L242.527 166.558L243.08 167.967L239.267 169.459L240.177 171.779L237.37 172.878C237.14 172.968 236.887 172.952 236.674 172.841C236.603 172.807 236.539 172.76 236.48 172.705L234.862 171.184L231.05 172.676L231.959 174.996L227.951 176.565L228.865 178.895C229.014 179.275 228.826 179.705 228.446 179.854L217.468 184.151L212.704 172.003L252.415 156.458L253.036 156.776L255.049 157.81C256.147 158.374 256.564 159.731 255.971 160.813Z" fill="#407BFF"/>
<g opacity="0.1">
<path d="M255.971 160.813L255.627 161.441L255.436 161.789L254.893 162.781L255.121 165.32C255.13 165.428 255.118 165.536 255.086 165.635C255.013 165.854 254.846 166.037 254.622 166.126L249.88 167.982C249.656 168.07 249.41 168.05 249.207 167.936C249.142 167.9 249.081 167.855 249.027 167.8L246.347 165.074L246.34 165.066L242.527 166.558L243.08 167.967L239.267 169.459L240.177 171.779L237.37 172.878C237.14 172.968 236.887 172.952 236.674 172.841C236.603 172.807 236.539 172.76 236.48 172.705L234.862 171.184L231.05 172.676L231.959 174.996L227.951 176.565L228.865 178.895C229.014 179.275 228.826 179.705 228.446 179.854L217.468 184.151L212.704 172.003L252.415 156.458L253.036 156.776L255.049 157.81C256.147 158.374 256.564 159.731 255.971 160.813Z" fill="white"/>
</g>
<path d="M255.815 159.43L213.358 176.049L212.121 172.931L252.601 157.085L254.615 158.119C255.382 158.512 255.822 158.878 255.815 159.43Z" fill="#407BFF"/>
<path opacity="0.1" d="M255.815 159.43L213.358 176.049L212.121 172.931L252.601 157.085L254.615 158.119C255.382 158.512 255.822 158.878 255.815 159.43Z" fill="black"/>
<path d="M254.977 161.771L254.566 162.694C254.559 162.709 254.556 162.725 254.558 162.742L254.788 165.255C254.796 165.347 254.788 165.438 254.767 165.524C254.759 165.553 254.737 165.577 254.708 165.588L249.553 167.617C249.525 167.628 249.493 167.627 249.467 167.611C249.418 167.579 249.37 167.542 249.328 167.498L246.379 164.536C246.352 164.508 246.311 164.5 246.275 164.514L242.09 166.162C242.04 166.181 242.015 166.237 242.035 166.287L242.533 167.55C242.553 167.6 242.528 167.656 242.479 167.675L238.909 169.081C238.859 169.1 238.835 169.156 238.855 169.206L239.714 171.386C239.734 171.436 239.71 171.492 239.66 171.512L237.041 172.543C237.014 172.553 236.984 172.552 236.959 172.538C236.903 172.506 236.852 172.468 236.804 172.423L234.89 170.659C234.862 170.633 234.823 170.626 234.789 170.64L230.631 172.277C230.581 172.297 230.557 172.352 230.576 172.402L231.457 174.637C231.477 174.686 231.452 174.742 231.403 174.762L215.438 181.045C215.388 181.064 215.332 181.04 215.312 180.991L213.719 176.992C213.7 176.942 213.724 176.885 213.774 176.866L255.376 160.492C255.457 160.46 255.535 160.543 255.499 160.622L254.977 161.771Z" fill="#407BFF"/>
<path opacity="0.1" d="M254.977 161.771L254.566 162.694C254.559 162.709 254.556 162.725 254.558 162.742L254.788 165.255C254.796 165.347 254.788 165.438 254.767 165.524C254.759 165.553 254.737 165.577 254.708 165.588L249.553 167.617C249.525 167.628 249.493 167.627 249.467 167.611C249.418 167.579 249.37 167.542 249.328 167.498L246.379 164.536C246.352 164.508 246.311 164.5 246.275 164.514L242.09 166.162C242.04 166.181 242.015 166.237 242.035 166.287L242.533 167.55C242.553 167.6 242.528 167.656 242.479 167.675L238.909 169.081C238.859 169.1 238.835 169.156 238.855 169.206L239.714 171.386C239.734 171.436 239.71 171.492 239.66 171.512L237.041 172.543C237.014 172.553 236.984 172.552 236.959 172.538C236.903 172.506 236.852 172.468 236.804 172.423L234.89 170.659C234.862 170.633 234.823 170.626 234.789 170.64L230.631 172.277C230.581 172.297 230.557 172.352 230.576 172.402L231.457 174.637C231.477 174.686 231.452 174.742 231.403 174.762L215.438 181.045C215.388 181.064 215.332 181.04 215.312 180.991L213.719 176.992C213.7 176.942 213.724 176.885 213.774 176.866L255.376 160.492C255.457 160.46 255.535 160.543 255.499 160.622L254.977 161.771Z" fill="black"/>
<path opacity="0.3" d="M193.844 179.386C190.489 180.699 188.834 184.483 190.15 187.838C191.465 191.194 195.252 192.848 198.607 191.534C201.963 190.221 203.617 186.437 202.301 183.082C200.986 179.726 197.2 178.072 193.844 179.386ZM197.959 190.368C195.284 191.415 192.265 190.096 191.216 187.421C190.167 184.747 191.486 181.73 194.161 180.683C196.836 179.636 199.854 180.955 200.903 183.629C201.952 186.304 200.633 189.321 197.959 190.368Z" fill="white"/>
<path opacity="0.1" d="M217.328 194.821C216.862 195.452 216.307 196.018 215.671 196.501L194.115 167.945L194.098 167.921C194.098 167.921 195.997 166.966 196.427 166.683C196.427 166.706 196.439 166.736 196.456 166.771C197.399 168.794 214.343 190.792 217.328 194.821Z" fill="white"/>
<path opacity="0.1" d="M214.214 197.404C214.078 197.468 207.797 199.379 207.797 199.379L200.797 190.108C202.607 188.333 203.286 185.585 202.301 183.078C200.986 179.722 197.2 178.065 193.844 179.38C193.549 179.492 193.271 179.628 193.006 179.781L186.814 171.577C186.814 171.577 192.257 168.982 192.859 168.605C193.018 169.756 214.214 197.162 214.214 197.404Z" fill="white"/>
<path d="M188.513 152.365C187.811 153.199 187.525 154.366 187.762 155.43C187.998 156.494 188.75 157.43 189.739 157.89C190.252 158.128 190.816 158.242 191.322 158.492C191.829 158.741 192.299 159.181 192.353 159.743C192.412 160.364 191.954 160.945 191.998 161.567C192.037 162.137 192.483 162.589 192.933 162.941C193.383 163.294 193.886 163.626 194.134 164.141C194.381 164.656 194.221 165.418 193.669 165.568C193.553 165.746 193.508 166.171 193.657 166.324C193.805 166.477 194.062 166.509 194.243 166.397C195.089 165.877 195.671 164.894 195.677 163.9C195.684 162.906 195.06 161.936 194.153 161.529C193.99 161.198 194.116 160.779 194.253 160.436C194.528 159.749 194.802 159.062 195.077 158.375C195.185 158.105 195.089 157.614 194.905 157.39C194.72 157.165 194.443 157.043 194.176 156.928L192.407 156.17C191.739 155.884 189.758 153.228 192.11 152.453C191.803 151.771 191.272 151.556 190.535 151.422C189.799 151.288 188.995 151.792 188.513 152.365Z" fill="#263238"/>
<path d="M191.723 149.508C191.664 150.206 191.605 150.904 191.546 151.603C192.133 150.64 193.219 148.775 193.181 148.847C192.721 149.098 192.184 149.257 191.723 149.508Z" fill="#263238"/>
<path d="M192.517 150.655C193.336 149.897 194.155 149.14 194.975 148.382C194.342 148.145 193.577 148.322 193.112 148.812C193.126 148.76 192.746 149.924 192.517 150.655Z" fill="#263238"/>
<path d="M187.52 207.42C184.319 211.391 185.384 214.436 180.968 221.467C186.538 225.596 192.646 226.28 200.238 225.69C201.135 224.101 201.589 222.442 202.486 220.852C203.773 222.448 204.806 223.79 206.093 225.387C210.071 224.764 214.797 223.646 217.943 221.618C215.165 218.432 213.44 214.453 211.661 210.94C210.827 209.293 211.176 208.599 208.963 206.439C201.914 206.764 194.924 206.936 187.875 207.262C188.062 207.272 187.334 207.41 187.52 207.42Z" fill="#263238"/>
<path d="M188.397 206.756L187.955 208.61C187.891 208.756 188.063 208.894 188.3 208.88L207.73 208.021C207.916 208.024 208.064 207.913 208.072 207.8L208.175 205.958C208.177 205.835 208.016 205.73 207.812 205.744L188.722 206.587C188.591 206.581 188.467 206.646 188.397 206.756Z" fill="#407BFF"/>
<path d="M188.397 206.756L187.955 208.61C187.891 208.756 188.063 208.894 188.3 208.88L207.73 208.021C207.916 208.024 208.064 207.913 208.072 207.8L208.175 205.958C208.177 205.835 208.016 205.73 207.812 205.744L188.722 206.587C188.591 206.581 188.467 206.646 188.397 206.756Z" fill="#407BFF"/>
<path d="M192.676 208.883L192.112 208.907C192.005 208.906 191.915 208.859 191.923 208.792L192.074 206.398C192.076 206.33 192.172 206.269 192.285 206.266L192.85 206.235C192.957 206.237 193.046 206.284 193.039 206.357L192.887 208.745C192.881 208.813 192.784 208.879 192.676 208.883Z" fill="#263238"/>
<path d="M206.705 208.278L206.141 208.303C206.033 208.301 205.944 208.254 205.951 208.187L206.103 205.798C206.104 205.725 206.201 205.664 206.308 205.661L206.872 205.636C206.979 205.638 207.069 205.685 207.062 205.752L206.91 208.14C206.909 208.214 206.817 208.274 206.705 208.278Z" fill="#263238"/>
<path d="M195.185 197.231C195.222 197.408 196.731 199.809 197.914 199.643C197.923 199.642 197.933 199.64 197.943 199.639C198.288 199.59 198.632 199.73 198.844 200.006C199.319 200.624 199.606 200.979 199.927 201.385C200.448 202.045 201.352 202.256 202.114 201.902C202.34 201.797 202.563 201.682 202.785 201.564C203.518 201.175 203.891 200.336 203.692 199.531C203.474 198.648 203.134 197.795 202.683 197.006C202.529 196.736 202.352 196.464 202.083 196.308C201.815 196.151 199.212 195.365 198.201 195.397C197.148 195.43 196.149 196.808 195.185 197.231Z" fill="#E8BFBF"/>
<path d="M198.227 195.317C198.227 195.317 182.278 190.488 178.837 193.703C176.815 195.594 177.77 197.379 178.9 198.53C179.741 199.386 181.574 199.175 182.773 199.12L195.336 197.887L198.227 195.317Z" fill="#E8BFBF"/>
<path d="M189.062 193.111C188.975 192.248 188.307 191.531 187.531 191.144C186.754 190.757 185.875 190.642 185.014 190.533C183.01 190.279 181.006 190.025 179.002 189.771C177.985 191.058 177.253 192.826 177.284 194.466C177.316 196.106 177.934 197.729 179 198.976C179.959 197.122 181.223 195.214 183.096 194.293C184.969 193.372 187.008 192.739 189.062 193.111Z" fill="#263238"/>
<path opacity="0.1" d="M184.95 163.98C184.932 163.944 184.932 163.926 184.95 163.92C185.076 163.884 185.058 163.908 184.95 163.98Z" fill="white"/>
<path d="M224.573 138.158L229.017 146.398L247.148 131.002C247.307 130.866 247.123 130.621 246.948 130.736L229.951 141.955L227.331 136.844L224.573 138.158Z" fill="#407BFF"/>
<path d="M253.179 138.197C253.179 145.54 245.471 151.49 235.964 151.49C232.313 151.49 228.934 150.617 226.15 149.113L216.043 153.507L222.423 146.4C220.123 144.147 218.749 141.299 218.749 138.196C218.749 130.853 226.457 124.903 235.964 124.903C245.471 124.904 253.179 130.855 253.179 138.197Z" stroke="#407BFF" stroke-width="1.3" stroke-miterlimit="10"/>
</svg>
