<svg width="390" height="400" viewBox="0 0 390 400" fill="none" xmlns="http://www.w3.org/2000/svg">
<path d="M344 301.439H44V301.589H344V301.439Z" fill="#EBEBEB"/>
<path d="M313.941 311.096H294.067V311.246H313.941V311.096Z" fill="#EBEBEB"/>
<path d="M242.732 312.725H237.516V312.875H242.732V312.725Z" fill="#EBEBEB"/>
<path d="M293.467 305.525H281.952V305.675H293.467V305.525Z" fill="#EBEBEB"/>
<path d="M101.391 306.533H75.4753V306.683H101.391V306.533Z" fill="#EBEBEB"/>
<path d="M110.533 306.533H106.734V306.683H110.533V306.533Z" fill="#EBEBEB"/>
<path d="M179.088 309.067H122.883V309.217H179.088V309.067Z" fill="#EBEBEB"/>
<path d="M186.208 274.68H70.349C68.4608 274.68 66.9242 273.143 66.9242 271.255V108.396C66.9242 106.508 68.4608 104.971 70.349 104.971H186.208C188.096 104.971 189.633 106.508 189.633 108.396V271.255C189.633 273.143 188.096 274.68 186.208 274.68ZM70.349 105.122C68.543 105.122 67.0742 106.591 67.0742 108.397V271.256C67.0742 273.062 68.543 274.531 70.349 274.531H186.208C188.014 274.531 189.483 273.062 189.483 271.256V108.396C189.483 106.591 188.014 105.121 186.208 105.121L70.349 105.122Z" fill="#EBEBEB"/>
<path d="M315.986 274.68H200.127C198.239 274.68 196.703 273.143 196.703 271.255V108.396C196.703 106.508 198.24 104.971 200.127 104.971H315.986C317.875 104.971 319.411 106.508 319.411 108.396V271.255C319.411 273.143 317.875 274.68 315.986 274.68ZM200.127 105.122C198.322 105.122 196.853 106.591 196.853 108.397V271.256C196.853 273.062 198.322 274.531 200.127 274.531H315.986C317.792 274.531 319.261 273.062 319.261 271.256V108.396C319.261 106.591 317.792 105.121 315.986 105.121L200.127 105.122Z" fill="#EBEBEB"/>
<path d="M189.404 176.326H104.213V301.228H189.404V176.326Z" fill="#F0F0F0"/>
<path d="M186.393 180.258H107.224V203.326H186.393V180.258Z" fill="#E0E0E0"/>
<path d="M111.721 183.992H107.224V203.326H111.721V183.992Z" fill="#EBEBEB"/>
<path d="M133.468 183.992H128.97V203.326H133.468V183.992Z" fill="#EBEBEB"/>
<path d="M158.153 183.518L153.721 184.282L157.004 203.336L161.436 202.572L158.153 183.518Z" fill="#EBEBEB"/>
<path d="M117.294 186.54H112.797V203.326H117.294V186.54Z" fill="#EBEBEB"/>
<path d="M127.631 186.54H123.134V203.326H127.631V186.54Z" fill="#EBEBEB"/>
<path d="M153.723 186.54H149.226V203.326H153.723V186.54Z" fill="#EBEBEB"/>
<path d="M139.374 185.967L134.984 186.942L138.625 203.328L143.015 202.353L139.374 185.967Z" fill="#EBEBEB"/>
<path d="M121.183 183.032H118.935V203.326H121.183V183.032Z" fill="#EBEBEB"/>
<path d="M147.933 183.032H145.684V203.326H147.933V183.032Z" fill="#EBEBEB"/>
<path d="M107.225 230.047H186.393V206.979H107.225V230.047Z" fill="#E0E0E0"/>
<path d="M181.896 230.047H186.393V210.714H181.896V230.047Z" fill="#EBEBEB"/>
<path d="M160.149 230.047H164.647V210.714H160.149V230.047Z" fill="#EBEBEB"/>
<path d="M132.171 229.282L136.603 230.046L139.886 210.993L135.454 210.229L132.171 229.282Z" fill="#EBEBEB"/>
<path d="M176.323 230.046H180.821V213.261H176.323V230.046Z" fill="#EBEBEB"/>
<path d="M165.986 230.046H170.483V213.261H165.986V230.046Z" fill="#EBEBEB"/>
<path d="M139.894 230.046H144.391V213.261H139.894V230.046Z" fill="#EBEBEB"/>
<path d="M150.603 229.07L154.993 230.045L158.633 213.659L154.243 212.684L150.603 229.07Z" fill="#EBEBEB"/>
<path d="M172.434 230.046H174.683V209.753H172.434V230.046Z" fill="#EBEBEB"/>
<path d="M145.684 230.046H147.933V209.753H145.684V230.046Z" fill="#EBEBEB"/>
<path d="M111.721 210.713H107.224V230.046H111.721V210.713Z" fill="#EBEBEB"/>
<path d="M117.294 213.261H112.797V230.047H117.294V213.261Z" fill="#EBEBEB"/>
<path d="M127.631 213.261H123.134V230.047H127.631V213.261Z" fill="#EBEBEB"/>
<path d="M121.183 209.753H118.935V230.047H121.183V209.753Z" fill="#EBEBEB"/>
<path d="M186.393 233.699H107.224V256.768H186.393V233.699Z" fill="#E0E0E0"/>
<path d="M157.162 237.434H152.664V256.768H157.162V237.434Z" fill="#EBEBEB"/>
<path d="M181.845 236.962L177.413 237.726L180.696 256.779L185.128 256.015L181.845 236.962Z" fill="#EBEBEB"/>
<path d="M140.988 239.981H136.491V256.767H140.988V239.981Z" fill="#EBEBEB"/>
<path d="M151.325 239.981H146.828V256.767H151.325V239.981Z" fill="#EBEBEB"/>
<path d="M177.417 239.981H172.92V256.767H177.417V239.981Z" fill="#EBEBEB"/>
<path d="M163.069 239.407L158.679 240.383L162.319 256.769L166.709 255.793L163.069 239.407Z" fill="#EBEBEB"/>
<path d="M144.877 236.474H142.629V256.767H144.877V236.474Z" fill="#EBEBEB"/>
<path d="M171.627 236.474H169.378V256.767H171.627V236.474Z" fill="#EBEBEB"/>
<path d="M130.104 236.96L125.671 237.723L128.954 256.777L133.387 256.013L130.104 236.96Z" fill="#EBEBEB"/>
<path d="M125.677 239.981H121.18V256.767H125.677V239.981Z" fill="#EBEBEB"/>
<path d="M111.328 239.407L106.938 240.383L110.579 256.769L114.969 255.793L111.328 239.407Z" fill="#EBEBEB"/>
<path d="M119.887 236.474H117.638V256.767H119.887V236.474Z" fill="#EBEBEB"/>
<path d="M89.5161 301.555H104.213L104.213 176.326H89.5161L89.5161 301.555Z" fill="#E0E0E0"/>
<path d="M239.262 298.286H226.775L233.34 244.822C233.618 242.559 235.677 240.724 237.941 240.724H242.232H292.426L284.439 298.286H239.262Z" fill="#F5F5F5"/>
<path d="M278.866 298.286H291.353L297.918 244.822C298.195 242.559 296.586 240.724 294.323 240.724H290.032C287.769 240.724 285.709 242.559 285.431 244.822L278.866 298.286Z" fill="#F0F0F0"/>
<path d="M274.266 298.223L276.528 272.364C276.629 271.209 277.522 270.281 278.672 270.134L279.603 270.015C281.145 269.818 282.342 268.573 282.478 267.023L282.891 262.309C283.06 260.376 281.537 258.714 279.597 258.714H300.465C302.405 258.714 303.929 260.376 303.759 262.309L303.347 267.023C303.211 268.573 302.014 269.818 300.471 270.015L299.541 270.134C298.391 270.281 297.498 271.209 297.398 272.364L295.135 298.223C294.97 300.109 293.391 301.555 291.499 301.555H270.63C272.522 301.555 274.101 300.109 274.266 298.223Z" fill="#E6E6E6"/>
<path d="M216.837 265.89C216.481 261.829 213.081 258.713 209.005 258.713H219.102H227.172C231.249 258.713 234.649 261.829 235.004 265.89L236.797 286.389H218.629L216.837 265.89Z" fill="#E6E6E6"/>
<path d="M200.934 258.713H209.004C213.081 258.713 216.481 261.829 216.836 265.89L218.63 286.388H261.9L263.693 265.889C264.048 261.829 267.449 258.713 271.525 258.713H279.595C281.535 258.713 283.058 260.375 282.889 262.307L282.476 267.022C282.34 268.571 281.144 269.817 279.601 270.014L278.67 270.133C277.52 270.28 276.628 271.208 276.527 272.363L274.264 298.222C274.099 300.107 272.52 301.554 270.628 301.554H209.901C208.008 301.554 206.43 300.107 206.265 298.222L204.002 272.363C203.901 271.208 203.008 270.28 201.859 270.133L200.928 270.014C199.386 269.817 198.189 268.571 198.053 267.022L197.64 262.307C197.471 260.376 198.995 258.713 200.934 258.713Z" fill="#F0F0F0"/>
<path d="M105.295 170.086C105.295 170.086 104.631 165.704 107.827 162.895C111.022 160.085 110.742 158.414 109.828 158.196C108.915 157.978 108.072 160.787 106.668 161.56C106.668 161.56 106.623 157.556 108.05 156.082C109.477 154.607 110.226 150.807 108.868 150.74C107.51 150.673 107.37 152.997 107.089 154.645C106.808 156.292 105.295 158.61 105.295 158.61C105.295 158.61 105 155.027 104.077 153.553C103.155 152.078 105.614 148.706 104.665 147.231C103.717 145.756 102.031 148.565 102.172 151.726C102.312 154.887 104.419 158.258 103.928 161.56C103.928 161.56 102.999 159.242 102.164 159.031C101.329 158.821 100.486 157.288 99.9249 156.719C99.3627 156.151 98.6607 158.118 99.9249 159.944C101.189 161.771 104.42 166.657 103.929 170.605L105.295 170.086Z" fill="#E6E6E6"/>
<path d="M107.206 168.093L108.252 174.661C108.576 176.689 107.008 178.525 104.955 178.525H103.838C101.784 178.525 100.217 176.689 100.54 174.661L101.587 168.093H107.206Z" fill="#E6E6E6"/>
<path d="M170.033 177.236H173.293V163.225H170.033V177.236Z" fill="#EBEBEB"/>
<path d="M154.275 177.236H157.534V163.225H154.275V177.236Z" fill="#EBEBEB"/>
<path d="M133.998 176.684L137.21 177.238L139.589 163.43L136.377 162.877L133.998 176.684Z" fill="#EBEBEB"/>
<path d="M165.995 177.236H169.255V165.072H165.995V177.236Z" fill="#EBEBEB"/>
<path d="M158.504 177.236H161.763V165.072H158.504V177.236Z" fill="#EBEBEB"/>
<path d="M139.596 177.236H142.855V165.072H139.596V177.236Z" fill="#EBEBEB"/>
<path d="M147.354 176.529L150.535 177.236L153.174 165.361L149.992 164.654L147.354 176.529Z" fill="#EBEBEB"/>
<path d="M163.177 177.236H164.807V162.529H163.177V177.236Z" fill="#EBEBEB"/>
<path d="M143.792 177.236H145.421V162.529H143.792V177.236Z" fill="#EBEBEB"/>
<path d="M132.168 166.115H116.287V177.079H132.168V166.115Z" fill="#EBEBEB"/>
<path d="M186.639 170.606H173.335V178.791H186.639V170.606Z" fill="#EBEBEB"/>
<path d="M183.528 163.411H176.876V171.596H183.528V163.411Z" fill="#EBEBEB"/>
<path d="M294.688 152.582H278.866V218.513H294.688V152.582Z" fill="#E0E0E0"/>
<path d="M233.819 218.686H292.99V152.581H233.819V218.686Z" fill="#E0E0E0"/>
<path d="M231.911 218.686H293.303V152.581H231.911V218.686Z" fill="#F0F0F0"/>
<path d="M234.533 215.649H290.78V154.69H234.533V215.649Z" fill="white"/>
<path d="M234.533 215.649H235.577V154.69H234.533V215.649Z" fill="#E0E0E0"/>
<path d="M235.401 198.526V200.17H290.926V198.526H235.401Z" fill="#E0E0E0"/>
<path d="M234.533 198.526H291.661V195.766H234.533V198.526Z" fill="#F0F0F0"/>
<path d="M194 328.537C258.249 328.537 310.333 325.495 310.333 321.743C310.333 317.991 258.249 314.949 194 314.949C129.751 314.949 77.6666 317.991 77.6666 321.743C77.6666 325.495 129.751 328.537 194 328.537Z" fill="#F5F5F5"/>
<path d="M237.173 298.877H129.821C127.397 298.877 125.431 296.912 125.431 294.487V168.084C125.431 165.66 127.396 163.694 129.821 163.694H237.172C239.596 163.694 241.562 165.659 241.562 168.084V294.487C241.563 296.911 239.597 298.877 237.173 298.877Z" fill="#407BFF"/>
<path opacity="0.6" d="M237.173 298.877H129.821C127.397 298.877 125.431 296.912 125.431 294.487V168.084C125.431 165.66 127.396 163.694 129.821 163.694H237.172C239.596 163.694 241.562 165.659 241.562 168.084V294.487C241.563 296.911 239.597 298.877 237.173 298.877Z" fill="white"/>
<path d="M222.748 225.688H144.246V239.13H222.748V225.688Z" fill="white"/>
<g opacity="0.4">
<path d="M151.266 233.717V234.069H148.542V230.217H151.183V230.569H148.949V231.94H150.941V232.286H148.949V233.717H151.266Z" fill="#263238"/>
<path d="M151.816 232.408H153.258V232.748H151.816V232.408Z" fill="#263238"/>
<path d="M158.909 232.391V234.069H158.518V232.429C158.518 231.818 158.21 231.505 157.687 231.505C157.093 231.505 156.719 231.89 156.719 232.55V234.069H156.328V232.429C156.328 231.818 156.02 231.505 155.492 231.505C154.903 231.505 154.524 231.89 154.524 232.55V234.069H154.133V231.175H154.507V231.703C154.711 231.356 155.085 231.153 155.569 231.153C156.048 231.153 156.422 231.356 156.598 231.764C156.808 231.39 157.221 231.153 157.743 231.153C158.447 231.153 158.909 231.56 158.909 232.391Z" fill="#263238"/>
<path d="M162.156 232.275V234.069H161.781V233.618C161.605 233.915 161.264 234.097 160.785 234.097C160.131 234.097 159.729 233.755 159.729 233.255C159.729 232.809 160.015 232.435 160.846 232.435H161.764V232.259C161.764 231.764 161.484 231.494 160.945 231.494C160.57 231.494 160.218 231.626 159.982 231.835L159.806 231.544C160.098 231.296 160.527 231.154 160.983 231.154C161.732 231.153 162.156 231.527 162.156 232.275ZM161.765 233.2V232.726H160.857C160.296 232.726 160.114 232.946 160.114 233.243C160.114 233.579 160.384 233.788 160.846 233.788C161.286 233.788 161.611 233.579 161.765 233.2Z" fill="#263238"/>
<path d="M163.13 230.261C163.13 230.113 163.257 229.987 163.416 229.987C163.576 229.987 163.702 230.108 163.702 230.256C163.702 230.416 163.581 230.542 163.416 230.542C163.257 230.542 163.13 230.415 163.13 230.261ZM163.218 231.175H163.608V234.069H163.218V231.175Z" fill="#263238"/>
<path d="M164.698 229.986H165.088V234.069H164.698V229.986Z" fill="#263238"/>
</g>
<path d="M222.748 244.05H144.246V257.492H222.748V244.05Z" fill="white"/>
<g opacity="0.4">
<path d="M151.558 249.92C151.558 250.74 150.964 251.235 149.984 251.235H148.95V252.451H148.542V248.599H149.984C150.964 248.6 151.558 249.095 151.558 249.92ZM151.15 249.92C151.15 249.304 150.744 248.952 149.973 248.952H148.95V250.877H149.973C150.744 250.877 151.15 250.525 151.15 249.92Z" fill="#263238"/>
<path d="M154.513 250.658V252.451H154.138V252C153.962 252.297 153.621 252.479 153.142 252.479C152.488 252.479 152.086 252.138 152.086 251.637C152.086 251.192 152.372 250.817 153.203 250.817H154.122V250.641C154.122 250.146 153.841 249.877 153.302 249.877C152.928 249.877 152.576 250.009 152.339 250.217L152.163 249.926C152.455 249.679 152.884 249.536 153.34 249.536C154.089 249.535 154.513 249.91 154.513 250.658ZM154.122 251.582V251.109H153.214C152.653 251.109 152.472 251.329 152.472 251.626C152.472 251.961 152.741 252.17 153.204 252.17C153.643 252.17 153.968 251.961 154.122 251.582Z" fill="#263238"/>
<path d="M155.173 252.121L155.349 251.813C155.58 251.995 155.971 252.137 156.378 252.137C156.928 252.137 157.154 251.95 157.154 251.664C157.154 250.91 155.278 251.504 155.278 250.36C155.278 249.887 155.685 249.535 156.423 249.535C156.796 249.535 157.204 249.639 157.446 249.804L157.276 250.118C157.023 249.942 156.72 249.871 156.423 249.871C155.9 249.871 155.67 250.074 155.67 250.349C155.67 251.131 157.546 250.541 157.546 251.653C157.546 252.154 157.106 252.479 156.352 252.479C155.872 252.479 155.41 252.325 155.173 252.121Z" fill="#263238"/>
<path d="M157.864 252.121L158.04 251.813C158.271 251.995 158.662 252.137 159.069 252.137C159.619 252.137 159.846 251.95 159.846 251.664C159.846 250.91 157.969 251.504 157.969 250.36C157.969 249.887 158.377 249.535 159.114 249.535C159.489 249.535 159.895 249.639 160.138 249.804L159.967 250.118C159.714 249.942 159.412 249.871 159.115 249.871C158.592 249.871 158.361 250.074 158.361 250.349C158.361 251.131 160.237 250.541 160.237 251.653C160.237 252.154 159.798 252.479 159.043 252.479C158.563 252.479 158.1 252.325 157.864 252.121Z" fill="#263238"/>
<path d="M165.149 249.557L164.054 252.451H163.686L162.772 250.08L161.859 252.451H161.49L160.401 249.557H160.774L161.682 252.017L162.612 249.557H162.948L163.872 252.017L164.791 249.557H165.149Z" fill="#263238"/>
<path d="M165.364 251.004C165.364 250.145 165.991 249.535 166.839 249.535C167.686 249.535 168.308 250.146 168.308 251.004C168.308 251.863 167.686 252.479 166.839 252.479C165.991 252.479 165.364 251.863 165.364 251.004ZM167.912 251.004C167.912 250.327 167.455 249.876 166.839 249.876C166.223 249.876 165.761 250.327 165.761 251.004C165.761 251.681 166.224 252.132 166.839 252.132C167.455 252.132 167.912 251.681 167.912 251.004Z" fill="#263238"/>
<path d="M170.564 249.535V249.915C170.531 249.915 170.498 249.91 170.47 249.91C169.865 249.91 169.497 250.295 169.497 250.976V252.451H169.106V249.557H169.48V250.124C169.662 249.738 170.031 249.535 170.564 249.535Z" fill="#263238"/>
<path d="M173.882 248.368V252.451H173.508V251.879C173.271 252.269 172.87 252.479 172.391 252.479C171.565 252.479 170.949 251.879 170.949 251.004C170.949 250.129 171.565 249.535 172.391 249.535C172.853 249.535 173.25 249.733 173.491 250.108V248.369H173.882V248.368ZM173.497 251.004C173.497 250.327 173.035 249.876 172.424 249.876C171.808 249.876 171.346 250.327 171.346 251.004C171.346 251.681 171.808 252.132 172.424 252.132C173.035 252.132 173.497 251.681 173.497 251.004Z" fill="#263238"/>
</g>
<path opacity="0.2" d="M222.748 271.202H144.246V284.644H222.748V271.202Z" fill="black"/>
<g opacity="0.5">
<path d="M163.338 265.024H162.056L161.78 265.639H161.527L162.579 263.338H162.819L163.87 265.639H163.614L163.338 265.024ZM163.249 264.827L162.697 263.591L162.145 264.827H163.249Z" fill="black"/>
<path d="M164.204 263.2H164.438V265.639H164.204V263.2Z" fill="black"/>
<path d="M165.96 263.897V264.124C165.94 264.124 165.92 264.12 165.904 264.12C165.542 264.12 165.322 264.35 165.322 264.758V265.639H165.089V263.91H165.312V264.248C165.421 264.019 165.641 263.897 165.96 263.897Z" fill="black"/>
<path d="M167.87 264.847H166.424C166.45 265.208 166.726 265.448 167.104 265.448C167.315 265.448 167.502 265.373 167.634 265.222L167.765 265.373C167.611 265.557 167.371 265.655 167.098 265.655C166.559 265.655 166.191 265.288 166.191 264.775C166.191 264.262 166.549 263.897 167.035 263.897C167.522 263.897 167.874 264.255 167.874 264.775C167.874 264.794 167.87 264.82 167.87 264.847ZM166.424 264.673H167.65C167.62 264.334 167.374 264.097 167.035 264.097C166.7 264.097 166.453 264.334 166.424 264.673Z" fill="black"/>
<path d="M169.607 264.567V265.639H169.384V265.369C169.279 265.547 169.075 265.655 168.789 265.655C168.397 265.655 168.157 265.451 168.157 265.153C168.157 264.886 168.328 264.663 168.825 264.663H169.374V264.558C169.374 264.262 169.206 264.101 168.884 264.101C168.66 264.101 168.45 264.179 168.309 264.305L168.204 264.13C168.378 263.983 168.634 263.897 168.907 263.897C169.354 263.897 169.607 264.12 169.607 264.567ZM169.374 265.12V264.836H168.831C168.496 264.836 168.387 264.968 168.387 265.146C168.387 265.346 168.549 265.471 168.825 265.471C169.087 265.471 169.281 265.346 169.374 265.12Z" fill="black"/>
<path d="M171.826 263.2V265.639H171.603V265.297C171.462 265.531 171.222 265.655 170.936 265.655C170.443 265.655 170.075 265.297 170.075 264.775C170.075 264.252 170.443 263.897 170.936 263.897C171.212 263.897 171.448 264.015 171.594 264.238V263.2H171.826ZM171.597 264.775C171.597 264.37 171.321 264.101 170.956 264.101C170.587 264.101 170.311 264.37 170.311 264.775C170.311 265.179 170.587 265.448 170.956 265.448C171.321 265.448 171.597 265.179 171.597 264.775Z" fill="black"/>
<path d="M173.932 263.91L173.068 265.846C172.923 266.185 172.739 266.293 172.493 266.293C172.332 266.293 172.177 266.241 172.072 266.135L172.18 265.961C172.266 266.047 172.371 266.093 172.496 266.093C172.65 266.093 172.756 266.021 172.854 265.804L172.93 265.636L172.157 263.911H172.4L173.051 265.38L173.702 263.911H173.932V263.91Z" fill="black"/>
<path d="M176.428 264.567V265.639H176.205V265.369C176.1 265.547 175.896 265.655 175.609 265.655C175.218 265.655 174.978 265.451 174.978 265.153C174.978 264.886 175.149 264.663 175.645 264.663H176.194V264.558C176.194 264.262 176.027 264.101 175.705 264.101C175.481 264.101 175.271 264.179 175.13 264.305L175.025 264.13C175.199 263.983 175.456 263.897 175.728 263.897C176.175 263.897 176.428 264.12 176.428 264.567ZM176.195 265.12V264.836H175.653C175.317 264.836 175.209 264.968 175.209 265.146C175.209 265.346 175.37 265.471 175.646 265.471C175.909 265.471 176.103 265.346 176.195 265.12Z" fill="black"/>
<path d="M180.778 264.636V265.639H180.545V264.659C180.545 264.295 180.361 264.107 180.049 264.107C179.694 264.107 179.47 264.337 179.47 264.731V265.639H179.237V264.659C179.237 264.295 179.053 264.107 178.737 264.107C178.386 264.107 178.159 264.337 178.159 264.731V265.639H177.925V263.909H178.149V264.225C178.27 264.018 178.494 263.896 178.783 263.896C179.069 263.896 179.292 264.018 179.397 264.261C179.522 264.037 179.769 263.896 180.081 263.896C180.502 263.897 180.778 264.14 180.778 264.636Z" fill="black"/>
<path d="M182.927 264.847H181.481C181.507 265.208 181.783 265.448 182.161 265.448C182.371 265.448 182.559 265.373 182.691 265.222L182.822 265.373C182.668 265.557 182.428 265.655 182.155 265.655C181.616 265.655 181.248 265.288 181.248 264.775C181.248 264.262 181.606 263.897 182.092 263.897C182.579 263.897 182.931 264.255 182.931 264.775C182.93 264.794 182.927 264.82 182.927 264.847ZM181.481 264.673H182.707C182.677 264.334 182.431 264.097 182.092 264.097C181.757 264.097 181.51 264.334 181.481 264.673Z" fill="black"/>
<path d="M186.261 264.636V265.639H186.028V264.659C186.028 264.295 185.844 264.107 185.532 264.107C185.176 264.107 184.953 264.337 184.953 264.731V265.639H184.72V264.659C184.72 264.295 184.536 264.107 184.22 264.107C183.868 264.107 183.642 264.337 183.642 264.731V265.639H183.408V263.909H183.631V264.225C183.753 264.018 183.976 263.896 184.266 263.896C184.552 263.896 184.775 264.018 184.88 264.261C185.005 264.037 185.251 263.896 185.563 263.896C185.985 263.897 186.261 264.14 186.261 264.636Z" fill="black"/>
<path d="M188.65 264.775C188.65 265.297 188.282 265.655 187.789 265.655C187.503 265.655 187.263 265.531 187.122 265.297V265.639H186.898V263.2H187.132V264.238C187.276 264.015 187.513 263.897 187.789 263.897C188.281 263.897 188.65 264.252 188.65 264.775ZM188.416 264.775C188.416 264.37 188.137 264.101 187.772 264.101C187.404 264.101 187.128 264.37 187.128 264.775C187.128 265.179 187.404 265.448 187.772 265.448C188.137 265.448 188.416 265.179 188.416 264.775Z" fill="black"/>
<path d="M190.634 264.847H189.188C189.214 265.208 189.49 265.448 189.868 265.448C190.079 265.448 190.266 265.373 190.397 265.222L190.529 265.373C190.374 265.557 190.134 265.655 189.861 265.655C189.323 265.655 188.954 265.288 188.954 264.775C188.954 264.262 189.312 263.897 189.799 263.897C190.286 263.897 190.637 264.255 190.637 264.775C190.637 264.794 190.634 264.82 190.634 264.847ZM189.188 264.673H190.413C190.384 264.334 190.137 264.097 189.799 264.097C189.464 264.097 189.217 264.334 189.188 264.673Z" fill="black"/>
<path d="M191.985 263.897V264.124C191.965 264.124 191.946 264.12 191.929 264.12C191.568 264.12 191.347 264.35 191.347 264.758V265.639H191.114V263.91H191.338V264.248C191.446 264.019 191.666 263.897 191.985 263.897Z" fill="black"/>
<path d="M193.498 263.927C193.498 263.69 193.304 263.525 192.969 263.525C192.69 263.525 192.486 263.617 192.341 263.792L192.167 263.66C192.345 263.443 192.618 263.318 192.986 263.318C193.446 263.318 193.742 263.539 193.742 263.89C193.742 264.452 193.14 264.478 193.14 264.949H192.897C192.897 264.406 193.498 264.357 193.498 263.927ZM192.848 265.484C192.848 265.39 192.923 265.317 193.019 265.317C193.118 265.317 193.193 265.39 193.193 265.484C193.193 265.576 193.117 265.655 193.019 265.655C192.923 265.655 192.848 265.576 192.848 265.484Z" fill="black"/>
<path d="M195.123 263.338H195.656V265.205H196.809V265.639H195.123V263.338Z" fill="black"/>
<path d="M196.929 264.755C196.929 264.222 197.34 263.844 197.902 263.844C198.465 263.844 198.872 264.222 198.872 264.755C198.872 265.288 198.465 265.666 197.902 265.666C197.34 265.665 196.929 265.288 196.929 264.755ZM198.352 264.755C198.352 264.449 198.159 264.265 197.902 264.265C197.646 264.265 197.448 264.449 197.448 264.755C197.448 265.061 197.646 265.244 197.902 265.244C198.159 265.244 198.352 265.061 198.352 264.755Z" fill="black"/>
<path d="M201.039 263.87V265.343C201.039 266 200.685 266.303 200.047 266.303C199.711 266.303 199.386 266.221 199.179 266.06L199.383 265.692C199.534 265.813 199.781 265.892 200.007 265.892C200.369 265.892 200.527 265.728 200.527 265.409V265.333C200.392 265.481 200.198 265.553 199.968 265.553C199.479 265.553 199.084 265.215 199.084 264.699C199.084 264.183 199.478 263.844 199.968 263.844C200.215 263.844 200.419 263.927 200.553 264.097V263.87H201.039ZM200.533 264.699C200.533 264.439 200.339 264.265 200.07 264.265C199.8 264.265 199.603 264.439 199.603 264.699C199.603 264.959 199.8 265.133 200.07 265.133C200.339 265.133 200.533 264.959 200.533 264.699Z" fill="black"/>
<path d="M202.386 263.338C202.386 263.177 202.513 263.052 202.704 263.052C202.895 263.052 203.023 263.17 203.023 263.329C203.023 263.499 202.895 263.624 202.704 263.624C202.514 263.624 202.386 263.499 202.386 263.338ZM202.448 263.87H202.96V265.639H202.448V263.87Z" fill="black"/>
<path d="M205.246 264.626V265.639H204.733V264.706C204.733 264.419 204.602 264.289 204.375 264.289C204.129 264.289 203.952 264.44 203.952 264.765V265.639H203.439V263.871H203.929V264.079C204.067 263.927 204.274 263.845 204.514 263.845C204.93 263.844 205.246 264.088 205.246 264.626Z" fill="black"/>
</g>
<path d="M222.748 270.379H144.246V283.821H222.748V270.379Z" fill="#407BFF"/>
<path d="M173.361 279.188L172.369 277.775C172.276 277.782 172.178 277.788 172.08 277.788H170.943V279.188H170.285V274.587H172.08C173.276 274.587 173.999 275.192 173.999 276.191C173.999 276.901 173.631 277.414 172.987 277.644L174.078 279.188H173.361ZM173.341 276.19C173.341 275.533 172.901 275.158 172.06 275.158H170.943V277.229H172.06C172.901 277.229 173.341 276.848 173.341 276.19Z" fill="white"/>
<path d="M178.111 277.657H175.284C175.363 278.268 175.856 278.675 176.547 278.675C176.954 278.675 177.296 278.537 177.552 278.255L177.901 278.662C177.585 279.031 177.105 279.227 176.527 279.227C175.402 279.227 174.653 278.485 174.653 277.446C174.653 276.414 175.396 275.671 176.402 275.671C177.408 275.671 178.124 276.394 178.124 277.466C178.123 277.518 178.117 277.597 178.111 277.657ZM175.284 277.203H177.519C177.453 276.617 177.012 276.204 176.401 276.204C175.797 276.204 175.35 276.611 175.284 277.203Z" fill="white"/>
<path d="M182.334 275.704V278.715C182.334 279.944 181.709 280.503 180.526 280.503C179.888 280.503 179.244 280.325 178.863 279.983L179.166 279.497C179.488 279.773 179.994 279.95 180.507 279.95C181.329 279.95 181.703 279.569 181.703 278.78V278.504C181.401 278.866 180.947 279.043 180.447 279.043C179.442 279.043 178.679 278.359 178.679 277.354C178.679 276.349 179.442 275.671 180.447 275.671C180.967 275.671 181.44 275.861 181.735 276.243V275.704H182.334ZM181.715 277.354C181.715 276.677 181.215 276.223 180.519 276.223C179.815 276.223 179.316 276.677 179.316 277.354C179.316 278.024 179.815 278.492 180.519 278.492C181.216 278.491 181.715 278.024 181.715 277.354Z" fill="white"/>
<path d="M183.427 274.626C183.427 274.396 183.612 274.212 183.855 274.212C184.098 274.212 184.282 274.39 184.282 274.613C184.282 274.85 184.104 275.034 183.855 275.034C183.612 275.034 183.427 274.856 183.427 274.626ZM183.539 275.704H184.17V279.188H183.539V275.704Z" fill="white"/>
<path d="M184.935 278.82L185.197 278.32C185.493 278.531 185.967 278.682 186.42 278.682C187.005 278.682 187.249 278.504 187.249 278.209C187.249 277.426 185.047 278.104 185.047 276.717C185.047 276.092 185.605 275.672 186.499 275.672C186.953 275.672 187.465 275.79 187.768 275.987L187.498 276.487C187.183 276.283 186.834 276.211 186.493 276.211C185.941 276.211 185.671 276.415 185.671 276.691C185.671 277.512 187.88 276.842 187.88 278.196C187.88 278.827 187.302 279.228 186.375 279.228C185.796 279.227 185.224 279.05 184.935 278.82Z" fill="white"/>
<path d="M190.629 278.984C190.438 279.149 190.149 279.227 189.866 279.227C189.163 279.227 188.762 278.839 188.762 278.137V276.224H188.17V275.705H188.762V274.942H189.393V275.705H190.392V276.224H189.393V278.111C189.393 278.486 189.591 278.696 189.939 278.696C190.123 278.696 190.3 278.637 190.432 278.532L190.629 278.984Z" fill="white"/>
<path d="M194.411 277.657H191.584C191.663 278.268 192.156 278.675 192.846 278.675C193.254 278.675 193.596 278.537 193.852 278.255L194.2 278.662C193.885 279.031 193.405 279.227 192.826 279.227C191.702 279.227 190.953 278.485 190.953 277.446C190.953 276.414 191.696 275.671 192.702 275.671C193.708 275.671 194.424 276.394 194.424 277.466C194.424 277.518 194.417 277.597 194.411 277.657ZM191.584 277.203H193.819C193.753 276.617 193.312 276.204 192.702 276.204C192.097 276.204 191.65 276.611 191.584 277.203Z" fill="white"/>
<path d="M197.174 275.671V276.283C197.122 276.276 197.076 276.276 197.029 276.276C196.353 276.276 195.931 276.69 195.931 277.453V279.188H195.3V275.704H195.905V276.29C196.129 275.882 196.563 275.671 197.174 275.671Z" fill="white"/>
<g opacity="0.6">
<path d="M169.756 178.565L170.022 178.003C170.397 178.342 171.037 178.586 171.685 178.586C172.555 178.586 172.93 178.248 172.93 177.809C172.93 176.579 169.879 177.356 169.879 175.485C169.879 174.708 170.483 174.046 171.807 174.046C172.397 174.046 173.009 174.205 173.427 174.493L173.189 175.069C172.75 174.788 172.254 174.658 171.807 174.658C170.951 174.658 170.584 175.018 170.584 175.457C170.584 176.687 173.635 175.918 173.635 177.767C173.635 178.537 173.017 179.199 171.685 179.199C170.914 179.198 170.159 178.939 169.756 178.565Z" fill="#263238"/>
<path d="M174.465 174.147C174.465 173.895 174.666 173.693 174.932 173.693C175.198 173.693 175.4 173.888 175.4 174.133C175.4 174.392 175.206 174.593 174.932 174.593C174.666 174.593 174.465 174.398 174.465 174.147ZM174.587 175.327H175.278V179.141H174.587V175.327Z" fill="#263238"/>
<path d="M180.244 175.327V178.622C180.244 179.968 179.56 180.58 178.265 180.58C177.567 180.58 176.862 180.386 176.444 180.011L176.775 179.479C177.128 179.781 177.682 179.975 178.243 179.975C179.143 179.975 179.553 179.558 179.553 178.694V178.392C179.223 178.788 178.726 178.982 178.179 178.982C177.078 178.982 176.243 178.234 176.243 177.133C176.243 176.032 177.078 175.291 178.179 175.291C178.747 175.291 179.265 175.499 179.589 175.916V175.327H180.244ZM179.568 177.133C179.568 176.392 179.021 175.895 178.258 175.895C177.488 175.895 176.941 176.392 176.941 177.133C176.941 177.867 177.488 178.378 178.258 178.378C179.021 178.378 179.568 177.867 179.568 177.133Z" fill="#263238"/>
<path d="M185.183 176.946V179.141H184.492V177.025C184.492 176.276 184.119 175.91 183.463 175.91C182.729 175.91 182.254 176.349 182.254 177.176V179.141H181.564V175.327H182.226V175.903C182.507 175.514 182.996 175.291 183.6 175.291C184.528 175.291 185.183 175.823 185.183 176.946Z" fill="#263238"/>
<path d="M191.958 175.327V179.141H191.304V178.565C191.023 178.961 190.548 179.183 190.008 179.183C189.023 179.183 188.367 178.644 188.367 177.521V175.326H189.058V177.442C189.058 178.19 189.432 178.564 190.087 178.564C190.806 178.564 191.267 178.118 191.267 177.298V175.326L191.958 175.327Z" fill="#263238"/>
<path d="M197.229 177.234C197.229 178.407 196.416 179.184 195.3 179.184C194.761 179.184 194.286 178.975 193.969 178.565V180.537H193.278V175.327H193.941V175.931C194.25 175.507 194.739 175.291 195.301 175.291C196.415 175.291 197.229 176.068 197.229 177.234ZM196.53 177.234C196.53 176.428 195.976 175.895 195.243 175.895C194.516 175.895 193.962 176.428 193.962 177.234C193.962 178.047 194.515 178.58 195.243 178.58C195.976 178.579 196.53 178.047 196.53 177.234Z" fill="#263238"/>
</g>
<path d="M222.748 207.326H144.246V220.768H222.748V207.326Z" fill="white"/>
<g opacity="0.4">
<path d="M148.542 211.856H148.95V215.355H151.107V215.707H148.543V211.856H148.542Z" fill="#263238"/>
<path d="M153.896 213.914V215.707H153.522V215.256C153.346 215.553 153.004 215.735 152.526 215.735C151.871 215.735 151.469 215.394 151.469 214.893C151.469 214.448 151.755 214.073 152.586 214.073H153.505V213.898C153.505 213.403 153.224 213.133 152.685 213.133C152.311 213.133 151.959 213.265 151.722 213.474L151.546 213.182C151.837 212.935 152.266 212.792 152.723 212.792C153.472 212.791 153.896 213.165 153.896 213.914ZM153.505 214.838V214.365H152.598C152.036 214.365 151.855 214.585 151.855 214.882C151.855 215.218 152.124 215.426 152.587 215.426C153.027 215.426 153.351 215.217 153.505 214.838Z" fill="#263238"/>
<path d="M154.557 215.377L154.733 215.069C154.964 215.251 155.355 215.393 155.762 215.393C156.312 215.393 156.538 215.206 156.538 214.92C156.538 214.166 154.662 214.76 154.662 213.616C154.662 213.143 155.07 212.791 155.807 212.791C156.181 212.791 156.588 212.896 156.83 213.06L156.66 213.374C156.406 213.197 156.104 213.126 155.807 213.126C155.284 213.126 155.053 213.329 155.053 213.605C155.053 214.386 156.93 213.797 156.93 214.909C156.93 215.41 156.49 215.734 155.736 215.734C155.256 215.735 154.793 215.581 154.557 215.377Z" fill="#263238"/>
<path d="M159.174 215.531C159.019 215.669 158.788 215.735 158.563 215.735C158.018 215.735 157.716 215.426 157.716 214.893V213.143H157.198V212.813H157.716V212.18H158.106V212.813H158.986V213.143H158.106V214.871C158.106 215.212 158.282 215.399 158.607 215.399C158.766 215.399 158.926 215.35 159.036 215.251L159.174 215.531Z" fill="#263238"/>
<path d="M164.626 211.856V215.707H164.29L161.815 212.582V215.707H161.407V211.856H161.743L164.225 214.981V211.856H164.626Z" fill="#263238"/>
<path d="M167.983 213.914V215.707H167.609V215.256C167.433 215.553 167.092 215.735 166.613 215.735C165.958 215.735 165.556 215.394 165.556 214.893C165.556 214.448 165.843 214.073 166.674 214.073H167.592V213.898C167.592 213.403 167.311 213.133 166.773 213.133C166.398 213.133 166.047 213.265 165.81 213.474L165.634 213.182C165.925 212.935 166.354 212.792 166.811 212.792C167.559 212.791 167.983 213.165 167.983 213.914ZM167.592 214.838V214.365H166.684C166.123 214.365 165.942 214.585 165.942 214.882C165.942 215.218 166.211 215.426 166.674 215.426C167.113 215.426 167.438 215.217 167.592 214.838Z" fill="#263238"/>
<path d="M173.821 214.029V215.707H173.43V214.068C173.43 213.457 173.122 213.143 172.599 213.143C172.005 213.143 171.631 213.529 171.631 214.189V215.707H171.24V214.068C171.24 213.457 170.932 213.143 170.404 213.143C169.815 213.143 169.435 213.529 169.435 214.189V215.707H169.045V212.813H169.419V213.341C169.622 212.995 169.996 212.791 170.481 212.791C170.959 212.791 171.333 212.995 171.51 213.403C171.719 213.028 172.132 212.791 172.654 212.791C173.359 212.791 173.821 213.198 173.821 214.029Z" fill="#263238"/>
<path d="M177.414 214.381H174.993C175.038 214.987 175.5 215.389 176.132 215.389C176.484 215.389 176.798 215.262 177.018 215.009L177.238 215.262C176.98 215.57 176.578 215.735 176.122 215.735C175.219 215.735 174.603 215.119 174.603 214.261C174.603 213.402 175.203 212.791 176.017 212.791C176.832 212.791 177.42 213.391 177.42 214.261C177.42 214.293 177.414 214.337 177.414 214.381ZM174.993 214.089H177.046C176.996 213.523 176.584 213.127 176.017 213.127C175.456 213.127 175.043 213.523 174.993 214.089Z" fill="#263238"/>
</g>
<path d="M222.748 188.965H144.246V202.406H222.748V188.965Z" fill="white"/>
<g opacity="0.4">
<path d="M148.949 193.846V195.359H150.941V195.711H148.949V197.345H148.542V193.494H151.183V193.846L148.949 193.846Z" fill="#263238"/>
<path d="M151.8 193.538C151.8 193.389 151.927 193.263 152.086 193.263C152.246 193.263 152.373 193.384 152.373 193.533C152.373 193.693 152.251 193.819 152.086 193.819C151.926 193.818 151.8 193.691 151.8 193.538ZM151.888 194.451H152.278V197.345H151.888V194.451Z" fill="#263238"/>
<path d="M154.826 194.429V194.809C154.793 194.809 154.76 194.803 154.732 194.803C154.127 194.803 153.759 195.188 153.759 195.871V197.345H153.368V194.451H153.742V195.018C153.924 194.633 154.293 194.429 154.826 194.429Z" fill="#263238"/>
<path d="M155.151 197.015L155.326 196.706C155.557 196.888 155.949 197.031 156.355 197.031C156.906 197.031 157.131 196.844 157.131 196.558C157.131 195.805 155.255 196.399 155.255 195.254C155.255 194.782 155.662 194.429 156.4 194.429C156.774 194.429 157.181 194.533 157.423 194.698L157.253 195.012C157 194.836 156.697 194.764 156.4 194.764C155.877 194.764 155.647 194.968 155.647 195.243C155.647 196.024 157.523 195.436 157.523 196.547C157.523 197.048 157.083 197.372 156.329 197.372C155.85 197.373 155.388 197.219 155.151 197.015Z" fill="#263238"/>
<path d="M159.768 197.169C159.613 197.306 159.382 197.372 159.157 197.372C158.612 197.372 158.31 197.064 158.31 196.531V194.781H157.792V194.451H158.31V193.818H158.7V194.451H159.58V194.781H158.7V196.508C158.7 196.85 158.877 197.036 159.201 197.036C159.361 197.036 159.52 196.987 159.63 196.888L159.768 197.169Z" fill="#263238"/>
<path d="M165.22 193.493V197.345H164.884L162.409 194.219V197.345H162.001V193.493H162.337L164.819 196.619V193.493H165.22Z" fill="#263238"/>
<path d="M168.577 195.551V197.345H168.203V196.894C168.027 197.191 167.686 197.373 167.207 197.373C166.552 197.373 166.15 197.032 166.15 196.531C166.15 196.085 166.437 195.712 167.268 195.712H168.186V195.535C168.186 195.04 167.905 194.77 167.367 194.77C166.992 194.77 166.64 194.902 166.404 195.112L166.228 194.82C166.519 194.572 166.948 194.429 167.405 194.429C168.153 194.429 168.577 194.803 168.577 195.551ZM168.186 196.476V196.003H167.278C166.717 196.003 166.536 196.223 166.536 196.52C166.536 196.855 166.805 197.065 167.268 197.065C167.708 197.065 168.033 196.855 168.186 196.476Z" fill="#263238"/>
<path d="M174.415 195.667V197.345H174.024V195.706C174.024 195.095 173.716 194.782 173.193 194.782C172.599 194.782 172.225 195.167 172.225 195.827V197.345H171.834V195.706C171.834 195.095 171.526 194.782 170.998 194.782C170.409 194.782 170.029 195.167 170.029 195.827V197.345H169.639V194.451H170.013V194.979C170.217 194.632 170.591 194.429 171.075 194.429C171.554 194.429 171.928 194.632 172.104 195.04C172.314 194.665 172.726 194.429 173.249 194.429C173.953 194.429 174.415 194.836 174.415 195.667Z" fill="#263238"/>
<path d="M178.009 196.019H175.588C175.632 196.625 176.094 197.026 176.727 197.026C177.079 197.026 177.393 196.9 177.613 196.646L177.833 196.9C177.574 197.207 177.172 197.373 176.716 197.373C175.814 197.373 175.198 196.757 175.198 195.898C175.198 195.04 175.797 194.429 176.612 194.429C177.426 194.429 178.015 195.029 178.015 195.898C178.014 195.931 178.009 195.975 178.009 196.019ZM175.588 195.727H177.64C177.591 195.161 177.178 194.764 176.611 194.764C176.05 194.765 175.637 195.161 175.588 195.727Z" fill="#263238"/>
</g>
<path d="M125.865 279.33C125.865 279.33 121.893 276.019 118.488 279.33C115.082 282.641 114.424 303.157 114.424 303.157" stroke="#407BFF" stroke-width="0.9446" stroke-miterlimit="10"/>
<path d="M114.142 307.118C114.142 307.118 116.484 283.042 107.668 272.924" stroke="#407BFF" stroke-width="0.9446" stroke-miterlimit="10"/>
<path d="M114.981 304.58C114.981 304.58 113.178 277.172 119.79 271.091" stroke="#407BFF" stroke-width="0.9446" stroke-miterlimit="10"/>
<path d="M114.142 304.58C114.142 304.58 113.989 286.469 109.075 283.654C104.162 280.838 101.658 290.021 101.658 290.021" stroke="#407BFF" stroke-width="0.9446" stroke-miterlimit="10"/>
<path d="M116.083 304.58C116.083 304.58 115.282 290.677 119.089 285.707C122.895 280.738 126.903 287.836 126.903 287.836" stroke="#407BFF" stroke-width="0.9446" stroke-miterlimit="10"/>
<path d="M114.757 306.443C114.757 306.443 117.219 273.926 113.145 268.417" stroke="#407BFF" stroke-width="0.9446" stroke-miterlimit="10"/>
<path d="M104.868 286.292C104.868 286.292 107.318 287.195 106.59 289.328C105.861 291.46 98.1146 294.969 98.1146 294.969C98.1146 294.969 94.8704 291.995 97.85 287.159C100.83 282.323 104.802 284.767 104.868 286.292Z" fill="#407BFF"/>
<path opacity="0.2" d="M104.868 286.292C104.868 286.292 107.318 287.195 106.59 289.328C105.861 291.46 98.1146 294.969 98.1146 294.969C98.1146 294.969 94.8704 291.995 97.85 287.159C100.83 282.323 104.802 284.767 104.868 286.292Z" fill="black"/>
<path d="M115.518 282.233C115.518 282.233 112.909 282.124 112.761 284.372C112.613 286.621 118.413 292.841 118.413 292.841C118.413 292.841 122.551 291.344 121.662 285.734C120.774 280.124 116.167 280.85 115.518 282.233Z" fill="#407BFF"/>
<path opacity="0.2" d="M115.518 282.233C115.518 282.233 112.909 282.124 112.761 284.372C112.613 286.621 118.413 292.841 118.413 292.841C118.413 292.841 122.551 291.344 121.662 285.734C120.774 280.124 116.167 280.85 115.518 282.233Z" fill="black"/>
<path d="M117.727 271.471C117.727 271.471 115.987 271.285 116.128 270.225C116.268 269.165 122.889 266.439 126.795 270.848C126.795 270.848 124.294 275.144 120.678 275.201C117.063 275.257 117.727 271.471 117.727 271.471Z" fill="#407BFF"/>
<path opacity="0.2" d="M117.727 271.471C117.727 271.471 115.987 271.285 116.128 270.225C116.268 269.165 122.889 266.439 126.795 270.848C126.795 270.848 124.294 275.144 120.678 275.201C117.063 275.257 117.727 271.471 117.727 271.471Z" fill="black"/>
<path d="M114.486 268.898C114.486 268.898 116.061 269.66 116.502 268.687C116.944 267.713 112.767 261.898 107.119 263.573C107.119 263.573 106.97 268.543 110.009 270.503C113.047 272.463 114.486 268.898 114.486 268.898Z" fill="#407BFF"/>
<path opacity="0.2" d="M114.486 268.898C114.486 268.898 116.061 269.66 116.502 268.687C116.944 267.713 112.767 261.898 107.119 263.573C107.119 263.573 106.97 268.543 110.009 270.503C113.047 272.463 114.486 268.898 114.486 268.898Z" fill="black"/>
<path d="M122.721 285.435C122.721 285.435 121.52 284.466 122.815 283.993C124.111 283.52 130.467 283.654 130.533 289.951C130.533 289.951 123.13 291.181 122.214 288.782C121.298 286.384 122.721 285.435 122.721 285.435Z" fill="#407BFF"/>
<path opacity="0.2" d="M122.721 285.435C122.721 285.435 121.52 284.466 122.815 283.993C124.111 283.52 130.467 283.654 130.533 289.951C130.533 289.951 123.13 291.181 122.214 288.782C121.298 286.384 122.721 285.435 122.721 285.435Z" fill="black"/>
<path d="M107.625 271.313C107.625 271.313 108.825 270.344 107.53 269.871C106.234 269.398 99.878 269.532 99.812 275.828C99.812 275.828 107.215 277.059 108.132 274.66C109.047 272.263 107.625 271.313 107.625 271.313Z" fill="#407BFF"/>
<path opacity="0.2" d="M107.625 271.313C107.625 271.313 108.825 270.344 107.53 269.871C106.234 269.398 99.878 269.532 99.812 275.828C99.812 275.828 107.215 277.059 108.132 274.66C109.047 272.263 107.625 271.313 107.625 271.313Z" fill="black"/>
<path d="M111.538 276.385C111.538 276.385 111.644 275.207 110.693 275.669C109.742 276.131 106.428 279.706 109.863 283.098C109.863 283.098 114.487 279.674 113.653 277.891C112.819 276.107 111.538 276.385 111.538 276.385Z" fill="#407BFF"/>
<path opacity="0.2" d="M111.538 276.385C111.538 276.385 111.644 275.207 110.693 275.669C109.742 276.131 106.428 279.706 109.863 283.098C109.863 283.098 114.487 279.674 113.653 277.891C112.819 276.107 111.538 276.385 111.538 276.385Z" fill="black"/>
<path d="M123.794 278.065C123.794 278.065 123.076 277.124 124.128 277.008C125.178 276.892 129.888 278.149 128.791 282.85C128.791 282.85 123.054 282.418 122.808 280.465C122.562 278.512 123.794 278.065 123.794 278.065Z" fill="#407BFF"/>
<path opacity="0.2" d="M123.794 278.065C123.794 278.065 123.076 277.124 124.128 277.008C125.178 276.892 129.888 278.149 128.791 282.85C128.791 282.85 123.054 282.418 122.808 280.465C122.562 278.512 123.794 278.065 123.794 278.065Z" fill="black"/>
<path d="M105.296 322.034H123.845L126.31 303.997H102.831L105.296 322.034Z" fill="#263238"/>
<path opacity="0.2" d="M105.296 322.034H123.845L126.31 303.997H102.831L105.296 322.034Z" fill="white"/>
<path d="M128.635 302.534V304.248C128.635 305.395 127.706 306.325 126.559 306.325H102.35C101.203 306.325 100.273 305.395 100.273 304.248V302.534H128.635Z" fill="#263238"/>
<path d="M283.173 131.584H265.936C263.004 131.584 260.628 133.96 260.628 136.891V151.892C260.628 154.823 263.005 157.2 265.936 157.2H270.969L269.752 161.936L274.538 157.2H283.173C286.104 157.2 288.48 154.824 288.48 151.892V136.891C288.48 133.96 286.104 131.584 283.173 131.584Z" fill="#407BFF"/>
<path opacity="0.7" d="M283.173 131.584H265.936C263.004 131.584 260.628 133.96 260.628 136.891V151.892C260.628 154.823 263.005 157.2 265.936 157.2H270.969L269.752 161.936L274.538 157.2H283.173C286.104 157.2 288.48 154.824 288.48 151.892V136.891C288.48 133.96 286.104 131.584 283.173 131.584Z" fill="white"/>
<path d="M280.601 150.377C283.942 147.036 283.942 141.62 280.601 138.279C277.26 134.938 271.844 134.938 268.503 138.279C265.162 141.62 265.162 147.036 268.503 150.377C271.844 153.718 277.26 153.718 280.601 150.377Z" fill="#407BFF"/>
<path d="M273.656 148.148C273.425 148.148 273.206 148.047 273.057 147.871L269.7 143.917C269.419 143.585 269.46 143.09 269.791 142.808C270.121 142.528 270.618 142.568 270.899 142.899L273.656 146.147L278.209 140.783C278.49 140.452 278.986 140.412 279.317 140.693C279.648 140.974 279.689 141.47 279.408 141.801L274.255 147.872C274.106 148.047 273.887 148.148 273.656 148.148Z" fill="white"/>
<path d="M280.186 224.134C280.186 224.134 269.737 222.819 253.912 227.158C253.912 227.158 251.364 198.875 251.668 194.99C251.971 191.105 276.102 192.242 276.102 192.242C276.102 192.242 276.724 203.562 278.277 210.392C279.83 217.221 280.982 222.821 280.186 224.134Z" fill="#407BFF"/>
<path opacity="0.2" d="M280.186 224.134C280.186 224.134 269.737 222.819 253.912 227.158C253.912 227.158 251.364 198.875 251.668 194.99C251.971 191.105 276.102 192.242 276.102 192.242C276.102 192.242 276.724 203.562 278.277 210.392C279.83 217.221 280.982 222.821 280.186 224.134Z" fill="black"/>
<path d="M246.277 317.773L250.537 318.979L251.551 312.349L252.097 308.803L247.837 307.597L247.111 312.349L246.277 317.773Z" fill="#E4897B"/>
<path d="M270.769 318.121L275.161 318.703L275.203 312.349L275.233 308.401L270.835 307.825L270.805 312.349L270.769 318.121Z" fill="#E4897B"/>
<path opacity="0.2" d="M270.835 307.825L270.805 312.349H275.203L275.233 308.401L270.835 307.825Z" fill="black"/>
<path opacity="0.2" d="M247.111 312.349H251.551L252.097 308.803L247.837 307.597L247.111 312.349Z" fill="black"/>
<path d="M227.365 197.286L223.136 196.036L223.908 200.866C223.908 200.866 227.748 201.753 228.122 199.755L227.365 197.286Z" fill="#E4897B"/>
<path d="M218.915 197.158L220.989 201.085L223.908 200.865L223.136 196.036L218.915 197.158Z" fill="#E4897B"/>
<path d="M233.204 198.52L226.259 196.966L225.628 200.339L231.933 201.877L233.204 198.52Z" fill="#E4897B"/>
<path d="M254.224 195.476C254.224 195.476 254.074 195.656 253.816 195.962C252.94 196.988 250.798 199.466 248.602 201.602C246.802 203.342 244.978 204.86 243.79 205.166C240.388 206.042 228.022 202.4 228.022 202.4L229.3 197.384C229.3 197.384 240.82 198.914 241.714 198.914C242.392 198.914 249.4 188.762 251.098 187.928L254.224 195.476Z" fill="#407BFF"/>
<path opacity="0.2" d="M253.816 195.962C252.94 196.988 250.798 199.466 248.602 201.602C249.046 198.086 250.336 194.858 252.034 192.818C252.214 192.602 252.394 192.422 252.574 192.29L253.816 195.962Z" fill="black"/>
<path d="M246.329 317.108L251.167 316.978C251.348 316.973 251.509 317.094 251.555 317.269L252.571 321.164C252.677 321.568 252.381 321.962 251.962 321.966C250.216 321.983 247.691 321.95 245.497 322.009C242.932 322.078 241.302 321.952 238.294 322.033C236.476 322.082 235.905 320.265 236.661 320.079C240.099 319.231 242.347 319.399 245.275 317.48C245.593 317.272 245.947 317.118 246.329 317.108Z" fill="#263238"/>
<path d="M245.915 317.729C245.911 317.731 245.906 317.732 245.901 317.733C245.193 317.894 243.93 318.102 243.428 317.687C243.277 317.561 243.205 317.393 243.213 317.184C243.219 317.06 243.275 316.962 243.376 316.901C243.906 316.583 245.717 317.44 245.922 317.537C245.962 317.557 245.986 317.599 245.981 317.643C245.977 317.682 245.951 317.715 245.915 317.729ZM243.523 317.063C243.509 317.069 243.496 317.074 243.485 317.081C243.444 317.105 243.425 317.139 243.423 317.194C243.417 317.336 243.462 317.444 243.561 317.527C243.843 317.759 244.573 317.782 245.545 317.594C244.831 317.279 243.853 316.939 243.523 317.063Z" fill="#407BFF"/>
<path d="M245.915 317.729C245.89 317.738 245.863 317.738 245.838 317.728C245.295 317.503 244.201 316.578 244.264 316.078C244.279 315.96 244.357 315.813 244.644 315.775C244.858 315.748 245.055 315.803 245.233 315.938C245.813 316.384 245.975 317.568 245.982 317.618C245.986 317.656 245.971 317.692 245.941 317.714C245.933 317.72 245.924 317.725 245.915 317.729ZM244.566 316.007C244.48 316.039 244.474 316.087 244.472 316.105C244.434 316.406 245.181 317.135 245.739 317.447C245.669 317.102 245.486 316.396 245.105 316.103C244.972 316.001 244.831 315.962 244.672 315.982C244.628 315.988 244.593 315.997 244.566 316.007Z" fill="#407BFF"/>
<path d="M270.945 317.108L275.782 316.978C275.964 316.973 276.125 317.094 276.171 317.269L277.187 321.164C277.293 321.568 276.996 321.962 276.578 321.966C274.832 321.983 272.307 321.95 270.113 322.009C267.548 322.078 265.918 321.952 262.91 322.033C261.091 322.082 260.521 320.265 261.276 320.079C264.715 319.231 266.962 319.399 269.891 317.48C270.208 317.272 270.562 317.118 270.945 317.108Z" fill="#263238"/>
<path d="M270.531 317.729C270.526 317.731 270.522 317.732 270.517 317.733C269.808 317.894 268.545 318.102 268.044 317.687C267.892 317.561 267.82 317.393 267.829 317.184C267.834 317.06 267.891 316.962 267.992 316.901C268.521 316.583 270.333 317.44 270.537 317.537C270.577 317.557 270.601 317.599 270.597 317.643C270.593 317.682 270.567 317.715 270.531 317.729ZM268.138 317.063C268.125 317.069 268.112 317.074 268.101 317.081C268.059 317.105 268.041 317.139 268.039 317.194C268.033 317.336 268.078 317.444 268.177 317.527C268.459 317.759 269.189 317.782 270.162 317.594C269.447 317.279 268.468 316.939 268.138 317.063Z" fill="#407BFF"/>
<path d="M270.531 317.729C270.506 317.738 270.478 317.738 270.453 317.728C269.91 317.503 268.816 316.578 268.879 316.078C268.894 315.96 268.972 315.813 269.26 315.775C269.473 315.748 269.671 315.803 269.848 315.938C270.429 316.384 270.591 317.568 270.597 317.618C270.602 317.656 270.587 317.692 270.557 317.714C270.549 317.72 270.54 317.725 270.531 317.729ZM269.182 316.007C269.096 316.039 269.09 316.087 269.088 316.105C269.05 316.406 269.797 317.135 270.354 317.447C270.285 317.102 270.102 316.396 269.721 316.103C269.588 316.001 269.446 315.962 269.289 315.982C269.243 315.988 269.209 315.997 269.182 316.007Z" fill="#407BFF"/>
<path d="M279.829 221.554C282.156 231.644 278.163 310.993 278.163 310.993H270.446L267.147 244.864L254.994 310.993L246.746 310.393C252.138 259.166 256.904 228.583 256.904 228.583L256.893 224.718L279.829 221.554Z" fill="#263238"/>
<path opacity="0.4" d="M246.745 310.393L254.995 310.993L264.559 258.937L267.145 244.867L270.445 310.993H278.161C278.161 310.993 282.157 231.643 279.829 221.557L256.891 224.719L256.903 228.583C256.903 228.583 252.139 259.165 246.745 310.393Z" fill="white"/>
<path d="M275.673 184.194C275.394 189.136 275.605 194.065 276.04 198.655C276.36 202.012 276.807 205.187 277.281 208.051C278.39 214.766 279.65 219.798 279.83 221.554C276.468 222.019 263.801 223.768 256.893 224.718C248.529 201.331 251.679 187.719 251.679 187.719C251.679 187.719 254.07 186.697 256.939 185.919C257.317 185.814 257.703 185.719 258.097 185.629C260.644 185.038 264.899 184.547 267.849 184.283C268.469 184.228 269.1 184.188 269.715 184.159C272.848 184.016 275.673 184.194 275.673 184.194Z" fill="#263238"/>
<path d="M263.395 173.67C263.563 176.882 263.905 182.905 266.574 184.432C266.574 184.432 264.912 187.597 261.318 187.919C258.599 188.162 258.78 185.481 258.78 185.481C260.352 184.306 259.975 182.32 258.778 180.082L263.395 173.67Z" fill="#E4897B"/>
<path opacity="0.2" d="M261.514 176.285L258.78 180.078C259.066 180.607 259.321 181.153 259.501 181.699C260.765 181.193 262.206 179.325 262.001 177.924C261.899 177.225 261.705 176.576 261.514 176.285Z" fill="black"/>
<path d="M251.697 167.211C251.172 168.876 251.46 172.297 253.786 171.185C256.113 170.072 252.598 164.349 251.697 167.211Z" fill="#263238"/>
<path d="M263.695 169.461C263.951 173.741 264.319 176.235 262.432 178.657C259.594 182.3 254.097 180.941 252.563 176.812C251.182 173.095 250.996 166.721 254.962 164.563C258.869 162.437 263.44 165.181 263.695 169.461Z" fill="#E4897B"/>
<path d="M260.695 167.134V162.353C260.695 162.353 265.784 161.975 265.558 164.579C268.377 165.977 267.044 170.363 263.258 172.513C261.183 170.852 261.42 166.853 261.42 166.853C261.196 166.952 260.95 167.045 260.695 167.134Z" fill="#263238"/>
<path d="M265.766 172.803C265.56 173.938 264.845 174.868 264.054 175.388C262.863 176.172 261.821 175.209 261.778 173.856C261.74 172.638 262.314 170.763 263.689 170.522C265.043 170.285 266.002 171.505 265.766 172.803Z" fill="#E4897B"/>
<path d="M257.376 171.371C257.418 171.718 257.268 172.019 257.041 172.044C256.815 172.069 256.597 171.809 256.554 171.463C256.512 171.117 256.662 170.816 256.888 170.791C257.115 170.765 257.334 171.025 257.376 171.371Z" fill="#263238"/>
<path d="M253.453 171.809C253.495 172.156 253.346 172.457 253.119 172.482C252.892 172.507 252.675 172.247 252.632 171.901C252.59 171.555 252.739 171.254 252.966 171.229C253.193 171.203 253.411 171.463 253.453 171.809Z" fill="#263238"/>
<path d="M254.721 171.842C254.721 171.842 254.146 173.855 253.383 174.886C254.055 175.359 255.066 174.98 255.066 174.98L254.721 171.842Z" fill="#DE5753"/>
<path d="M257.087 176.096C256.947 176.132 256.798 176.159 256.639 176.177C256.582 176.183 256.531 176.143 256.525 176.087C256.518 176.03 256.56 175.98 256.614 175.974C258.138 175.802 258.719 174.663 258.725 174.652C258.75 174.601 258.812 174.581 258.862 174.606C258.913 174.631 258.934 174.693 258.909 174.743C258.886 174.789 258.385 175.772 257.087 176.096Z" fill="#263238"/>
<path d="M258.431 169.973C258.362 169.99 258.285 169.971 258.232 169.915C257.595 169.254 256.851 169.381 256.843 169.382C256.732 169.403 256.624 169.329 256.603 169.219C256.581 169.108 256.655 169.001 256.765 168.98C256.804 168.973 257.737 168.813 258.527 169.634C258.606 169.716 258.604 169.845 258.522 169.923C258.496 169.948 258.464 169.964 258.431 169.973Z" fill="#263238"/>
<path d="M251.599 170.653C251.562 170.662 251.521 170.661 251.481 170.647C251.374 170.609 251.317 170.492 251.354 170.386C251.724 169.318 252.639 169.094 252.679 169.078C252.789 169.052 252.9 169.12 252.928 169.229C252.955 169.338 252.889 169.448 252.78 169.475C252.742 169.483 252.039 169.665 251.742 170.522C251.719 170.59 251.664 170.636 251.599 170.653Z" fill="#263238"/>
<path d="M262.954 168.91C262.954 168.91 259.971 167.816 258.585 166.076C258.585 166.076 255.862 166.788 255.304 167.896C255.304 167.896 254.359 167.104 255.067 166.076C255.067 166.076 253.029 166.506 252.625 167.896C252.625 167.896 251.608 167.547 251.668 166.076C251.668 166.076 250.76 166.418 250.473 167.896C250.473 167.896 248.22 163.208 255.653 161.863C255.653 161.863 255.066 161.615 253.912 161.566C253.912 161.566 259.097 159.473 263.211 161.39C267.326 163.307 266.574 166.986 262.954 168.91Z" fill="#263238"/>
<path d="M281.602 225.59L274.408 226.55C274.408 226.55 271.438 205.796 270.13 199.094V184.778L273.892 183.788L276.79 184.778C277.486 187.1 278.098 190.148 278.632 193.538C278.986 195.782 279.304 198.182 279.586 200.612C279.976 203.924 280.3 207.296 280.576 210.452C281.008 215.546 281.296 220.058 281.452 222.806C281.554 224.558 281.602 225.59 281.602 225.59Z" fill="#407BFF"/>
<path d="M270.13 199.093C270.13 199.093 270.728 188.996 273.893 183.787C273.893 183.787 273.814 182.296 273.181 182.059C272.548 181.821 270.13 183.245 270.13 183.245C270.13 183.245 268.623 182.217 268.291 182.692C267.96 183.166 267.159 186.377 270.13 199.093Z" fill="#407BFF"/>
<path opacity="0.7" d="M270.13 199.093C270.13 199.093 270.728 188.996 273.893 183.787C273.893 183.787 273.814 182.296 273.181 182.059C272.548 181.821 270.13 183.245 270.13 183.245C270.13 183.245 268.623 182.217 268.291 182.692C267.96 183.166 267.159 186.377 270.13 199.093Z" fill="white"/>
<path d="M253.759 228.369L254.581 228.963C254.581 228.963 253.393 222.271 253.873 205.351C253.897 204.535 253.927 203.749 253.957 202.999C254.569 188.683 256.789 186.079 256.933 185.923L254.857 186.631L251.095 187.927C249.985 200.143 253.759 228.369 253.759 228.369Z" fill="#407BFF"/>
<path d="M254.085 200.536C254.085 200.536 252.007 190.723 252.625 187.34C253.242 183.958 255.458 185.461 255.458 185.461C255.458 185.461 257.494 183.818 258.098 185.628C258.098 185.628 255.304 187.597 254.085 200.536Z" fill="#407BFF"/>
<path opacity="0.7" d="M254.085 200.536C254.085 200.536 252.007 190.723 252.625 187.34C253.242 183.958 255.458 185.461 255.458 185.461C255.458 185.461 257.494 183.818 258.098 185.628C258.098 185.628 255.304 187.597 254.085 200.536Z" fill="white"/>
<path opacity="0.2" d="M279.586 200.612C276.514 198.89 276.106 194.396 276.106 194.396C276.292 194.324 277.432 193.934 278.632 193.538C278.986 195.782 279.304 198.182 279.586 200.612Z" fill="black"/>
<path opacity="0.2" d="M264.559 258.937L267.145 244.867L266.647 237.421C266.647 237.421 263.101 250.333 264.559 258.937Z" fill="black"/>
<path opacity="0.2" d="M281.452 222.806C279.52 222.674 277.846 222.548 277.846 222.548L277.48 214.694C277.48 214.694 278.104 214.172 279.502 214.322C279.502 214.322 280.132 212.786 280.576 210.452C281.008 215.546 281.296 220.058 281.452 222.806Z" fill="black"/>
<path d="M282.111 210.445L278.349 216.485L281.325 218.196L284.859 212.753L282.111 210.445Z" fill="#E4897B"/>
<path d="M276.64 184.703C279.173 184.981 289.933 199.751 290.408 204.205C290.883 208.657 284.087 216.343 284.087 216.343L279.546 213.671C279.546 213.671 284.157 206.585 284.395 204.694C284.632 202.803 275.967 195.05 275.967 195.05C275.967 195.05 275.02 192.772 274.9 189.494C274.78 186.215 276.64 184.703 276.64 184.703Z" fill="#407BFF"/>
<path d="M277.477 214.696C277.477 214.696 281.35 215.527 282.906 217.959C282.906 217.959 281.289 223.029 280.132 223.581C278.976 224.133 276.103 224.133 276.103 224.133C276.103 224.133 275.919 218.494 277.477 214.696Z" fill="#407BFF"/>
</svg>
