<svg width="311" height="158" viewBox="0 0 311 158" fill="none" xmlns="http://www.w3.org/2000/svg">
<path d="M272.05 99.2903C274.998 98.1948 275.981 94.5727 274.435 92.1505C273.029 89.9482 269.399 88.4874 266.782 87.8316C257.752 85.5734 247.575 82.7935 247.031 72.1844C246.542 62.5479 253.933 56.7719 263.155 55.7099C272.006 54.6938 280.221 56.4515 287.8 60.9828C287.89 61.0374 287.913 61.112 287.87 61.2064L283.422 70.5932C283.403 70.6337 283.376 70.67 283.341 70.6997C283.307 70.7294 283.267 70.752 283.223 70.766C283.179 70.78 283.133 70.7851 283.087 70.781C283.041 70.7769 282.997 70.7637 282.956 70.7423C277.384 67.7388 270.717 65.0259 264.473 65.6408C259.864 66.0954 258.608 71.264 262.192 73.9321C264.477 75.635 267.533 76.4809 270.308 77.2411C270.67 77.338 270.936 77.6808 271.264 77.7591C280.806 80.1291 289.261 84.5039 288.244 95.5825C287.469 104.053 280.139 108.901 271.984 109.885C261.945 111.092 251.875 108.006 244.095 101.947C243.984 101.86 243.96 101.755 244.021 101.631L248.542 92.3853C248.559 92.3518 248.583 92.3225 248.613 92.2996C248.644 92.2767 248.679 92.2609 248.717 92.2533C248.754 92.2458 248.793 92.2467 248.83 92.256C248.868 92.2653 248.902 92.2828 248.931 92.307C254.307 96.816 264.762 101.988 272.05 99.2903Z" fill="#E0EEFF"/>
<path d="M57.5523 55.8962H71.3335C71.3621 55.8962 71.3901 55.904 71.4142 55.9188C71.4384 55.9337 71.4577 55.9548 71.4698 55.9799C71.4819 56.0049 71.4864 56.0328 71.4828 56.0602C71.4791 56.0876 71.4674 56.1135 71.4491 56.1347L36.2602 96.3986C36.2377 96.4248 36.2255 96.4578 36.2255 96.4918V109.411C36.2255 109.45 36.2097 109.487 36.1815 109.514C36.1533 109.541 36.1151 109.557 36.0752 109.557H24.0168C23.997 109.557 23.9775 109.553 23.9592 109.546C23.941 109.538 23.9244 109.528 23.9105 109.514C23.8965 109.501 23.8854 109.485 23.8779 109.467C23.8703 109.449 23.8665 109.43 23.8665 109.411V56.049C23.8665 56.0299 23.8703 56.011 23.8779 55.9934C23.8854 55.9758 23.8965 55.9597 23.9105 55.9462C23.9244 55.9328 23.941 55.922 23.9592 55.9147C23.9775 55.9074 23.997 55.9037 24.0168 55.9037L36.0752 55.8627C36.1151 55.8627 36.1533 55.878 36.1815 55.9053C36.2097 55.9325 36.2255 55.9695 36.2255 56.008L36.2294 80.1775C36.2293 80.2075 36.2388 80.2367 36.2565 80.2612C36.2743 80.2857 36.2994 80.3043 36.3285 80.3145C36.3576 80.3247 36.3892 80.3259 36.419 80.3181C36.4489 80.3103 36.4755 80.2937 36.4953 80.2707L57.4367 55.9484C57.4509 55.932 57.4685 55.9189 57.4885 55.9099C57.5085 55.9008 57.5303 55.8962 57.5523 55.8962Z" fill="#E0EEFF"/>
<path d="M117.255 55.9037C123.648 55.8105 130.05 55.9223 136.447 55.8664C138.143 55.8515 139.836 55.895 141.526 55.9968C154.174 56.7533 164.005 64.5713 166.302 76.7604C169.686 94.6919 157.924 109.419 139.002 109.527C131.741 109.569 124.469 109.575 117.186 109.545C117.124 109.545 117.066 109.522 117.022 109.48C116.979 109.438 116.954 109.381 116.954 109.322L116.927 56.2242C116.927 56.1398 116.962 56.0588 117.023 55.9989C117.085 55.9389 117.168 55.9047 117.255 55.9037ZM129.256 66.2072L129.14 99.2158C129.14 99.3189 129.182 99.4179 129.257 99.4912C129.332 99.5644 129.434 99.6061 129.541 99.6071L139.16 99.6406C141.141 99.6474 143.103 99.2455 144.936 98.4577C146.769 97.6699 148.435 96.5118 149.841 95.0494C151.247 93.5871 152.364 91.8491 153.129 89.9348C153.893 88.0206 154.29 85.9675 154.298 83.8928L154.305 81.6942C154.32 77.5053 152.745 73.4829 149.928 70.5115C147.111 67.5401 143.282 65.8632 139.283 65.8495L129.664 65.8159C129.611 65.8155 129.558 65.8252 129.508 65.8447C129.459 65.8641 129.414 65.8928 129.376 65.9292C129.338 65.9656 129.307 66.0089 129.287 66.0566C129.266 66.1043 129.256 66.1555 129.256 66.2072Z" fill="#E0EEFF"/>
<path d="M182.265 62.6038C182.261 60.8002 182.072 58.3184 182.118 56.1645C182.121 56.0329 182.19 55.9583 182.326 55.9409C183.341 55.8267 184.033 55.7733 184.403 55.7807C192.358 55.9472 197.915 55.9819 201.075 55.885C215.365 55.4453 227.677 61.0499 231.269 75.4338C235.169 91.055 226.448 106.303 209.692 109.117C208.014 109.398 205.455 109.542 202.015 109.549C195.471 109.562 188.941 109.563 182.422 109.553C182.336 109.552 182.253 109.518 182.192 109.459C182.131 109.4 182.096 109.32 182.095 109.236C182.014 102.886 182.399 96.5142 182.369 90.1569C182.32 80.9725 182.285 71.7881 182.265 62.6038ZM204.613 99.5176C222.475 99.6704 224.471 72.4862 210.177 67.0196C208.841 66.5078 207.947 66.2271 207.495 66.1774C203.253 65.7004 198.99 65.5961 194.705 65.8644C194.581 65.8718 194.52 65.9352 194.52 66.0544L194.516 99.3276C194.516 99.374 194.535 99.4186 194.569 99.4514C194.603 99.4843 194.649 99.5027 194.697 99.5027C197.978 99.4853 201.283 99.4903 204.613 99.5176Z" fill="#E0EEFF"/>
<path d="M88.5994 63.157V57.4894H98.024V63.157H88.5994Z" stroke="#E0EEFF" stroke-width="3"/>
<path d="M87.3188 74.5842L99.2501 72.0838C99.2833 72.0771 99.3175 72.0777 99.3504 72.0855C99.3833 72.0933 99.414 72.1081 99.4402 72.1288C99.4664 72.1495 99.4875 72.1756 99.502 72.2052C99.5164 72.2348 99.5239 72.2672 99.5237 72.2999V109.337C99.5237 109.395 99.4998 109.451 99.4571 109.492C99.4145 109.533 99.3567 109.557 99.2964 109.557H87.392C87.3317 109.557 87.2739 109.533 87.2313 109.492C87.1886 109.451 87.1647 109.395 87.1647 109.337L87.1377 74.8003C87.1375 74.7496 87.1554 74.7004 87.1884 74.661C87.2214 74.6217 87.2675 74.5945 87.3188 74.5842Z" fill="#E0EEFF"/>
<mask id="path-7-inside-1_44_398" fill="white">
<path d="M48.2725 94.0733C48.8814 89.4675 52.3884 85.7299 57.4484 85.9982C57.5047 86.0018 57.5594 86.0181 57.6083 86.0459C57.6571 86.0738 57.6987 86.1123 57.7297 86.1584L73.0716 109.408C73.0875 109.431 73.0966 109.458 73.0979 109.487C73.0991 109.515 73.0925 109.543 73.0787 109.567C73.0649 109.592 73.0444 109.613 73.0194 109.627C72.9944 109.642 72.9658 109.65 72.9367 109.65H58.5583C58.4195 109.65 58.3129 109.593 58.2384 109.478L48.3534 94.4199C48.2841 94.3131 48.2571 94.1976 48.2725 94.0733Z"/>
</mask>
<path d="M48.2725 94.0733L44.307 93.5491L44.3049 93.5649L44.303 93.5807L48.2725 94.0733ZM57.4484 85.9982L57.7013 82.0062L57.6807 82.0049L57.6602 82.0038L57.4484 85.9982ZM57.7297 86.1584L61.0683 83.9553L61.0595 83.942L61.0506 83.9287L57.7297 86.1584ZM73.0716 109.408L69.733 111.611L69.7459 111.63L69.759 111.65L73.0716 109.408ZM72.9367 109.65V113.65L72.9498 113.65L72.9367 109.65ZM58.2384 109.478L61.5891 107.294L61.5823 107.283L58.2384 109.478ZM48.3534 94.4199L44.9987 96.5984L45.0041 96.6067L45.0095 96.615L48.3534 94.4199ZM52.238 94.5976C52.6289 91.6407 54.6596 89.856 57.2366 89.9926L57.6602 82.0038C50.1171 81.6039 45.1339 87.2943 44.307 93.5491L52.238 94.5976ZM57.1954 89.9902C56.647 89.9555 56.1108 89.7963 55.6286 89.5217L59.588 82.5702C59.0081 82.2399 58.3624 82.0481 57.7013 82.0062L57.1954 89.9902ZM55.6286 89.5217C55.1459 89.2468 54.7263 88.861 54.4088 88.3882L61.0506 83.9287C60.6711 83.3635 60.1683 82.9007 59.588 82.5702L55.6286 89.5217ZM54.3911 88.3616L69.733 111.611L76.4102 107.204L61.0683 83.9553L54.3911 88.3616ZM69.759 111.65C69.3653 111.068 69.1336 110.382 69.1018 109.664L77.094 109.31C77.0597 108.535 76.8098 107.794 76.3841 107.165L69.759 111.65ZM69.1018 109.664C69.07 108.945 69.2403 108.239 69.584 107.621L76.5734 111.514C76.9447 110.847 77.1283 110.084 77.094 109.31L69.1018 109.664ZM69.584 107.621C69.9269 107.006 70.4255 106.508 71.0131 106.167L75.0257 113.088C75.6633 112.718 76.2028 112.179 76.5734 111.514L69.584 107.621ZM71.0131 106.167C71.5995 105.827 72.2592 105.652 72.9236 105.65L72.9498 113.65C73.6725 113.647 74.3893 113.457 75.0257 113.088L71.0131 106.167ZM72.9367 105.65H58.5583V113.65H72.9367V105.65ZM58.5583 105.65C59.0504 105.65 59.6554 105.755 60.2636 106.081C60.8746 106.409 61.3071 106.861 61.5891 107.294L54.8877 111.663C55.7156 112.933 57.0954 113.65 58.5583 113.65V105.65ZM61.5823 107.283L51.6973 92.2248L45.0095 96.615L54.8945 111.673L61.5823 107.283ZM51.7082 92.2414C52.1421 92.9096 52.3449 93.7374 52.2421 94.566L44.303 93.5807C44.1693 94.6577 44.4261 95.7166 44.9987 96.5984L51.7082 92.2414Z" fill="#E0EEFF" mask="url(#path-7-inside-1_44_398)"/>
<path d="M121.961 29.0312C121.961 30.224 121.57 31.138 120.789 31.7734C120.008 32.4089 118.896 32.7266 117.453 32.7266H116.266V37H114.398V25.5781H117.688C119.115 25.5781 120.182 25.8698 120.891 26.4531C121.604 27.0365 121.961 27.8958 121.961 29.0312ZM116.266 31.1562H117.258C118.216 31.1562 118.919 30.9896 119.367 30.6562C119.815 30.3229 120.039 29.8021 120.039 29.0938C120.039 28.4375 119.839 27.9479 119.438 27.625C119.036 27.3021 118.411 27.1406 117.562 27.1406H116.266V31.1562ZM131.211 32.6641C131.211 34.0755 130.849 35.1771 130.125 35.9688C129.401 36.7604 128.393 37.1562 127.102 37.1562C126.294 37.1562 125.581 36.974 124.961 36.6094C124.341 36.2448 123.865 35.7214 123.531 35.0391C123.198 34.3568 123.031 33.5651 123.031 32.6641C123.031 31.263 123.391 30.1693 124.109 29.3828C124.828 28.5964 125.841 28.2031 127.148 28.2031C128.398 28.2031 129.388 28.6068 130.117 29.4141C130.846 30.2161 131.211 31.2995 131.211 32.6641ZM124.922 32.6641C124.922 34.6589 125.659 35.6562 127.133 35.6562C128.591 35.6562 129.32 34.6589 129.32 32.6641C129.32 30.6901 128.586 29.7031 127.117 29.7031C126.346 29.7031 125.786 29.9583 125.438 30.4688C125.094 30.9792 124.922 31.7109 124.922 32.6641ZM139.914 37L138.797 32.9688C138.661 32.5417 138.417 31.5495 138.062 29.9922H137.992C137.69 31.3984 137.451 32.3958 137.273 32.9844L136.125 37H134.094L131.672 28.3594H133.547L134.648 32.6172C134.898 33.6693 135.076 34.5703 135.18 35.3203H135.227C135.279 34.9401 135.357 34.5052 135.461 34.0156C135.57 33.5208 135.664 33.151 135.742 32.9062L137.055 28.3594H139.07L140.344 32.9062C140.422 33.1615 140.518 33.5521 140.633 34.0781C140.753 34.6042 140.823 35.013 140.844 35.3047H140.906C140.984 34.6641 141.167 33.7682 141.453 32.6172L142.57 28.3594H144.414L141.977 37H139.914ZM149.18 37.1562C147.836 37.1562 146.784 36.7656 146.023 35.9844C145.268 35.1979 144.891 34.1172 144.891 32.7422C144.891 31.3307 145.242 30.2214 145.945 29.4141C146.648 28.6068 147.615 28.2031 148.844 28.2031C149.984 28.2031 150.885 28.5495 151.547 29.2422C152.208 29.9349 152.539 30.888 152.539 32.1016V33.0938H146.781C146.807 33.9323 147.034 34.5781 147.461 35.0312C147.888 35.4792 148.49 35.7031 149.266 35.7031C149.776 35.7031 150.25 35.6562 150.688 35.5625C151.13 35.4635 151.604 35.3021 152.109 35.0781V36.5703C151.661 36.7839 151.208 36.9349 150.75 37.0234C150.292 37.112 149.768 37.1562 149.18 37.1562ZM148.844 29.5938C148.26 29.5938 147.792 29.7786 147.438 30.1484C147.089 30.5182 146.88 31.0573 146.812 31.7656H150.734C150.724 31.0521 150.552 30.513 150.219 30.1484C149.885 29.7786 149.427 29.5938 148.844 29.5938ZM158.508 28.2031C158.878 28.2031 159.182 28.2292 159.422 28.2812L159.242 29.9922C158.982 29.9297 158.711 29.8984 158.43 29.8984C157.695 29.8984 157.099 30.138 156.641 30.6172C156.188 31.0964 155.961 31.7188 155.961 32.4844V37H154.125V28.3594H155.562L155.805 29.8828H155.898C156.185 29.3672 156.557 28.9583 157.016 28.6562C157.479 28.3542 157.977 28.2031 158.508 28.2031ZM164.305 37.1562C162.961 37.1562 161.909 36.7656 161.148 35.9844C160.393 35.1979 160.016 34.1172 160.016 32.7422C160.016 31.3307 160.367 30.2214 161.07 29.4141C161.773 28.6068 162.74 28.2031 163.969 28.2031C165.109 28.2031 166.01 28.5495 166.672 29.2422C167.333 29.9349 167.664 30.888 167.664 32.1016V33.0938H161.906C161.932 33.9323 162.159 34.5781 162.586 35.0312C163.013 35.4792 163.615 35.7031 164.391 35.7031C164.901 35.7031 165.375 35.6562 165.812 35.5625C166.255 35.4635 166.729 35.3021 167.234 35.0781V36.5703C166.786 36.7839 166.333 36.9349 165.875 37.0234C165.417 37.112 164.893 37.1562 164.305 37.1562ZM163.969 29.5938C163.385 29.5938 162.917 29.7786 162.562 30.1484C162.214 30.5182 162.005 31.0573 161.938 31.7656H165.859C165.849 31.0521 165.677 30.513 165.344 30.1484C165.01 29.7786 164.552 29.5938 163.969 29.5938ZM172.164 37.1562C171.086 37.1562 170.245 36.7656 169.641 35.9844C169.036 35.2031 168.734 34.1068 168.734 32.6953C168.734 31.2786 169.039 30.1771 169.648 29.3906C170.263 28.599 171.112 28.2031 172.195 28.2031C173.331 28.2031 174.195 28.6224 174.789 29.4609H174.883C174.794 28.8411 174.75 28.3516 174.75 27.9922V24.8438H176.594V37H175.156L174.836 35.8672H174.75C174.161 36.7266 173.299 37.1562 172.164 37.1562ZM172.656 35.6719C173.411 35.6719 173.961 35.4609 174.305 35.0391C174.648 34.612 174.826 33.9219 174.836 32.9688V32.7109C174.836 31.6224 174.659 30.849 174.305 30.3906C173.951 29.9323 173.396 29.7031 172.641 29.7031C171.995 29.7031 171.497 29.9661 171.148 30.4922C170.799 31.013 170.625 31.7578 170.625 32.7266C170.625 33.6849 170.794 34.4167 171.133 34.9219C171.471 35.4219 171.979 35.6719 172.656 35.6719ZM186.789 28.2031C187.867 28.2031 188.706 28.5938 189.305 29.375C189.909 30.1562 190.211 31.2526 190.211 32.6641C190.211 34.0807 189.906 35.1849 189.297 35.9766C188.688 36.763 187.841 37.1562 186.758 37.1562C185.664 37.1562 184.815 36.763 184.211 35.9766H184.086L183.75 37H182.375V24.8438H184.211V27.7344C184.211 27.9479 184.201 28.2656 184.18 28.6875C184.159 29.1094 184.143 29.3776 184.133 29.4922H184.211C184.794 28.6328 185.654 28.2031 186.789 28.2031ZM186.312 29.7031C185.573 29.7031 185.039 29.9219 184.711 30.3594C184.388 30.7917 184.221 31.5182 184.211 32.5391V32.6641C184.211 33.7161 184.378 34.4792 184.711 34.9531C185.044 35.4219 185.589 35.6562 186.344 35.6562C186.995 35.6562 187.487 35.3984 187.82 34.8828C188.159 34.3672 188.328 33.6224 188.328 32.6484C188.328 30.6849 187.656 29.7031 186.312 29.7031ZM190.531 28.3594H192.531L194.289 33.2578C194.555 33.9557 194.732 34.612 194.82 35.2266H194.883C194.93 34.9401 195.016 34.5938 195.141 34.1875C195.266 33.776 195.927 31.8333 197.125 28.3594H199.109L195.414 38.1484C194.742 39.9453 193.622 40.8438 192.055 40.8438C191.648 40.8438 191.253 40.7995 190.867 40.7109V39.2578C191.143 39.3203 191.458 39.3516 191.812 39.3516C192.698 39.3516 193.32 38.8385 193.68 37.8125L194 37L190.531 28.3594Z" fill="white"/>
</svg>
