<svg width="64" height="64" viewBox="0 0 64 64" fill="none" xmlns="http://www.w3.org/2000/svg">
<rect width="64" height="64" rx="5" fill="#BFE4F8"/>
<path d="M28 38H36V36H28V38ZM27 42C26.45 42 25.9793 41.8043 25.588 41.413C25.1967 41.0217 25.0007 40.5507 25 40V32C25 30.5833 25.371 29.3167 26.113 28.2C26.855 27.0833 27.8173 26.25 29 25.7V25C29 24.1667 29.2917 23.4583 29.875 22.875C30.4583 22.2917 31.1667 22 32 22C32.8333 22 33.5417 22.2917 34.125 22.875C34.7083 23.4583 35 24.1667 35 25V25.7C36.1833 26.25 37.146 27.0833 37.888 28.2C38.63 29.3167 39.0007 30.5833 39 32V40C39 40.55 38.8043 41.021 38.413 41.413C38.0217 41.805 37.5507 42.0007 37 42H27ZM31 25.1C31.1833 25.0667 31.35 25.0417 31.5 25.025C31.65 25.0083 31.8167 25 32 25C32.1833 25 32.35 25.0083 32.5 25.025C32.65 25.0417 32.8167 25.0667 33 25.1V25C33 24.7167 32.904 24.479 32.712 24.287C32.52 24.095 32.2827 23.9993 32 24C31.7173 24.0007 31.48 24.0967 31.288 24.288C31.096 24.4793 31 24.7167 31 25V25.1ZM30.15 34.5L32 33.1L33.85 34.5L33.15 32.225L35 30.9H32.725L32 28.5L31.275 30.9H29L30.85 32.225L30.15 34.5Z" fill="black"/>
</svg>
