<svg width="64" height="64" viewBox="0 0 64 64" fill="none" xmlns="http://www.w3.org/2000/svg">
<rect width="64" height="64" rx="5" fill="#BFE4F8"/>
<g clip-path="url(#clip0_251_5831)">
<path d="M20.25 25.5003L26 27.1603L32.32 22.5703L23.25 22.8303C23.1611 22.8342 23.0747 22.8619 23 22.9103L20.13 24.5603C20.0408 24.6098 19.9684 24.6849 19.9222 24.7759C19.8761 24.867 19.8584 24.9698 19.8713 25.071C19.8842 25.1722 19.9272 25.2673 19.9947 25.3438C20.0623 25.4203 20.1512 25.4749 20.25 25.5003Z" fill="black"/>
<path d="M48.5203 20.3601L42.2203 19.0001C41.6905 18.8851 41.1421 18.8854 40.6124 19.001C40.0827 19.1166 39.584 19.3448 39.1503 19.6701L20.1203 33.5001L15.5503 33.3001C15.2885 33.2912 15.0306 33.3648 14.8129 33.5104C14.5952 33.656 14.4287 33.8663 14.337 34.1116C14.2452 34.357 14.2329 34.6249 14.3017 34.8776C14.3705 35.1304 14.5169 35.3551 14.7203 35.5201L19.1703 39.0501C19.2435 39.1092 19.3307 39.1485 19.4235 39.1643C19.5163 39.18 19.6116 39.1717 19.7003 39.1401C20.9703 38.6501 25.7003 36.1401 31.2903 33.0701L32.4103 44.5801C32.4198 44.6798 32.4563 44.775 32.516 44.8554C32.5756 44.9359 32.6561 44.9985 32.7487 45.0366C32.8413 45.0747 32.9425 45.0867 33.0415 45.0715C33.1405 45.0563 33.2334 45.0143 33.3103 44.9501L35.8103 42.8701C35.9471 42.7553 36.0392 42.596 36.0703 42.4201L38.4403 29.1301C42.4403 26.9101 46.2603 24.7601 48.9503 23.2401C49.2294 23.0882 49.4552 22.8542 49.5969 22.5697C49.7386 22.2852 49.7894 21.9641 49.7425 21.6497C49.6955 21.3354 49.5531 21.0431 49.3345 20.8124C49.1159 20.5817 48.8316 20.4238 48.5203 20.3601Z" fill="black"/>
</g>
<defs>
<clipPath id="clip0_251_5831">
<rect width="36" height="36" fill="white" transform="translate(14 14)"/>
</clipPath>
</defs>
</svg>
