<svg width="64" height="64" viewBox="0 0 64 64" fill="none" xmlns="http://www.w3.org/2000/svg">
<rect width="64" height="64" rx="5" fill="#BFE4F8"/>
<path d="M38 31H26V26H38M36.5 37C36.1022 37 35.7206 36.842 35.4393 36.5607C35.158 36.2794 35 35.8978 35 35.5C35 35.1022 35.158 34.7206 35.4393 34.4393C35.7206 34.158 36.1022 34 36.5 34C36.8978 34 37.2794 34.158 37.5607 34.4393C37.842 34.7206 38 35.1022 38 35.5C38 35.8978 37.842 36.2794 37.5607 36.5607C37.2794 36.842 36.8978 37 36.5 37ZM27.5 37C27.1022 37 26.7206 36.842 26.4393 36.5607C26.158 36.2794 26 35.8978 26 35.5C26 35.1022 26.158 34.7206 26.4393 34.4393C26.7206 34.158 27.1022 34 27.5 34C27.8978 34 28.2794 34.158 28.5607 34.4393C28.842 34.7206 29 35.1022 29 35.5C29 35.8978 28.842 36.2794 28.5607 36.5607C28.2794 36.842 27.8978 37 27.5 37ZM24 36C24 36.88 24.39 37.67 25 38.22V40C25 40.2652 25.1054 40.5196 25.2929 40.7071C25.4804 40.8946 25.7348 41 26 41H27C27.2652 41 27.5196 40.8946 27.7071 40.7071C27.8946 40.5196 28 40.2652 28 40V39H36V40C36 40.2652 36.1054 40.5196 36.2929 40.7071C36.4804 40.8946 36.7348 41 37 41H38C38.2652 41 38.5196 40.8946 38.7071 40.7071C38.8946 40.5196 39 40.2652 39 40V38.22C39.61 37.67 40 36.88 40 36V26C40 22.5 36.42 22 32 22C27.58 22 24 22.5 24 26V36Z" fill="black"/>
</svg>
