<svg width="64" height="64" viewBox="0 0 64 64" fill="none" xmlns="http://www.w3.org/2000/svg">
<rect width="64" height="64" rx="5" fill="#BFE4F8"/>
<path d="M28 22H34.49L34.409 22.032L34.03 22.161C33.4377 22.3633 32.9235 22.7457 32.5594 23.2548C32.1953 23.7639 31.9996 24.3741 31.9996 25C31.9996 25.6259 32.1953 26.2361 32.5594 26.7452C32.9235 27.2543 33.4377 27.6367 34.03 27.839L34.409 27.969C34.5534 28.0183 34.6846 28.0999 34.7926 28.2078C34.9006 28.3156 34.9825 28.4467 35.032 28.591L35.161 28.969C35.289 29.3446 35.4902 29.691 35.753 29.9883C36.0158 30.2856 36.335 30.5278 36.692 30.7009C37.0491 30.874 37.4369 30.9745 37.8331 30.9967C38.2292 31.0188 38.6259 30.9622 39 30.83V39C39 39.7956 38.6839 40.5587 38.1213 41.1213C37.5587 41.6839 36.7956 42 36 42H28C27.2044 42 26.4413 41.6839 25.8787 41.1213C25.3161 40.5587 25 39.7956 25 39V25C25 24.2044 25.3161 23.4413 25.8787 22.8787C26.4413 22.3161 27.2044 22 28 22ZM32 36C31.6022 36 31.2206 36.158 30.9393 36.4393C30.658 36.7206 30.5 37.1022 30.5 37.5C30.5 37.8978 30.658 38.2794 30.9393 38.5607C31.2206 38.842 31.6022 39 32 39C32.3978 39 32.7794 38.842 33.0607 38.5607C33.342 38.2794 33.5 37.8978 33.5 37.5C33.5 37.1022 33.342 36.7206 33.0607 36.4393C32.7794 36.158 32.3978 36 32 36ZM38 21C38.1871 21 38.3704 21.0525 38.5292 21.1515C38.6879 21.2505 38.8157 21.392 38.898 21.56L38.946 21.677L39.076 22.055C39.2132 22.4572 39.4343 22.8256 39.7246 23.1359C40.0149 23.4463 40.3678 23.6914 40.76 23.855L40.945 23.925L41.323 24.054C41.5102 24.1179 41.6742 24.2358 41.7944 24.3929C41.9146 24.55 41.9854 24.7392 41.9981 24.9366C42.0107 25.134 41.9645 25.3307 41.8654 25.5018C41.7662 25.6729 41.6185 25.8108 41.441 25.898L41.323 25.946L40.945 26.076C40.5428 26.2132 40.1744 26.4343 39.8641 26.7246C39.5537 27.0149 39.3087 27.3678 39.145 27.76L39.075 27.945L38.946 28.323C38.882 28.5101 38.764 28.6741 38.6068 28.7942C38.4497 28.9142 38.2605 28.985 38.0631 28.9975C37.8657 29.01 37.6691 28.9638 37.498 28.8645C37.3269 28.7653 37.1891 28.6176 37.102 28.44L37.054 28.323L36.924 27.945C36.7868 27.5428 36.5657 27.1744 36.2754 26.8641C35.9851 26.5537 35.6322 26.3086 35.24 26.145L35.055 26.075L34.677 25.946C34.4898 25.8821 34.3258 25.7642 34.2056 25.6071C34.0854 25.45 34.0146 25.2608 34.0019 25.0634C33.9893 24.866 34.0355 24.6693 34.1346 24.4982C34.2338 24.3271 34.3815 24.1892 34.559 24.102L34.677 24.054L35.055 23.924C35.4572 23.7868 35.8256 23.5657 36.1359 23.2754C36.4463 22.9851 36.6913 22.6322 36.855 22.24L36.925 22.055L37.054 21.677C37.1214 21.4796 37.2488 21.3082 37.4184 21.1868C37.5881 21.0654 37.7914 21.0001 38 21Z" fill="black"/>
</svg>
