<svg width="21" height="20" viewBox="0 0 21 20" fill="none" xmlns="http://www.w3.org/2000/svg">
<path d="M8.66797 3.33301C8.66797 6.09443 6.42939 8.33301 3.66797 8.33301C6.42939 8.33301 8.66797 10.5716 8.66797 13.333C8.66797 10.5716 10.9065 8.33301 13.668 8.33301C10.9065 8.33301 8.66797 6.09443 8.66797 3.33301Z" fill="#F1F9FE"/>
<path d="M14.918 12.4997C14.918 13.6503 13.9852 14.583 12.8346 14.583C13.9852 14.583 14.918 15.5157 14.918 16.6663C14.918 15.5157 15.8507 14.583 17.0013 14.583C15.8507 14.583 14.918 13.6503 14.918 12.4997Z" fill="#F1F9FE"/>
<path d="M8.66797 3.33301C8.66797 6.09443 6.42939 8.33301 3.66797 8.33301C6.42939 8.33301 8.66797 10.5716 8.66797 13.333C8.66797 10.5716 10.9065 8.33301 13.668 8.33301C10.9065 8.33301 8.66797 6.09443 8.66797 3.33301Z" stroke="#F1F9FE" stroke-linecap="round" stroke-linejoin="round"/>
<path d="M14.918 12.4997C14.918 13.6503 13.9852 14.583 12.8346 14.583C13.9852 14.583 14.918 15.5157 14.918 16.6663C14.918 15.5157 15.8507 14.583 17.0013 14.583C15.8507 14.583 14.918 13.6503 14.918 12.4997Z" stroke="#F1F9FE" stroke-linecap="round" stroke-linejoin="round"/>
</svg>
