<svg width="45" height="45" viewBox="0 0 45 45" fill="none" xmlns="http://www.w3.org/2000/svg">
<path d="M39.7688 29.7938C38.5759 32.6147 36.7102 35.1004 34.3348 37.0337C31.9593 38.967 29.1465 40.2889 26.1421 40.884C23.1377 41.479 20.0333 41.329 17.1003 40.4471C14.1673 39.5652 11.4949 37.9783 9.31694 35.825C7.13892 33.6717 5.52155 31.0177 4.60621 28.0949C3.69088 25.1722 3.50545 22.0697 4.06614 19.0587C4.62684 16.0477 5.91658 13.22 7.82261 10.8226C9.72864 8.42521 12.1929 6.53124 15 5.30627" stroke="#0174FA" stroke-width="5" stroke-linecap="round" stroke-linejoin="round"/>
<path d="M41.25 22.5C41.25 20.0377 40.765 17.5995 39.8227 15.3247C38.8805 13.0498 37.4994 10.9828 35.7583 9.24175C34.0172 7.50065 31.9502 6.11953 29.6753 5.17726C27.4005 4.23498 24.9623 3.75 22.5 3.75V22.5H41.25Z" stroke="#0174FA" stroke-width="5" stroke-linecap="round" stroke-linejoin="round"/>
</svg>
