<svg width="32" height="32" viewBox="0 0 32 32" fill="none" xmlns="http://www.w3.org/2000/svg">
<g clip-path="url(#clip0_906_4033)">
<path d="M16.0007 2.66699C10.1073 2.66699 5.33398 3.33366 5.33398 8.00033V21.3337C5.33398 22.507 5.85398 23.5603 6.66732 24.2937V26.667C6.66732 27.4003 7.26732 28.0003 8.00065 28.0003H9.33398C10.0673 28.0003 10.6673 27.4003 10.6673 26.667V25.3337H21.334V26.667C21.334 27.4003 21.934 28.0003 22.6673 28.0003H24.0007C24.734 28.0003 25.334 27.4003 25.334 26.667V24.2937C26.1473 23.5603 26.6673 22.507 26.6673 21.3337V8.00033C26.6673 3.33366 21.894 2.66699 16.0007 2.66699ZM23.5473 6.65366H8.45398C9.18732 5.94699 11.0807 5.33366 16.0007 5.33366C20.9207 5.33366 22.814 5.94699 23.5473 6.65366ZM24.0007 9.32033V13.3337H8.00065V9.32033H24.0007ZM23.5473 22.307L23.1607 22.667H8.84065L8.45398 22.307C8.28065 22.1603 8.00065 21.827 8.00065 21.3337V16.0003H24.0007V21.3337C24.0007 21.827 23.7207 22.1603 23.5473 22.307Z" fill="#1EA0D9"/>
<path d="M11.334 21.333C12.4386 21.333 13.334 20.4376 13.334 19.333C13.334 18.2284 12.4386 17.333 11.334 17.333C10.2294 17.333 9.33398 18.2284 9.33398 19.333C9.33398 20.4376 10.2294 21.333 11.334 21.333Z" fill="#1EA0D9"/>
<path d="M20.666 21.333C21.7706 21.333 22.666 20.4376 22.666 19.333C22.666 18.2284 21.7706 17.333 20.666 17.333C19.5614 17.333 18.666 18.2284 18.666 19.333C18.666 20.4376 19.5614 21.333 20.666 21.333Z" fill="#1EA0D9"/>
</g>
<defs>
<clipPath id="clip0_906_4033">
<rect width="32" height="32" fill="white"/>
</clipPath>
</defs>
</svg>
