<svg width="25" height="25" viewBox="0 0 25 25" fill="none" xmlns="http://www.w3.org/2000/svg">
<path d="M19.253 8.00896C19.8624 8.36868 20.2363 9.02364 20.2363 9.73129V18.8672C20.2363 19.9718 19.3409 20.8672 18.2363 20.8672H16.2363C15.1318 20.8672 14.2363 19.9718 14.2363 18.8672V14.8671C14.2363 13.7625 13.3409 12.8671 12.2363 12.8671C11.1318 12.8671 10.2363 13.7625 10.2363 14.8671V18.8672C10.2363 19.9718 9.3409 20.8672 8.23633 20.8672H6.23633C5.13176 20.8672 4.23633 19.9718 4.23633 18.8672V9.73129C4.23633 9.02364 4.61028 8.36868 5.21968 8.00896L11.2197 4.46729C11.8469 4.09707 12.6258 4.09707 13.253 4.4673L19.253 8.00896Z" fill="#1EA0D9" stroke="#10577C" stroke-width="1.5" stroke-linecap="round" stroke-linejoin="round"/>
</svg>
