<svg width="20" height="20" viewBox="0 0 20 20" fill="none" xmlns="http://www.w3.org/2000/svg">
<path d="M13.8327 16.6663C14.9373 16.6663 15.8954 15.747 15.5762 14.6896C14.9676 12.6741 13.2393 11.6663 9.99935 11.6663C6.7594 11.6663 5.03105 12.6741 4.42252 14.6896C4.10325 15.747 5.06145 16.6663 6.16602 16.6663H13.8327Z" fill="#F1F9FE"/>
<path fill-rule="evenodd" clip-rule="evenodd" d="M9.99935 9.16634C11.666 9.16634 12.4993 8.33301 12.4993 6.24967C12.4993 4.16634 11.666 3.33301 9.99935 3.33301C8.33268 3.33301 7.49935 4.16634 7.49935 6.24967C7.49935 8.33301 8.33268 9.16634 9.99935 9.16634Z" fill="#F1F9FE"/>
<path d="M13.8327 16.6663C14.9373 16.6663 15.8954 15.747 15.5762 14.6896C14.9676 12.6741 13.2393 11.6663 9.99935 11.6663C6.7594 11.6663 5.03105 12.6741 4.42252 14.6896C4.10325 15.747 5.06145 16.6663 6.16602 16.6663H13.8327Z" stroke="#F1F9FE" stroke-linecap="round" stroke-linejoin="round"/>
<path fill-rule="evenodd" clip-rule="evenodd" d="M9.99935 9.16634C11.666 9.16634 12.4993 8.33301 12.4993 6.24967C12.4993 4.16634 11.666 3.33301 9.99935 3.33301C8.33268 3.33301 7.49935 4.16634 7.49935 6.24967C7.49935 8.33301 8.33268 9.16634 9.99935 9.16634Z" stroke="#F1F9FE" stroke-linecap="round" stroke-linejoin="round"/>
</svg>
