<svg width="32" height="32" viewBox="0 0 32 32" fill="none" xmlns="http://www.w3.org/2000/svg">
<g clip-path="url(#clip0_906_4048)">
<path d="M11.334 21.333C12.4386 21.333 13.334 20.4376 13.334 19.333C13.334 18.2284 12.4386 17.333 11.334 17.333C10.2294 17.333 9.33398 18.2284 9.33398 19.333C9.33398 20.4376 10.2294 21.333 11.334 21.333Z" fill="#1EA0D9"/>
<path d="M20.666 21.333C21.7706 21.333 22.666 20.4376 22.666 19.333C22.666 18.2284 21.7706 17.333 20.666 17.333C19.5614 17.333 18.666 18.2284 18.666 19.333C18.666 20.4376 19.5614 21.333 20.666 21.333Z" fill="#1EA0D9"/>
<path d="M16.0007 2.66699C10.6673 2.66699 5.33398 3.33366 5.33398 8.00033V20.667C5.33398 23.2403 7.42732 25.3337 10.0007 25.3337L8.00065 27.3337V28.0003H10.6673L13.334 25.3337H18.6673L21.334 28.0003H24.0007V27.3337L22.0007 25.3337C24.574 25.3337 26.6673 23.2403 26.6673 20.667V8.00033C26.6673 3.33366 21.334 2.66699 16.0007 2.66699ZM16.0007 5.33366C20.6807 5.33366 22.614 5.97366 23.4273 6.66699H8.57398C9.38732 5.97366 11.3207 5.33366 16.0007 5.33366ZM8.00065 9.33366H14.6673V13.3337H8.00065V9.33366ZM24.0007 20.667C24.0007 21.7737 23.1073 22.667 22.0007 22.667H10.0007C8.89398 22.667 8.00065 21.7737 8.00065 20.667V16.0003H24.0007V20.667ZM24.0007 13.3337H17.334V9.33366H24.0007V13.3337Z" fill="#1EA0D9"/>
</g>
<defs>
<clipPath id="clip0_906_4048">
<rect width="32" height="32" fill="white"/>
</clipPath>
</defs>
</svg>
