<svg width="21" height="21" viewBox="0 0 21 21" fill="none" xmlns="http://www.w3.org/2000/svg">
<path d="M12.5697 19.2002V14.2002L10.903 12.5335M10.903 12.5335L11.7363 7.53353M10.903 12.5335H9.23633M11.7363 7.53353C12.5697 8.50575 13.903 10.0335 15.903 10.0335M11.7363 7.53353V7.53353C11.202 6.99922 10.2878 7.27601 10.1396 8.01696L9.23633 12.5335M9.23633 12.5335L7.56966 19.2002M15.903 8.78353V19.2002M7.56966 6.7002H7.45709C7.02666 6.7002 6.64452 6.97563 6.5084 7.38397L5.48633 10.4502L6.73633 10.8669L7.56966 6.7002ZM12.9863 3.78353C12.9863 4.24377 12.6132 4.61686 12.153 4.61686C11.6928 4.61686 11.3197 4.24377 11.3197 3.78353C11.3197 3.32329 11.6928 2.9502 12.153 2.9502C12.6132 2.9502 12.9863 3.32329 12.9863 3.78353Z" stroke="#F1F9FE" stroke-width="1.5" stroke-linecap="round" stroke-linejoin="round"/>
</svg>
