<svg width="40" height="40" viewBox="0 0 40 40" fill="none" xmlns="http://www.w3.org/2000/svg">
<path d="M19.749 0.499023C30.5203 0.499023 39.2519 9.23068 39.2519 20.0019C39.2519 30.7712 30.5203 39.5009 19.749 39.5009C8.97775 39.5009 0.25 30.7712 0.25 20.0019C0.24805 9.23068 8.97775 0.499023 19.749 0.499023ZM19.7412 16.5857C19.2633 16.5864 18.8024 16.7625 18.4458 17.0806C18.0892 17.3987 17.8619 17.8367 17.8069 18.3114L17.7933 18.5375L17.8011 29.2659L17.8128 29.4921C17.8672 29.9677 18.0948 30.4066 18.452 30.7253C18.8093 31.0439 19.2713 31.22 19.75 31.22C20.2287 31.22 20.6907 31.0439 21.0479 30.7253C21.4052 30.4066 21.6327 29.9677 21.6872 29.4921L21.6989 29.264L21.6911 18.5356L21.6775 18.3075C21.6211 17.8332 21.3926 17.3961 21.0353 17.079C20.6781 16.762 20.2169 16.5872 19.7393 16.5877M19.749 9.27747C19.1018 9.27747 18.4811 9.53458 18.0235 9.99222C17.5658 10.4499 17.3087 11.0706 17.3087 11.7178C17.3087 12.365 17.5658 12.9857 18.0235 13.4433C18.4811 13.901 19.1018 14.1581 19.749 14.1581C20.3962 14.1581 21.0169 13.901 21.4746 13.4433C21.9322 12.9857 22.1893 12.365 22.1893 11.7178C22.1893 11.0706 21.9322 10.4499 21.4746 9.99222C21.0169 9.53458 20.3962 9.27747 19.749 9.27747Z" fill="#1EA0D9"/>
</svg>
