<svg width="62" height="40" viewBox="0 0 62 40" fill="none" xmlns="http://www.w3.org/2000/svg">
<path d="M61.0334 4.89121C61.2602 4.68546 61.4434 4.43628 61.5722 4.15843C61.7009 3.88058 61.7726 3.57972 61.783 3.27366C61.7933 2.9676 61.7421 2.66258 61.6324 2.37668C61.5227 2.09077 61.3567 1.82979 61.1443 1.60921C60.9319 1.38862 60.6774 1.21292 60.3958 1.09251C60.1142 0.972101 59.8114 0.909433 59.5051 0.908221C59.1989 0.907009 58.8955 0.967278 58.613 1.08546C58.3305 1.20364 58.0746 1.37732 57.8605 1.59622L37.2668 21.4272C37.04 21.6329 36.8567 21.8821 36.728 22.1599C36.5992 22.4378 36.5276 22.7387 36.5172 23.0447C36.5069 23.3508 36.5581 23.6558 36.6678 23.9417C36.7775 24.2276 36.9435 24.4886 37.1559 24.7092C37.3683 24.9298 37.6228 25.1055 37.9044 25.2259C38.186 25.3463 38.4888 25.4089 38.7951 25.4102C39.1013 25.4114 39.4046 25.3511 39.6871 25.2329C39.9697 25.1147 40.2256 24.9411 40.4397 24.7222L61.0334 4.89121ZM52.5427 2.48098H8.49663C6.43329 2.48098 4.45446 3.30064 2.99546 4.75964C1.53646 6.21865 0.716797 8.19748 0.716797 10.2608V31.3121C0.716797 32.3338 0.918029 33.3455 1.309 34.2894C1.69998 35.2332 2.27303 36.0909 2.99546 36.8133C3.71788 37.5357 4.57553 38.1088 5.51942 38.4998C6.46331 38.8907 7.47497 39.092 8.49663 39.092H53.9553C54.9769 39.092 55.9886 38.8907 56.9325 38.4998C57.8764 38.1088 58.734 37.5357 59.4565 36.8133C60.1789 36.0909 60.7519 35.2332 61.1429 34.2894C61.5339 33.3455 61.7351 32.3338 61.7351 31.3121V10.2608C61.7351 9.69538 61.6772 9.14825 61.5612 8.61943L42.554 26.9219C41.5337 27.9038 40.1651 28.4401 38.7493 28.413C37.3334 28.3858 35.9864 27.7973 35.0045 26.777C34.0226 25.7566 33.4862 24.388 33.5134 22.9722C33.5406 21.5564 34.1291 20.2094 35.1494 19.2275L52.5427 2.48098ZM8.34409 15.4474C8.34409 14.8405 8.58516 14.2585 9.01428 13.8294C9.4434 13.4003 10.0254 13.1592 10.6323 13.1592H16.7341C17.341 13.1592 17.923 13.4003 18.3521 13.8294C18.7812 14.2585 19.0223 14.8405 19.0223 15.4474C19.0223 16.0542 18.7812 16.6362 18.3521 17.0654C17.923 17.4945 17.341 17.7356 16.7341 17.7356H10.6323C10.0254 17.7356 9.4434 17.4945 9.01428 17.0654C8.58516 16.6362 8.34409 16.0542 8.34409 15.4474ZM8.34409 26.1256C8.34409 25.5187 8.58516 24.9367 9.01428 24.5076C9.4434 24.0785 10.0254 23.8374 10.6323 23.8374H25.8869C26.4937 23.8374 27.0757 24.0785 27.5048 24.5076C27.934 24.9367 28.175 25.5187 28.175 26.1256C28.175 26.7325 27.934 27.3145 27.5048 27.7436C27.0757 28.1727 26.4937 28.4138 25.8869 28.4138H10.6323C10.0254 28.4138 9.4434 28.1727 9.01428 27.7436C8.58516 27.3145 8.34409 26.7325 8.34409 26.1256Z" fill="#1EA0D9"/>
</svg>
