<svg width="40" height="40" viewBox="0 0 40 40" fill="none" xmlns="http://www.w3.org/2000/svg">
<path d="M20.3107 31.3317C20.7902 31.3317 21.1947 31.167 21.524 30.8377C21.8533 30.5083 22.018 30.1039 22.018 29.6243C22.018 29.1448 21.8519 28.7403 21.5197 28.411C21.1903 28.0817 20.7859 27.917 20.3063 27.917C19.8268 27.917 19.4223 28.0824 19.093 28.4132C18.7637 28.7439 18.5997 29.1484 18.6012 29.6265C18.6012 30.1061 18.7658 30.5105 19.0952 30.8398C19.4274 31.1692 19.8326 31.3338 20.3107 31.3338M19.1905 24.1578H21.2835C21.3384 23.2161 21.5153 22.4505 21.8143 21.8612C22.1133 21.2733 22.7279 20.5222 23.6582 19.6078C24.6259 18.6415 25.3453 17.7756 25.8162 17.01C26.2871 16.2444 26.5232 15.359 26.5247 14.3537C26.5247 12.6463 25.9252 11.2857 24.7263 10.2717C23.526 9.25767 22.1061 8.75067 20.4667 8.75067C18.9081 8.75067 17.585 9.17389 16.4973 10.0203C15.4097 10.8682 14.6131 11.8418 14.1075 12.941L16.1008 13.7665C16.4475 12.9778 16.9437 12.2809 17.5893 11.6757C18.235 11.069 19.1667 10.7657 20.3843 10.7657C21.7883 10.7657 22.8139 11.1513 23.461 11.9227C24.1096 12.694 24.4338 13.5419 24.4338 14.4663C24.4338 15.2174 24.2309 15.8877 23.825 16.477C23.4206 17.0678 22.8933 17.6614 22.2433 18.258C20.9867 19.4164 20.1633 20.3987 19.7733 21.2047C19.3833 22.0107 19.1891 22.9951 19.1905 24.1578ZM20.2565 39.5C17.5612 39.5 15.0262 38.9887 12.6515 37.966C10.2783 36.9419 8.21344 35.5523 6.457 33.7973C4.70056 32.0423 3.31028 29.9797 2.28617 27.6093C1.26206 25.239 0.75 22.7047 0.75 20.0065C0.75 17.3083 1.26206 14.7733 2.28617 12.4015C3.30883 10.0283 4.69622 7.96344 6.44833 6.207C8.20044 4.45056 10.2638 3.06028 12.6385 2.03617C15.0132 1.01206 17.5482 0.5 20.2435 0.5C22.9388 0.5 25.4738 1.01206 27.8485 2.03617C30.2217 3.05883 32.2866 4.44694 34.043 6.2005C35.7994 7.95406 37.1897 10.0174 38.2138 12.3907C39.2379 14.7639 39.75 17.2982 39.75 19.9935C39.75 22.6888 39.2387 25.2238 38.216 27.5985C37.1933 29.9732 35.8038 32.038 34.0473 33.793C32.2909 35.548 30.2282 36.9383 27.8593 37.9638C25.4904 38.9894 22.9562 39.5014 20.2565 39.5Z" fill="#1EA0D9"/>
</svg>
