<svg width="40" height="39" viewBox="0 0 40 39" fill="none" xmlns="http://www.w3.org/2000/svg">
<path d="M21.1284 0.570939L38.6786 18.1211C39.9071 19.3496 39.0374 21.4498 37.2999 21.4498H35.3499V33.1499C35.3499 34.7015 34.7335 36.1895 33.6364 37.2866C32.5393 38.3837 31.0513 39 29.4998 39H27.5498V25.3499C27.5499 23.8577 26.9798 22.4219 25.9561 21.3362C24.9324 20.2505 23.5325 19.5971 22.0429 19.5095L21.6997 19.4998H17.7997C16.2482 19.4998 14.7602 20.1161 13.6631 21.2132C12.566 22.3103 11.9496 23.7983 11.9496 25.3499V39H9.99961C8.44807 39 6.96009 38.3837 5.86299 37.2866C4.76589 36.1895 4.14954 34.7015 4.14954 33.1499V21.4498H2.19952C0.464004 21.4498 -0.407655 19.3496 0.820858 18.1211L18.371 0.570939C18.7367 0.205367 19.2326 0 19.7497 0C20.2668 0 20.7627 0.205367 21.1284 0.570939ZM21.6997 23.3998C22.2169 23.3998 22.7129 23.6053 23.0786 23.971C23.4443 24.3367 23.6498 24.8327 23.6498 25.3499V39H15.8497V25.3499C15.8497 24.8722 16.0251 24.4112 16.3425 24.0543C16.6599 23.6974 17.0972 23.4694 17.5715 23.4135L17.7997 23.3998H21.6997Z" fill="#1EA0D9"/>
</svg>
