<svg width="40" height="40" viewBox="0 0 40 40" fill="none" xmlns="http://www.w3.org/2000/svg">
<path d="M38.6417 1.1118C38.3568 0.827017 37.9957 0.630641 37.6019 0.546309C37.208 0.461978 36.7982 0.493286 36.4217 0.636464L1.59629 13.8178H1.58933C1.18779 13.9722 0.84371 14.2468 0.60409 14.6041C0.364469 14.9614 0.240988 15.384 0.250512 15.8141C0.260036 16.2442 0.402101 16.6609 0.657303 17.0073C0.912506 17.3536 1.2684 17.6127 1.67639 17.7493L1.71208 17.7606L13.665 22.8647C13.8981 22.9355 14.1458 22.9439 14.3832 22.889C14.6205 22.8342 14.8394 22.7181 15.0179 22.5522L34.2018 4.67678C34.2589 4.61962 34.3268 4.57427 34.4015 4.54334C34.4761 4.5124 34.5562 4.49648 34.637 4.49648C34.7179 4.49648 34.7979 4.5124 34.8726 4.54334C34.9473 4.57427 35.0152 4.61962 35.0723 4.67678C35.1295 4.73394 35.1748 4.8018 35.2058 4.87649C35.2367 4.95118 35.2526 5.03122 35.2526 5.11206C35.2526 5.1929 35.2367 5.27295 35.2058 5.34764C35.1748 5.42233 35.1295 5.49019 35.0723 5.54735L17.196 24.7225C17.0302 24.901 16.914 25.1198 16.8592 25.3572C16.8043 25.5946 16.8127 25.8423 16.8835 26.0754L21.9894 38.0353C21.9946 38.0527 21.9998 38.0684 22.0059 38.0849C22.2845 38.8919 22.9897 39.4613 23.842 39.4996H23.929C24.3593 39.502 24.7803 39.375 25.1374 39.135C25.4945 38.8949 25.7712 38.553 25.9313 38.1537L39.1109 3.33784C39.2561 2.96113 39.2891 2.55041 39.2058 2.15536C39.1225 1.7603 38.9266 1.39784 38.6417 1.1118Z" fill="#1EA0D9"/>
</svg>
