<svg width="40" height="39" viewBox="0 0 40 39" fill="none" xmlns="http://www.w3.org/2000/svg">
<path d="M8.05 26V5.2C8.05 2.33188 10.3819 0 13.25 0H34.05C36.9181 0 39.25 2.33188 39.25 5.2V21.2469C39.25 22.6281 38.7056 23.9525 37.7306 24.9275L32.9775 29.6806C32.0025 30.6556 30.6781 31.2 29.2969 31.2H13.25C10.3819 31.2 8.05 28.8681 8.05 26ZM22.35 7.8C21.635 7.8 21.05 8.385 21.05 9.1V13H17.15C16.435 13 15.85 13.585 15.85 14.3V16.9C15.85 17.615 16.435 18.2 17.15 18.2H21.05V22.1C21.05 22.815 21.635 23.4 22.35 23.4H24.95C25.665 23.4 26.25 22.815 26.25 22.1V18.2H30.15C30.865 18.2 31.45 17.615 31.45 16.9V14.3C31.45 13.585 30.865 13 30.15 13H26.25V9.1C26.25 8.385 25.665 7.8 24.95 7.8H22.35ZM24.3 35.1C25.3806 35.1 26.25 35.9694 26.25 37.05C26.25 38.1306 25.3806 39 24.3 39H11.3C5.19812 39 0.25 34.0519 0.25 27.95V9.75C0.25 8.66937 1.11937 7.8 2.2 7.8C3.28062 7.8 4.15 8.66937 4.15 9.75V27.95C4.15 31.8987 7.35125 35.1 11.3 35.1H24.3Z" fill="#1EA0D9"/>
</svg>
