<svg width="41" height="39" viewBox="0 0 41 39" fill="none" xmlns="http://www.w3.org/2000/svg">
<path d="M34.4967 29.055C35.2767 27.69 35.8617 26.13 35.8617 24.375C35.8617 19.5 31.9617 15.6 27.0867 15.6C22.2117 15.6 18.3117 19.5 18.3117 24.375C18.3117 29.25 22.2117 33.15 27.0867 33.15C28.8417 33.15 30.4017 32.565 31.7667 31.785L38.0067 38.025L40.7367 35.295L34.4967 29.055ZM27.0867 29.25C24.3567 29.25 22.2117 27.105 22.2117 24.375C22.2117 21.645 24.3567 19.5 27.0867 19.5C29.8167 19.5 31.9617 21.645 31.9617 24.375C31.9617 27.105 29.8167 29.25 27.0867 29.25ZM20.2617 35.1V39C9.49772 39 0.761719 30.264 0.761719 19.5C0.761719 8.736 9.49772 0 20.2617 0C29.6997 0 37.5582 6.708 39.3717 15.6H35.3352C34.727 13.2441 33.5762 11.0631 31.9747 9.23133C30.3731 7.39956 28.3653 5.96781 26.1117 5.0505V5.85C26.1117 7.995 24.3567 9.75 22.2117 9.75H18.3117V13.65C18.3117 14.7225 17.4342 15.6 16.3617 15.6H12.4617V19.5H16.3617V25.35H14.4117L5.07122 16.0095C4.81772 17.1405 4.66172 18.291 4.66172 19.5C4.66172 28.0995 11.6622 35.1 20.2617 35.1Z" fill="#1EA0D9"/>
</svg>
