<svg width="53" height="40" viewBox="0 0 53 40" fill="none" xmlns="http://www.w3.org/2000/svg">
<path d="M12.5274 17.8333H15.4167V35.1667H19.75V20H24.0833V35.1667H28.4167V20H32.75V35.1667H37.0833V17.8333H39.9715C40.7688 17.8333 41.4167 17.036 41.4167 16.3177C41.4167 15.8833 41.1772 15.3937 40.8154 15.1575L40.8176 15.1012L40.7948 15.0611L40.94 15.0253L27.3333 8.01725V5.96758C29.5 7.11483 31.6136 5.13883 34.9167 6.32725V1.8C31.6114 0.612667 29.5 2.58758 27.3333 1.44033V1.15C27.3333 0.791417 26.6498 0.5 26.25 0.5C25.8503 0.5 25.1667 0.791417 25.1667 1.15V8.01725L11.5611 15.0113L11.8547 15.034L12.1667 15.0459V15.0481C11.0833 15.2843 11.326 15.8823 11.326 16.3167C11.3249 17.036 11.7301 17.8333 12.5274 17.8333ZM14.3333 36.25L11.0833 39.5H41.4167L38.1667 36.25H14.3333ZM38.1667 18.9167V35.1667H39.1254L39.549 35.7658L42.4372 38.473L43.4587 39.5H52.25V18.9167H38.1667ZM44.6667 31.9167H41.4167V28.6667H44.6667V31.9167ZM44.6667 25.4167H41.4167V22.1667H44.6667V25.4167ZM49 31.9167H46.8333V28.6667H49V31.9167ZM49 25.4167H46.8333V22.1667H49V25.4167ZM13.3735 35.1667H14.3333V18.9167H0.25V39.5H9.04017L10.0607 38.5813L12.9499 35.7647L13.3735 35.1667ZM5.66667 31.9167H3.5V28.6667H5.66667V31.9167ZM5.66667 25.4167H3.5V22.1667H5.66667V25.4167ZM11.0833 31.9167H7.83333V28.6667H11.0833V31.9167ZM11.0833 25.4167H7.83333V22.1667H11.0833V25.4167Z" fill="#1EA0D9"/>
</svg>
