<svg width="39" height="39" viewBox="0 0 39 39" fill="none" xmlns="http://www.w3.org/2000/svg">
<path fill-rule="evenodd" clip-rule="evenodd" d="M28.0644 7.06533C25.6185 5.27745 22.7015 4.27441 19.6893 4.18547C16.6771 4.09652 13.7077 4.92575 11.1637 6.5663C8.61972 8.20684 6.61774 10.5835 5.41575 13.3901C4.21375 16.1967 3.86682 19.3045 4.41966 22.3131C4.51075 22.8536 4.38899 23.4089 4.08066 23.8591C3.77233 24.3092 3.30213 24.6183 2.77147 24.7196C2.24081 24.8209 1.69221 24.7062 1.244 24.4005C0.795789 24.0947 0.483877 23.6222 0.375538 23.085C-0.33944 19.1988 0.125351 15.1837 1.7083 11.5719C3.29125 7.96012 5.9176 4.92221 9.23921 2.86087C12.5608 0.799532 16.4208 -0.187881 20.3075 0.0295178C24.1943 0.246917 27.9242 1.65886 31.0028 4.07819L32.6819 2.37284C32.8736 2.17766 33.118 2.04462 33.3842 1.99057C33.6504 1.93651 33.9263 1.96387 34.1772 2.06919C34.4281 2.1745 34.6425 2.35303 34.7934 2.58218C34.9443 2.81133 35.0249 3.0808 35.025 3.35648V9.74595C35.025 10.1155 34.8805 10.4698 34.6232 10.7311C34.3659 10.9924 34.017 11.1392 33.6532 11.1392H27.362C27.0911 11.1386 26.8265 11.0566 26.6014 10.9034C26.3764 10.7503 26.201 10.5329 26.0975 10.2787C25.9939 10.0245 25.9667 9.74485 26.0194 9.47499C26.0721 9.20513 26.2022 8.95715 26.3935 8.76231L28.0644 7.06533ZM35.7219 14.2462C36.2582 14.1434 36.8126 14.2613 37.2634 14.5738C37.7141 14.8863 38.0242 15.3678 38.1253 15.9125C38.8409 19.7991 38.3764 23.8149 36.7934 27.4273C35.2103 31.0397 32.5836 34.078 29.2614 36.1395C25.9393 38.201 22.0786 39.1883 18.1914 38.9703C14.3041 38.7524 10.5739 37.3396 7.49529 34.9193L5.81618 36.6274C5.62432 36.8228 5.37966 36.9559 5.11323 37.0098C4.8468 37.0638 4.57059 37.0362 4.31962 36.9305C4.06865 36.8249 3.85422 36.6459 3.70352 36.4164C3.55281 36.1868 3.47262 35.9169 3.47311 35.641V29.2515C3.47311 28.882 3.61764 28.5276 3.87491 28.2663C4.13217 28.0051 4.4811 27.8583 4.84493 27.8583H11.1361C11.4078 27.8578 11.6735 27.9392 11.8995 28.0923C12.1256 28.2453 12.3018 28.4631 12.4058 28.718C12.5098 28.9729 12.537 29.2534 12.4839 29.524C12.4307 29.7946 12.2997 30.0431 12.1073 30.238L10.4337 31.9349C12.8796 33.7228 15.7965 34.7259 18.8088 34.8148C21.821 34.9037 24.7904 34.0745 27.3344 32.434C29.8784 30.7934 31.8803 28.4167 33.0823 25.6102C34.2843 22.8036 34.6313 19.6958 34.0784 16.6871C34.0284 16.4171 34.0313 16.1396 34.087 15.8707C34.1427 15.6017 34.2501 15.3466 34.403 15.1199C34.5559 14.8931 34.7514 14.6993 34.9781 14.5493C35.2049 14.3994 35.4586 14.2964 35.7246 14.2462H35.7219ZM10.8974 16.8571L8.94942 17.8742C8.79382 17.9602 8.67582 18.1026 8.61888 18.273C8.56194 18.4434 8.57024 18.6293 8.64213 18.7938L11.3309 24.286C11.5025 24.6157 11.7955 24.8632 12.146 24.9744C12.4966 25.0856 12.8762 25.0514 13.2021 24.8795L17.6083 22.511L17.9431 22.3549L17.2572 27.0056C17.2524 27.1411 17.2825 27.2756 17.3444 27.3957C17.4064 27.5158 17.4981 27.6175 17.6106 27.6906C17.723 27.7638 17.8523 27.8059 17.9857 27.8128C18.119 27.8197 18.2519 27.7912 18.3711 27.7301L21.7458 26.0275C21.859 25.972 21.9564 25.8881 22.0289 25.7838C22.1013 25.6795 22.1465 25.5582 22.16 25.4312L23.2026 19.6631L23.7129 19.4151L28.314 17.2556C28.4813 17.1745 28.6312 17.0606 28.7551 16.9206C28.879 16.7806 28.9746 16.6172 29.0362 16.4396C29.0979 16.2621 29.1245 16.0739 29.1145 15.886C29.1045 15.698 29.0581 15.5138 28.978 15.3441C28.6103 14.6878 28.1074 14.1199 27.5036 13.6793C26.8999 13.2386 26.2096 12.9356 25.4799 12.7908C24.7502 12.6461 23.9984 12.6631 23.2758 12.8407C22.5532 13.0183 21.8769 13.3523 21.2931 13.8198L13.6932 19.2257L11.8549 17.0968C11.7578 16.9369 11.6027 16.8222 11.4231 16.7773C11.2435 16.7325 11.0537 16.7612 10.8947 16.8571H10.8974Z" fill="#1EA0D9"/>
</svg>
