<svg width="342" height="321" viewBox="0 0 342 321" fill="none" xmlns="http://www.w3.org/2000/svg">
<path d="M157.75 182.109C166.94 170.304 179.175 161.228 193.14 155.859C207.104 150.49 222.268 149.031 237 151.639C240.509 152.259 243.971 153.125 247.36 154.229C244.744 137.626 237.129 122.215 225.53 110.052C213.931 97.8882 198.899 89.55 182.44 86.1491C149.11 79.3991 114.17 94.9991 96.6395 123.999C89.7982 135.468 85.825 148.417 85.0572 161.749C84.2895 175.081 86.7499 188.401 92.2295 200.579C92.6995 200.119 93.1695 199.659 93.6495 199.209C102.111 191.319 112.385 185.633 123.563 182.651C134.742 179.669 146.482 179.483 157.75 182.109Z" fill="#F8B62D" stroke="#231815" stroke-miterlimit="10"/>
<path d="M92.2287 200.579C86.7491 188.401 84.2887 175.081 85.0564 161.749C85.8242 148.417 89.7974 135.468 96.6387 123.999C114.179 95.0493 149.119 79.3993 182.399 86.1393C198.859 89.5401 213.89 97.8783 225.489 110.042C237.089 122.206 244.703 137.616 247.319 154.219C252.849 156.02 258.162 158.431 263.159 161.409C262.025 142.408 255.383 124.148 244.042 108.86C232.701 93.5714 217.154 81.9167 199.299 75.3193C161.609 61.4993 117.399 73.6993 92.0287 104.749C67.0287 135.349 62.7687 179.049 82.0287 213.549C84.8877 208.827 88.3131 204.471 92.2287 200.579Z" fill="#231815" stroke="#231815" stroke-miterlimit="10"/>
<path d="M174.068 41.5395V7.88953C174.068 -1.76047 159.068 -1.78047 159.068 7.88953V41.5395C159.068 51.1895 174.068 51.2095 174.068 41.5395Z" fill="#231815" stroke="#231815" stroke-miterlimit="10"/>
<path d="M97.66 62.0498C102.49 70.4098 115.45 62.8598 110.66 54.4798L93.83 25.3298C89 16.9698 76.04 24.5198 80.83 32.8998L97.66 62.0498Z" fill="#231815"/>
<path d="M104.14 58.2598L87.31 29.1098M97.66 62.0498C102.49 70.4098 115.45 62.8598 110.66 54.4798L93.83 25.3298C89 16.9698 76.04 24.5198 80.83 32.8998L97.66 62.0498Z" stroke="#231815" stroke-miterlimit="10"/>
<path d="M62.2192 97.4899L33.0692 80.6599C24.6992 75.8199 17.1292 88.7799 25.4992 93.6599L54.6492 110.49C62.9992 115.28 70.5892 102.32 62.2192 97.4899Z" fill="#231815"/>
<path d="M29.2892 87.1399L58.4392 104M62.2192 97.4899L33.0692 80.6599C24.6992 75.8199 17.1292 88.7799 25.4992 93.6599L54.6492 110.49C62.9992 115.28 70.5892 102.32 62.2192 97.4899Z" stroke="#231815" stroke-miterlimit="10"/>
<path d="M8.0593 173.899H41.7093C51.3593 173.899 51.3793 158.899 41.7093 158.899H8.0593C-1.6007 158.899 -1.6107 173.899 8.0593 173.899Z" fill="#231815" stroke="#231815" stroke-miterlimit="10"/>
<path d="M33.0785 252.13L62.2285 235.3C70.5885 230.47 63.0385 217.51 54.6585 222.3L25.5085 239.13C17.1485 244 24.6885 257 33.0785 252.13Z" fill="#231815"/>
<path d="M58.4385 228.83L29.2885 245.66M33.0785 252.13L62.2285 235.3C70.5885 230.47 63.0385 217.51 54.6585 222.3L25.5085 239.13C17.1485 244 24.6885 257 33.0785 252.13Z" stroke="#231815" stroke-miterlimit="10"/>
<path d="M291.419 173.899H325.069C334.719 173.899 334.739 158.899 325.069 158.899H291.419C281.769 158.899 281.749 173.899 291.419 173.899Z" fill="#231815" stroke="#231815" stroke-miterlimit="10"/>
<path d="M278.479 110.439L307.629 93.6093C315.989 88.7793 308.439 75.8193 300.059 80.6093L270.909 97.4393C262.549 102.319 270.099 115.279 278.479 110.439Z" fill="#231815"/>
<path d="M303.839 87.1393L274.699 103.999M278.479 110.439L307.629 93.6093C315.989 88.7793 308.439 75.8193 300.059 80.6093L270.909 97.4393C262.549 102.319 270.099 115.279 278.479 110.439Z" stroke="#231815" stroke-miterlimit="10"/>
<path d="M235.469 62.0493L252.299 32.8993C257.139 24.5293 244.179 16.9593 239.299 25.3293L222.469 54.4793C217.679 62.8593 230.639 70.4193 235.469 62.0493Z" fill="#231815"/>
<path d="M245.819 29.1193L228.999 58.2693M235.469 62.0493L252.299 32.8993C257.139 24.5293 244.179 16.9593 239.299 25.3293L222.469 54.4793C217.679 62.8593 230.639 70.4193 235.469 62.0493Z" stroke="#231815" stroke-miterlimit="10"/>
<path d="M298.25 203.369C298.79 204.779 299.3 206.209 299.76 207.659C300.215 208.977 300.27 210.4 299.92 211.749C311.349 215.916 320.945 223.975 327.023 234.513C333.101 245.05 335.273 257.392 333.156 269.371C331.04 281.351 324.772 292.201 315.451 300.019C306.131 307.836 294.355 312.12 282.19 312.119H141.54C130.809 312.12 120.261 309.346 110.919 304.066C101.576 298.786 93.7584 291.181 88.2234 281.988C82.6885 272.795 79.6247 262.327 79.3297 251.6C79.0348 240.873 81.5185 230.253 86.5399 220.769C85.5399 219.329 84.5899 217.869 83.6799 216.369C83.1199 215.439 82.5799 214.499 82.0599 213.559C73.4196 227.97 70.1504 244.971 72.8299 261.559C74.6993 272.555 79.1783 282.942 85.8912 291.848C92.604 300.755 101.355 307.923 111.41 312.749C123.09 318.219 135.19 319.609 147.86 319.609H271.31C281.11 319.609 290.81 319.889 300.31 316.789C324.94 308.729 342.16 284.959 341.44 258.919C341.017 246.289 336.613 234.115 328.856 224.138C321.099 214.161 310.386 206.892 298.25 203.369Z" fill="#231815" stroke="#231815" stroke-miterlimit="10"/>
<path d="M141.539 187.65C148.05 187.639 154.522 188.652 160.719 190.65C169.961 176.748 183.646 166.394 199.537 161.278C215.427 156.163 232.583 156.59 248.199 162.49C248.043 159.713 247.746 156.946 247.309 154.2C243.936 153.108 240.491 152.252 236.999 151.64C222.273 149.04 207.118 150.503 193.161 155.871C179.205 161.24 166.976 170.311 157.789 182.11C159.459 182.49 161.109 182.93 162.789 183.44L154.319 186.89C155.439 185.25 156.606 183.657 157.819 182.11C146.55 179.482 134.808 179.667 123.627 182.649C112.447 185.631 102.172 191.319 93.7091 199.21C93.2291 199.66 92.7091 200.12 92.2891 200.59C93.3792 203.003 94.5908 205.359 95.9191 207.65C101.729 201.346 108.782 196.314 116.634 192.871C124.486 189.429 132.966 187.651 141.539 187.65Z" fill="#231815" stroke="#231815" stroke-miterlimit="10"/>
<path d="M162.719 183.439C161.069 182.929 159.419 182.489 157.719 182.109C156.505 183.656 155.339 185.249 154.219 186.889L162.719 183.439Z" fill="#231815" stroke="#231815" stroke-miterlimit="10"/>
<path d="M263.218 170.279C275.101 178.285 284.404 189.568 289.998 202.759C291.433 202.178 293.012 202.056 294.518 202.409C295.778 202.679 297.018 203.009 298.248 203.409C291.587 185.87 279.226 171.079 263.148 161.409C263.248 163.059 263.318 164.719 263.328 166.409C263.318 167.699 263.278 168.999 263.218 170.279Z" fill="#231815" stroke="#231815" stroke-miterlimit="10"/>
<path d="M290 202.76C290.958 205.013 291.803 207.312 292.53 209.65C295.042 210.164 297.513 210.866 299.92 211.75C300.271 210.4 300.215 208.978 299.76 207.66C299.3 206.21 298.76 204.79 298.25 203.37C297.02 203.02 295.78 202.69 294.52 202.37C293.009 202.029 291.43 202.166 290 202.76Z" fill="#231815" stroke="#231815" stroke-miterlimit="10"/>
<path d="M263.33 166.399C263.39 158.109 252.33 156.939 249.18 162.899C253.872 164.766 258.359 167.112 262.57 169.899C263.104 168.812 263.365 167.61 263.33 166.399Z" fill="#231815" stroke="#231815" stroke-miterlimit="10"/>
<path d="M263.218 170.28C263.278 168.99 263.328 167.69 263.338 166.39C263.364 167.588 263.1 168.775 262.568 169.85L263.218 170.28Z" fill="#231815" stroke="#231815" stroke-miterlimit="10"/>
<path d="M86.5386 220.769C89.0648 216.008 92.1976 211.595 95.8586 207.639C94.5303 205.349 93.3188 202.992 92.2286 200.579C88.3215 204.482 84.9062 208.848 82.0586 213.579C82.5886 214.519 83.1186 215.459 83.6786 216.389C84.5886 217.869 85.5586 219.329 86.5386 220.769Z" fill="#231815" stroke="#231815" stroke-miterlimit="10"/>
<path d="M248.21 162.509L249.21 162.889C252.38 156.889 263.43 158.099 263.36 166.389C263.36 164.719 263.28 163.059 263.18 161.389C258.183 158.411 252.871 156 247.34 154.199C247.771 156.953 248.061 159.726 248.21 162.509Z" fill="#231815" stroke="#231815" stroke-miterlimit="10"/>
<path d="M326.36 257.5C327.36 276.56 316.17 294.78 298.18 301.67C290.06 304.78 281.93 304.62 273.47 304.62H158C152.52 304.62 147 304.67 141.55 304.62C132.411 304.634 123.413 302.359 115.38 298.001C107.346 293.644 100.532 287.344 95.5596 279.675C90.5874 272.007 87.6153 263.215 86.9148 254.103C86.2144 244.991 87.8079 235.848 91.5498 227.51C93.1575 223.837 95.1699 220.356 97.5498 217.13C98.3298 216.08 99.1398 215.07 99.9898 214.13C114.37 197.44 137.55 191.44 158.64 197.95C161.98 198.95 165.27 197.21 167.11 194.5C181.75 172.97 208.53 161.37 234.26 166.4C239.009 167.332 243.643 168.777 248.08 170.71C248.95 171.09 249.81 171.48 250.65 171.89C251.49 172.3 252.59 172.89 253.54 173.38C268.552 181.583 279.858 195.218 285.14 211.49C285.323 212.847 285.938 214.109 286.894 215.089C287.851 216.069 289.098 216.714 290.45 216.93C309.93 221.09 325.25 237.28 326.36 257.5Z" fill="white"/>
<path d="M299.92 211.75C311.349 215.916 320.945 223.976 327.023 234.513C333.101 245.051 335.272 257.393 333.156 269.372C331.04 281.351 324.771 292.202 315.451 300.02C306.131 307.837 294.354 312.121 282.19 312.12H141.54C132.542 312.125 123.65 310.179 115.478 306.416C107.305 302.654 100.045 297.164 94.1978 290.325C88.351 283.486 84.0565 275.461 81.6102 266.802C79.1639 258.144 78.624 249.058 80.0277 240.17C81.4313 231.283 84.7452 222.806 89.7409 215.322C94.7366 207.839 101.295 201.528 108.965 196.824C116.635 192.12 125.234 189.135 134.168 188.074C143.103 187.013 152.162 187.902 160.72 190.68C169.962 176.778 183.647 166.424 199.537 161.308C215.428 156.193 232.583 156.62 248.2 162.52L249.2 162.9C253.895 164.76 258.383 167.106 262.59 169.9C262.81 170.04 263.03 170.18 263.24 170.33C275.112 178.325 284.408 189.594 290 202.77C290.95 205.01 291.8 207.31 292.53 209.66C295.042 210.169 297.513 210.868 299.92 211.75ZM298.18 301.67C316.18 294.78 327.4 276.56 326.36 257.5C325.25 237.28 309.93 221.09 290.54 216.89C289.187 216.674 287.941 216.029 286.984 215.049C286.028 214.069 285.412 212.807 285.23 211.45C279.948 195.178 268.642 181.543 253.63 173.34C252.63 172.82 251.72 172.34 250.74 171.85C249.76 171.36 249.04 171.05 248.17 170.67C243.733 168.737 239.099 167.292 234.35 166.36C208.62 161.36 181.84 172.93 167.2 194.46C165.36 197.17 162.07 198.94 158.73 197.91C137.64 191.4 114.46 197.4 100.08 214.09C99.2296 215.09 98.4196 216.09 97.6396 217.09C95.2597 220.316 93.2473 223.798 91.6396 227.47C87.8977 235.808 86.3042 244.951 87.0046 254.063C87.7051 263.175 90.6772 271.967 95.6495 279.636C100.622 287.304 107.436 293.604 115.469 297.962C123.503 302.319 132.5 304.594 141.64 304.58C147.12 304.63 152.64 304.58 158.09 304.58H273.47C281.93 304.62 290.06 304.78 298.18 301.67Z" fill="#231815"/>
</svg>
